<?xml version="1.0" standalone="no"?>
<!DOCTYPE svg PUBLIC "-//W3C//DTD SVG 1.1//EN" "http://www.w3.org/Graphics/SVG/1.1/DTD/svg11.dtd" >
<svg xmlns="http://www.w3.org/2000/svg">
<metadata></metadata>
<defs>
<font id="gt_haptikregular" horiz-adv-x="1433" >
<font-face units-per-em="2048" ascent="1638" descent="-410" />
<missing-glyph horiz-adv-x="593" />
<glyph unicode="&#xd;" horiz-adv-x="593" />
<glyph unicode=" "  horiz-adv-x="593" />
<glyph unicode="&#x09;" horiz-adv-x="593" />
<glyph unicode="&#xa0;" horiz-adv-x="593" />
<glyph unicode="!" horiz-adv-x="647" d="M184 139q0 61 39 100.5t101 39.5q61 0 100 -39t39 -101q0 -61 -39 -100t-100 -39t-100.5 39t-39.5 100zM231 410v1024h185v-1024h-185z" />
<glyph unicode="&#x22;" horiz-adv-x="727" d="M143 911v523h150v-523h-150zM434 911v523h150v-523h-150z" />
<glyph unicode="#" horiz-adv-x="1165" d="M61 436l17 133h215l41 295h-215l18 133h215l60 437h141l-61 -437h260l59 437h141l-61 -437h213l-17 -133h-215l-43 -295h215l-18 -133h-215l-59 -436h-140l62 436h-262l-60 -436h-139l61 436h-213zM432 569h260l39 295h-258z" />
<glyph unicode="$" horiz-adv-x="1185" d="M143 342l162 86q27 -100 82 -158.5t127 -76.5v454q-66 20 -129 52t-113.5 78t-81 110.5t-30.5 150.5q0 80 27.5 145.5t75.5 115t112.5 82t138.5 44.5v172h135v-167q135 -16 241.5 -105.5t151.5 -237.5l-174 -71q-27 100 -87 156.5t-132 70.5v-440q76 -23 144.5 -57.5 t120 -85t81 -117t29.5 -150.5q0 -86 -30.5 -154.5t-83 -117.5t-120 -79t-141.5 -38v-168h-135v168q-57 8 -113.5 30.5t-105.5 63.5t-89 101.5t-63 142.5zM344 1038q0 -78 47 -123t123 -73v397q-86 -23 -128 -80.5t-42 -120.5zM649 190q84 16 137.5 69.5t53.5 133.5 q0 82 -52.5 134.5t-138.5 82.5v-420z" />
<glyph unicode="%" horiz-adv-x="1685" d="M72 1102q0 68 26.5 128t71.5 105t105.5 72t127.5 27q68 0 128.5 -27t105.5 -72t70.5 -105t25.5 -128t-25.5 -128.5t-70.5 -105.5t-105.5 -70.5t-128.5 -25.5t-128 25.5t-105 70.5t-71.5 105.5t-26.5 128.5zM207 1102q0 -82 57.5 -139.5t138.5 -57.5q82 0 139.5 57.5 t57.5 139.5t-57.5 139t-139.5 57t-139 -57t-57 -139zM244 84l1071 1350l102 -82l-1071 -1352zM952 330q0 68 26 128t71 105t105 72t128 27t128 -27t105.5 -72t72 -105.5t26.5 -127.5q0 -68 -26.5 -128.5t-72 -105.5t-105.5 -70.5t-128 -25.5t-128 25.5t-105 70.5t-71 105.5 t-26 128.5zM1085 330q0 -82 57.5 -139.5t139.5 -57.5t139.5 57.5t57.5 139.5t-57.5 139t-139.5 57t-139.5 -57t-57.5 -139z" />
<glyph unicode="&#x26;" horiz-adv-x="1415" d="M154 387q0 80 23.5 142.5t63.5 112.5t91 90t104 75l-49 57q-49 55 -84 119t-35 164q0 61 22.5 117.5t65.5 99.5t104.5 68.5t139.5 25.5q76 0 137.5 -26.5t104.5 -69.5t66.5 -100.5t23.5 -118.5q0 -66 -18.5 -119t-50.5 -97t-73.5 -81t-87.5 -70l271 -307 q16 51 25.5 101.5t17.5 97.5l168 -33q-12 -84 -33 -161t-49 -148l178 -201l-139 -123l-137 156q-70 -84 -170.5 -133.5t-245.5 -49.5q-104 0 -185 34t-136.5 91.5t-84 132t-28.5 154.5zM338 387q0 -41 16.5 -84t49 -76.5t79 -55t105.5 -21.5q106 0 179 39.5t120 103.5 l-334 381q-43 -29 -83 -59.5t-68.5 -65.5t-46 -75t-17.5 -87zM453 1139q0 -49 21.5 -90t55.5 -78l58 -68q68 47 114 101.5t46 132.5q0 68 -43 107.5t-107 39.5q-59 0 -102 -41t-43 -104z" />
<glyph unicode="'" horiz-adv-x="436" d="M143 911v523h150v-523h-150z" />
<glyph unicode="(" horiz-adv-x="659" d="M82 641q0 283 101.5 534.5t287.5 442.5l117 -107q-82 -92 -144.5 -188t-104.5 -202.5t-63.5 -225.5t-21.5 -254q0 -270 85 -479t249 -391l-117 -107q-186 190 -287.5 442t-101.5 535z" />
<glyph unicode=")" horiz-adv-x="659" d="M72 -229q164 182 249 391t85 479q0 135 -22 254t-63.5 225.5t-104 202.5t-144.5 188l116 107q186 -190 288 -442t102 -535t-101.5 -534.5t-288.5 -442.5z" />
<glyph unicode="*" horiz-adv-x="690" d="M0 1137l45 127l234 -78v248h131v-248l235 78l45 -127l-239 -76l145 -199l-102 -80l-150 201l-147 -201l-105 80l146 199z" />
<glyph unicode="+" d="M197 559v184h428v428h184v-428h428v-184h-428v-428h-184v428h-428z" />
<glyph unicode="," horiz-adv-x="628" d="M41 -387l381 694l145 -82l-383 -690z" />
<glyph unicode="-" horiz-adv-x="1286" d="M164 541v184h958v-184h-958z" />
<glyph unicode="." horiz-adv-x="731" d="M205 160q0 68 46 115t114 47t114.5 -47.5t46.5 -114.5q0 -68 -47 -114t-114 -46q-68 0 -114 46t-46 114z" />
<glyph unicode="/" horiz-adv-x="1501" d="M123 115l1112 1319l143 -113l-1112 -1321z" />
<glyph unicode="0" horiz-adv-x="1593" d="M123 711q0 152 52 282.5t143.5 226t214.5 149.5t264 54t264 -54t214 -149.5t143 -226.5t52 -282q0 -152 -52 -282t-143 -225t-214 -149.5t-264 -54.5t-264 54.5t-214.5 149.5t-143.5 225t-52 282zM307 711q0 -111 38 -207t103.5 -167t155 -112t193.5 -41t193 41 t154.5 112t103.5 167t38 207t-38 208t-103.5 167.5t-154.5 111.5t-193 41t-193.5 -41t-155 -111.5t-103.5 -168t-38 -207.5zM616 715q0 76 53.5 128t127.5 52t126 -52t52 -128q0 -37 -14.5 -69t-38 -55.5t-56 -37.5t-69.5 -14t-70 14t-57.5 37.5t-39 55.5t-14.5 69z" />
<glyph unicode="1" horiz-adv-x="937" d="M82 952l481 482h170v-1434h-184v1161l-340 -340z" />
<glyph unicode="2" horiz-adv-x="1259" d="M143 1116q31 63 76 120.5t101.5 101.5t127 70t154.5 26q94 0 177 -34t144.5 -92.5t96.5 -140.5t35 -176q0 -109 -41 -199t-99 -149l-446 -459h586v-184h-862v162l593 610q39 41 61.5 95.5t22.5 115.5q0 59 -20.5 108.5t-56 84t-82.5 54t-101 19.5q-109 0 -191.5 -73.5 t-125.5 -188.5z" />
<glyph unicode="3" horiz-adv-x="1153" d="M143 332l160 123q23 -121 95.5 -196t181.5 -75q94 0 159.5 59.5t65.5 164.5q0 104 -63.5 159.5t-149.5 59.5h-86v184h86q86 4 149.5 61.5t63.5 155.5q0 51 -18.5 92t-49 70t-71.5 44t-86 15q-104 0 -177 -75.5t-100 -186.5l-158 127q20 66 60.5 124t95.5 101t124 69 t148 26q86 0 161 -30t132.5 -83t90 -128t32.5 -165q0 -104 -43 -183t-108 -126q72 -51 111.5 -131t39.5 -185q0 -96 -32.5 -170.5t-88 -126t-130 -79t-160.5 -27.5q-82 0 -153 24.5t-127 68.5t-95 105.5t-60 133.5z" />
<glyph unicode="4" horiz-adv-x="1413" d="M61 291v170l822 973h153v-959h295v-184h-295v-291h-184v291h-791zM319 475h533v635z" />
<glyph unicode="5" horiz-adv-x="1200" d="M143 143l95 164q74 -63 152.5 -93t156.5 -30q61 0 116.5 18.5t97.5 55.5t65.5 93.5t23.5 129.5q0 141 -83 216t-218 75q-76 0 -161 -22.5t-163 -61.5v746h811v-185h-626v-311q16 4 56 11t93 7q106 0 194.5 -34.5t152 -98t97 -151.5t33.5 -195q0 -119 -41 -208 t-110.5 -149.5t-158.5 -90t-183 -29.5q-104 0 -210 36t-190 107z" />
<glyph unicode="6" horiz-adv-x="1210" d="M143 627q0 217 43 365.5t107 240.5q63 92 160.5 146.5t236.5 54.5q117 0 190.5 -35t125.5 -76l-101 -152q-43 33 -96 55.5t-125 22.5q-70 0 -125 -25.5t-102 -80.5q-47 -59 -74 -137t-27 -150q63 47 133 65.5t136 18.5q98 0 183 -34t147.5 -94t97 -145t34.5 -190 q0 -104 -35.5 -192t-98 -150.5t-148.5 -98.5t-187 -36q-129 0 -226 54.5t-152 140.5q-51 78 -74 183t-23 249zM334 467q0 -68 22.5 -120t62.5 -89t91 -55.5t111 -18.5q125 0 203.5 80t78.5 211q0 129 -76.5 205t-203.5 76q-129 0 -209 -80t-80 -209z" />
<glyph unicode="7" horiz-adv-x="1112" d="M82 1249v185h948v-177l-649 -1257h-207l643 1249h-735z" />
<glyph unicode="8" horiz-adv-x="1138" d="M143 401q0 104 42 183.5t120 132.5q-74 51 -118 128t-44 187q0 92 32 166t88 126t135 81t171 29t171 -29t135.5 -81t88 -125t31.5 -163q0 -199 -170 -319q170 -121 170 -320q0 -90 -31.5 -162.5t-88 -125t-135 -81t-171.5 -28.5q-92 0 -171 27.5t-135 80t-88 127 t-32 166.5zM328 401q0 -98 67.5 -157.5t175.5 -59.5q109 0 174.5 59.5t65.5 157.5q0 53 -19.5 95.5t-53 71t-77 43t-90.5 14.5t-91 -14.5t-77.5 -43t-54 -70.5t-20.5 -96zM328 1032q0 -53 20.5 -95t54 -70.5t77.5 -43t91 -14.5t90.5 14.5t77 43t53 70.5t19.5 95 q0 98 -65.5 157.5t-174.5 59.5t-176 -59.5t-67 -157.5z" />
<glyph unicode="9" horiz-adv-x="1200" d="M123 956q0 104 36 192.5t98 151t148.5 98.5t186.5 36q129 0 225 -54.5t154 -140.5q55 -84 75.5 -193.5t20.5 -244.5q0 -205 -36.5 -360t-102.5 -253q-63 -92 -161.5 -140t-244.5 -48q-104 0 -182 23.5t-150 64.5l78 168q129 -72 262 -72q82 0 137.5 27t96.5 78 q53 66 71.5 143.5t18.5 145.5q-63 -47 -133 -65.5t-135 -18.5q-98 0 -183.5 33.5t-147.5 94t-97 145.5t-35 189zM307 958q0 -129 77 -204.5t204 -75.5q129 0 209 80t80 209q0 68 -23 120t-62.5 88.5t-92 55t-109.5 18.5q-125 0 -204 -79.5t-79 -211.5z" />
<glyph unicode=":" horiz-adv-x="649" d="M164 160q0 68 46 115t114 47t114.5 -47.5t46.5 -114.5q0 -68 -47 -114t-114 -46q-68 0 -114 46t-46 114zM164 889q0 68 46 115t114 47t114.5 -47.5t46.5 -114.5q0 -68 -47 -114t-114 -46q-68 0 -114 46t-46 114z" />
<glyph unicode=";" horiz-adv-x="815" d="M61 -387l381 694l146 -82l-383 -690zM330 889q0 68 46 115t113 47q68 0 115 -47.5t47 -114.5q0 -68 -47 -114t-115 -46t-113.5 46t-45.5 114z" />
<glyph unicode="&#x3c;" d="M233 492v163l889 396l76 -162l-715 -316l715 -315l-76 -162z" />
<glyph unicode="=" d="M219 283v184h995v-184h-995zM219 723v184h995v-184h-995z" />
<glyph unicode="&#x3e;" d="M233 258l715 315l-715 316l76 162l889 -396v-163l-889 -396z" />
<glyph unicode="?" horiz-adv-x="1128" d="M102 958q0 100 31 186.5t89.5 151t140 101.5t184.5 37q94 0 171 -28t132 -80t85 -126t30 -166q0 -102 -52.5 -191t-146.5 -167q-68 -57 -96.5 -108.5t-28.5 -112.5v-52h-184v52q0 113 53 202.5t147 165.5q63 51 93 101.5t30 109.5q0 43 -14 82t-43 68.5t-73 47t-103 17.5 q-121 0 -192.5 -79.5t-71.5 -211.5h-181zM410 139q0 61 38.5 100.5t100.5 39.5q61 0 100 -39t39 -101q0 -61 -39 -100t-100 -39t-100 39t-39 100z" />
<glyph unicode="@" horiz-adv-x="1943" d="M164 621q0 182 64.5 335.5t176 265t265 174t331.5 62.5q174 0 321.5 -52t253 -147.5t165 -230.5t59.5 -301q0 -246 -90 -391.5t-274 -145.5q-86 0 -138.5 32t-78.5 110q-47 -70 -116 -108t-165 -38q-68 0 -123 20.5t-94 56.5t-59.5 84t-20.5 106q0 61 22.5 109t58.5 80 t83 50.5t96 22.5l242 18q18 2 26.5 13.5t8.5 23.5v29q0 35 -41 71.5t-119 36.5q-76 0 -136.5 -35.5t-74.5 -113.5l-145 69q27 104 108.5 168t235.5 64q176 0 255.5 -88t79.5 -234v-268q0 -66 29 -98.5t76 -32.5q82 0 132 89t50 296q0 127 -45 232.5t-128 180t-197.5 116.5 t-256.5 42q-143 0 -265 -50t-211 -139t-139 -213t-50 -271t48 -271.5t134 -215.5t205 -142t262 -51q154 0 269.5 28.5t197.5 65.5l33 -160q-102 -43 -220 -70.5t-280 -27.5q-178 0 -328.5 63.5t-260 176t-171 267t-61.5 337.5zM811 453q0 -45 34 -80t107 -35q51 0 93 17.5 t71 47t45.5 66.5t16.5 74v49l-260 -29q-55 -6 -81 -38.5t-26 -71.5z" />
<glyph unicode="A" horiz-adv-x="1568" d="M20 0l668 1434h193l667 -1434h-202l-115 252h-893l-115 -252h-203zM426 436h717l-359 774z" />
<glyph unicode="B" horiz-adv-x="1243" d="M164 0v1434h600q82 0 154.5 -29t126 -81t85 -126t31.5 -164q0 -102 -47 -186t-127 -131q80 -47 127 -130t47 -188q0 -90 -31.5 -163.5t-85 -126t-126 -81t-154.5 -28.5h-600zM348 184h416q92 0 152.5 58.5t60.5 156.5t-57.5 162t-145.5 64h-426v-441zM348 809h426 q88 0 145.5 63.5t57.5 161.5t-60.5 156.5t-152.5 58.5h-416v-440z" />
<glyph unicode="C" horiz-adv-x="1349" d="M102 717q0 154 55.5 285t150.5 227t225.5 150.5t281.5 54.5q154 0 279 -55.5t225 -149.5l-84 -174q-78 84 -183.5 139t-244.5 55q-111 0 -206 -39t-164.5 -108.5t-109.5 -167.5t-40 -217t40 -217.5t109.5 -168t164.5 -108.5t206 -39q66 0 128 14.5t136 49.5l33 -189 q-86 -31 -155.5 -45t-141.5 -14q-145 0 -274.5 54.5t-224.5 150.5t-150.5 227t-55.5 285z" />
<glyph unicode="D" horiz-adv-x="1472" d="M164 0v1434h491q152 0 283 -54.5t227.5 -149.5t150.5 -226.5t54 -286.5q0 -156 -54 -287t-150.5 -226t-227.5 -149.5t-283 -54.5h-491zM348 184h307q115 0 212.5 39t168 109.5t110.5 169t40 215.5t-40 214t-110.5 167.5t-168 110.5t-212.5 40h-307v-1065z" />
<glyph unicode="E" horiz-adv-x="1157" d="M164 0v1434h880v-185h-696v-440h696v-184h-696v-441h696v-184h-880z" />
<glyph unicode="F" horiz-adv-x="1126" d="M164 0v1434h880v-185h-696v-440h696v-184h-696v-625h-184z" />
<glyph unicode="G" horiz-adv-x="1349" d="M102 719q0 152 55.5 283t150.5 227t225.5 150.5t281.5 54.5q154 0 279 -55.5t225 -149.5l-84 -174q-78 84 -183.5 139t-244.5 55q-111 0 -206 -39t-164.5 -108.5t-109.5 -167.5t-40 -217t40 -217.5t109.5 -168t164.5 -108.5t208 -39q39 0 67.5 4.5t61.5 12.5v370h-330 v185h514v-690q-74 -29 -152.5 -47.5t-164.5 -18.5q-145 0 -273.5 54.5t-223.5 151.5t-150.5 228t-55.5 285z" />
<glyph unicode="H" horiz-adv-x="1515" d="M164 0v1434h184v-625h819v625h185v-1434h-185v625h-819v-625h-184z" />
<glyph unicode="I" horiz-adv-x="512" d="M164 0v1434h184v-1434h-184z" />
<glyph unicode="J" horiz-adv-x="1007" d="M31 418l170 84q0 -66 14 -124.5t45 -101.5t78 -67.5t113 -24.5q55 0 98 21.5t71.5 58.5t44 85t15.5 104v981h184v-981q0 -100 -28.5 -183.5t-82 -143.5t-130 -93t-172.5 -33q-113 0 -193 39t-130 100.5t-73.5 135t-23.5 143.5z" />
<glyph unicode="K" horiz-adv-x="1325" d="M164 0v1434h184v-715l707 715h260l-619 -625l619 -809h-234l-516 676l-217 -219v-457h-184z" />
<glyph unicode="L" horiz-adv-x="1089" d="M164 0v1434h184v-1250h711v-184h-895z" />
<glyph unicode="M" horiz-adv-x="2070" d="M164 0v1434h190l682 -1196l680 1196h191v-1434h-185v1065l-606 -1065h-162l-606 1065v-1065h-184z" />
<glyph unicode="N" horiz-adv-x="1611" d="M164 0v1434h170l930 -1129v1129h184v-1434h-176l-924 1120v-1120h-184z" />
<glyph unicode="O" horiz-adv-x="1634" d="M102 717q0 154 54.5 285t150.5 227t226 150.5t284 54.5t285 -54.5t226 -150.5t149.5 -227.5t54.5 -284.5q0 -154 -54.5 -285t-149.5 -227t-226 -150.5t-285 -54.5t-284 54.5t-226 150.5t-150.5 227t-54.5 285zM287 717q0 -115 40 -212t110.5 -169t167.5 -112t212 -40 t212 40t168 112t111 169t40 212t-40 212t-111 168.5t-168 111.5t-212 40t-212 -40t-167.5 -111.5t-110.5 -169t-40 -211.5z" />
<glyph unicode="P" horiz-adv-x="1218" d="M164 0v1434h510q104 0 192 -37t152.5 -101.5t101.5 -152.5t37 -193q0 -104 -37 -193t-101.5 -153.5t-152.5 -100.5t-192 -36h-326v-467h-184zM348 651h326q61 0 116.5 22.5t95.5 62.5t63.5 94.5t23.5 119.5q0 66 -23.5 120t-63.5 94t-95.5 62.5t-116.5 22.5h-326v-598z " />
<glyph unicode="Q" horiz-adv-x="1710" d="M102 717q0 154 54.5 285t150.5 227t226.5 150.5t283.5 54.5q154 0 285 -54.5t227 -150.5t150.5 -227.5t54.5 -284.5q0 -262 -150 -449l367 -364l-129 -129l-367 366q-184 -141 -438 -141q-154 0 -284 54.5t-226 150.5t-150.5 227t-54.5 285zM287 717q0 -115 40 -212 t110.5 -169t167.5 -112t212 -40q88 0 164 23.5t141 66.5l-401 402l129 129l401 -402q47 66 73 145t26 169q0 115 -40 212t-111 168.5t-169 111.5t-213 40t-212 -40t-167.5 -111.5t-110.5 -169t-40 -211.5z" />
<glyph unicode="R" horiz-adv-x="1378" d="M164 0v1434h551q104 0 192 -37t152.5 -101.5t101.5 -152.5t37 -193q0 -147 -68.5 -258.5t-185.5 -171.5l424 -520h-240l-380 467h-400v-467h-184zM348 651h254l-82 103l142 118l159 -202q84 33 138.5 107.5t54.5 172.5q0 66 -23.5 120t-63.5 94t-95.5 62.5t-116.5 22.5 h-367v-598z" />
<glyph unicode="S" horiz-adv-x="1134" d="M133 342l162 86q35 -123 107.5 -183.5t175.5 -60.5q51 0 97 14.5t79.5 42t54 67.5t20.5 89q0 55 -25.5 95t-63.5 67t-82 43t-83 27q-59 18 -133.5 43.5t-139 72t-108.5 116t-44 173.5q0 92 35.5 166t96 126t139.5 80t163 28q80 0 150.5 -25t129 -70t101.5 -108.5 t67 -143.5l-174 -71q-35 123 -110.5 178t-167.5 55q-55 0 -100.5 -17.5t-77 -46t-50 -68.5t-18.5 -83q0 -55 26.5 -93t67.5 -63.5t90 -42t96 -28.5q76 -23 149 -54.5t128 -79.5t89 -116t34 -160q0 -98 -38 -172.5t-99.5 -124t-140.5 -75t-161 -25.5q-68 0 -134 18.5 t-126.5 58.5t-107.5 105.5t-74 159.5z" />
<glyph unicode="T" horiz-adv-x="1333" d="M10 1249v185h1313v-185h-565v-1249h-185v1249h-563z" />
<glyph unicode="U" horiz-adv-x="1597" d="M143 655v779h185v-779q0 -100 35.5 -186t99 -149.5t149.5 -99.5t187 -36q100 0 186 36t149.5 99.5t99.5 149.5t36 186v779h184v-779q0 -139 -50 -259t-138 -208t-208 -138t-259 -50t-259 50t-208 138t-138.5 208t-50.5 259z" />
<glyph unicode="V" horiz-adv-x="1523" d="M10 1434h205l549 -1155l545 1155h204l-682 -1434h-139z" />
<glyph unicode="W" horiz-adv-x="2498" d="M20 1434h199l445 -1119l497 1119h176l498 -1119l444 1119h199l-569 -1434h-135l-525 1176l-524 -1176h-135z" />
<glyph unicode="X" horiz-adv-x="1458" d="M31 0l579 715l-579 719h235l463 -572l463 572h235l-579 -719l579 -715h-237l-461 567l-461 -567h-237z" />
<glyph unicode="Y" horiz-adv-x="1355" d="M10 1434h226l442 -639l442 639h226l-576 -830v-604h-184v604z" />
<glyph unicode="Z" horiz-adv-x="1355" d="M102 0v141l877 1108h-877v185h1151v-142l-876 -1108h876v-184h-1151z" />
<glyph unicode="[" horiz-adv-x="696" d="M225 -274v1833h410v-144h-256v-1546h256v-143h-410z" />
<glyph unicode="\" horiz-adv-x="1378" d="M61 1321l144 113l1112 -1319l-143 -115z" />
<glyph unicode="]" horiz-adv-x="696" d="M61 -131h256v1546h-256v144h410v-1833h-410v143z" />
<glyph unicode="^" horiz-adv-x="698" d="M20 1282l330 311l328 -311l-109 -111l-219 213l-221 -213z" />
<glyph unicode="_" horiz-adv-x="1224" d="M61 20h1102v-141h-1102v141z" />
<glyph unicode="`" horiz-adv-x="557" d="M20 1462l82 131l435 -280l-80 -123z" />
<glyph unicode="a" horiz-adv-x="1085" d="M92 293q0 74 24.5 130t67.5 96t99.5 63.5t119.5 29.5l297 29q35 4 55.5 24.5t20.5 51.5v22q0 66 -59.5 109t-163.5 43q-111 0 -179.5 -45t-84.5 -141l-160 86q29 113 126 185.5t282 72.5q215 0 315 -101.5t100 -281.5v-666h-176v145q-49 -76 -136 -120.5t-194 -44.5 q-86 0 -152.5 24.5t-110.5 66.5t-67.5 99t-23.5 123zM272 293q0 -66 48.5 -107t152.5 -41q63 0 118.5 24t96.5 62.5t64.5 86t23.5 96.5v75l-342 -40q-90 -10 -126 -54.5t-36 -101.5z" />
<glyph unicode="b" horiz-adv-x="1234" d="M143 0v1434h176v-549q55 68 142.5 116t214.5 48q106 0 197.5 -38t158 -107.5t104.5 -169t38 -222.5t-38 -222.5t-103.5 -169t-157 -107.5t-195.5 -38q-125 0 -214 48.5t-147 123.5v-147h-176zM307 512q0 -170 89 -271.5t247 -101.5q80 0 144.5 28t109.5 77t69.5 117.5 t24.5 150.5t-24.5 150.5t-69.5 117.5t-109.5 77t-144.5 28q-158 0 -247 -101.5t-89 -271.5z" />
<glyph unicode="c" horiz-adv-x="1011" d="M61 512q0 115 40 213t112 170t168 113t211 41q219 0 360 -152l-110 -139q-47 57 -110.5 89t-143.5 32q-72 0 -134.5 -27t-109.5 -74t-73.5 -115.5t-26.5 -150.5q0 -84 27.5 -151.5t73.5 -115.5t108.5 -74t134.5 -26q86 0 150.5 35t113.5 92l109 -141q-66 -68 -158 -112 t-213 -44q-113 0 -210 41t-168 113t-111 170t-40 213z" />
<glyph unicode="d" horiz-adv-x="1234" d="M61 512q0 123 38 222.5t104.5 169t158.5 107.5t201 38q123 0 212 -46.5t140 -117.5v549h177v-1434h-177v147q-51 -78 -143 -125t-215 -47q-106 0 -196.5 38t-157 107.5t-104.5 169t-38 222.5zM244 512q0 -82 24.5 -150.5t69.5 -117.5t109.5 -77t144.5 -28 q158 0 247 101.5t89 271.5t-89 271.5t-247 101.5q-80 0 -144.5 -28t-109.5 -77t-69.5 -117.5t-24.5 -150.5z" />
<glyph unicode="e" horiz-adv-x="1110" d="M61 504q0 111 35 210t100.5 173t159 118t209.5 44q113 0 204 -41t155.5 -114t99.5 -171t35 -211v-53h-821q4 -78 32.5 -138.5t74.5 -100.5t105.5 -60.5t124.5 -20.5q113 0 193 47t133 111l90 -135q-31 -35 -69.5 -69t-89 -59.5t-112 -42t-136.5 -16.5q-117 0 -212.5 39 t-165 109t-107.5 167t-38 214zM250 600h616q-16 129 -92 207t-203 78q-129 0 -214 -78t-107 -207z" />
<glyph unicode="f" horiz-adv-x="737" d="M31 870v154h188v57q0 201 89 286t241 85q29 0 73 -4t85 -10v-160q-43 6 -74 8t-62 2q-90 0 -133 -43t-43 -164v-57h297v-154h-297v-870h-176v870h-188z" />
<glyph unicode="g" horiz-adv-x="1255" d="M82 512q0 123 38 222.5t104.5 169t157.5 107.5t200 38q129 0 219 -48.5t135 -115.5v139h176v-969q0 -92 -20.5 -180t-75.5 -156.5t-151.5 -111.5t-246.5 -43q-96 0 -169.5 18.5t-129 51t-96.5 79.5t-69 103l137 108q49 -98 131 -151.5t211 -53.5q96 0 156.5 29t94.5 77 t46 108.5t12 121.5v84q-49 -72 -142 -118t-216 -46q-109 0 -201 38t-158.5 107.5t-104.5 169t-38 222.5zM264 512q0 -82 24.5 -150.5t69.5 -117.5t109.5 -77t144.5 -28q158 0 247 101.5t89 271.5t-89 271.5t-247 101.5q-80 0 -144.5 -28t-109.5 -77t-69.5 -117.5 t-24.5 -150.5z" />
<glyph unicode="h" horiz-adv-x="1161" d="M143 0v1434h176v-545q59 82 141.5 121t178.5 39q106 0 182 -33t124 -91.5t70.5 -141.5t22.5 -181v-602h-180v610q0 131 -59.5 203t-180.5 72q-72 0 -135 -30t-104 -91q-37 -59 -48.5 -138t-11.5 -149v-477h-176z" />
<glyph unicode="i" horiz-adv-x="524" d="M123 1321q0 59 40 99t99 40t99 -40t40 -99t-39.5 -99t-99.5 -40q-59 0 -99 40t-40 99zM174 0v1024h176v-1024h-176z" />
<glyph unicode="j" horiz-adv-x="542" d="M-41 -246q74 0 122 13.5t74.5 39t37 61.5t10.5 83v1073h176v-1073q0 -94 -21.5 -163t-70.5 -115t-130 -68.5t-198 -22.5v172zM152 1321q0 59 39.5 99t99.5 40q59 0 99 -40t40 -99t-40 -99t-99 -40t-99 40t-40 99z" />
<glyph unicode="k" horiz-adv-x="1054" d="M143 0v1434h176v-891l467 481h248l-434 -453l434 -571h-229l-330 455l-156 -148v-307h-176z" />
<glyph unicode="l" horiz-adv-x="466" d="M143 0v1434h181v-1434h-181z" />
<glyph unicode="m" horiz-adv-x="1896" d="M143 0v1024h170v-143q47 80 131 124t189 44q139 0 220 -55.5t122 -147.5q59 90 145 146.5t230 56.5q111 0 187.5 -32t124.5 -92.5t69.5 -145.5t21.5 -189v-590h-178v612q0 133 -58.5 203t-187.5 70q-66 0 -130 -30t-103 -91q-41 -63 -50.5 -142t-9.5 -145v-477h-178v612 q0 133 -60.5 203t-183.5 70q-74 0 -134 -29t-101 -92q-37 -59 -48.5 -139t-11.5 -148v-477h-176z" />
<glyph unicode="n" horiz-adv-x="1181" d="M143 0v1024h170v-135q61 86 147.5 123t186.5 37t175 -33t122 -91.5t70.5 -141.5t23.5 -181v-602h-180v610q0 133 -60.5 204t-176.5 71q-72 0 -136.5 -29t-105.5 -92q-37 -59 -48.5 -138t-11.5 -149v-477h-176z" />
<glyph unicode="o" horiz-adv-x="1196" d="M61 512q0 111 42 209t115 171t171 115t209 42t209 -42t171 -115t115 -171t42 -209t-42 -209t-115 -171t-171 -115t-209 -42t-209 42t-171 115t-115 171t-42 209zM244 512q0 -78 26.5 -144.5t73.5 -115.5t111.5 -78t142.5 -29q76 0 141.5 29t112.5 78t73.5 115.5 t26.5 144.5q0 76 -26.5 143.5t-73.5 116.5t-112.5 78t-141.5 29q-78 0 -142.5 -29t-111.5 -78t-73.5 -116.5t-26.5 -143.5z" />
<glyph unicode="p" horiz-adv-x="1234" d="M143 -410v1434h176v-139q55 68 142.5 116t214.5 48q106 0 197.5 -38t158 -107.5t104.5 -169t38 -222.5t-38 -222.5t-103.5 -169t-157 -107.5t-195.5 -38q-125 0 -214 48.5t-147 123.5v-557h-176zM307 512q0 -170 89 -271.5t247 -101.5q80 0 144.5 28t109.5 77t69.5 117.5 t24.5 150.5t-24.5 150.5t-69.5 117.5t-109.5 77t-144.5 28q-158 0 -247 -101.5t-89 -271.5z" />
<glyph unicode="q" horiz-adv-x="1234" d="M61 512q0 123 38 222.5t104.5 169t159 107.5t200.5 38q123 0 212 -46.5t140 -117.5v139h177v-1434h-177v557q-45 -70 -135 -121t-223 -51q-106 0 -196.5 38t-157 107.5t-104.5 169t-38 222.5zM244 512q0 -82 24.5 -150.5t69.5 -117.5t109.5 -77t144.5 -28 q158 0 247 101.5t89 271.5t-89 271.5t-247 101.5q-80 0 -144.5 -28t-109.5 -77t-69.5 -117.5t-24.5 -150.5z" />
<glyph unicode="r" horiz-adv-x="765" d="M143 0v1024h170v-154q47 86 124 133.5t186 47.5q20 0 38.5 -2t32.5 -5q16 -2 31 -4l-2 -184q-12 2 -29 4q-14 2 -32.5 4t-40.5 2q-72 0 -133.5 -22.5t-102.5 -81.5q-39 -55 -52.5 -128t-13.5 -157v-477h-176z" />
<glyph unicode="s" horiz-adv-x="956" d="M72 215l145 92q20 -47 50 -79.5t65 -52t73.5 -28t79.5 -8.5q94 0 159 39t65 107q0 37 -20.5 61.5t-53.5 40.5t-76 26.5t-86 20.5q-63 14 -131 33.5t-124 52.5t-92 85t-36 130q0 66 27.5 123t80 99t125 67t164.5 25q133 0 235.5 -54.5t162.5 -167.5l-146 -92 q-35 70 -101.5 110t-158.5 40q-100 0 -156.5 -43t-56.5 -103q0 -33 17.5 -54t49.5 -36.5t75 -27t94 -23.5q82 -18 151.5 -42t120.5 -58.5t80 -83.5t29 -121q0 -74 -31 -132.5t-84 -100.5t-126 -63.5t-159 -21.5q-133 0 -243.5 56.5t-167.5 183.5z" />
<glyph unicode="t" horiz-adv-x="772" d="M31 870v154h202v291h177v-291h280v-154h-280v-594q0 -59 25.5 -91.5t90.5 -32.5q49 0 91 4t83 8v-154q-45 -10 -90 -15t-94 -5q-141 0 -212 66.5t-71 230.5v583h-202z" />
<glyph unicode="u" horiz-adv-x="1167" d="M143 418v606h181v-606q0 -61 10 -112.5t35.5 -88.5t68.5 -57.5t111 -20.5q78 0 140.5 31t98.5 90q37 59 48.5 138t11.5 149v477h176v-1024h-170v147q-59 -86 -139 -129t-197 -43q-104 0 -176 34t-116 92.5t-63.5 139.5t-19.5 177z" />
<glyph unicode="v" horiz-adv-x="1081" d="M20 1024h193l328 -793l327 793h193l-451 -1024h-139z" />
<glyph unicode="w" horiz-adv-x="1773" d="M20 1024h191l297 -760l315 760h125l316 -760l299 760h190l-422 -1024h-135l-309 735l-312 -735h-135z" />
<glyph unicode="x" horiz-adv-x="1064" d="M20 0l406 512l-406 512h218l294 -381l295 381h217l-405 -512l405 -512h-217l-295 381l-294 -381h-218z" />
<glyph unicode="y" horiz-adv-x="1075" d="M20 1024h213l326 -680l320 680h186l-662 -1434h-190l252 549z" />
<glyph unicode="z" horiz-adv-x="929" d="M61 0v158l570 702h-553v164h770v-158l-569 -702h589v-164h-807z" />
<glyph unicode="{" horiz-adv-x="774" d="M123 569v152q102 6 161.5 55t59.5 135v328q0 172 91 246t243 74h55v-144h-65q-70 0 -120 -40t-50 -126v-342q0 -92 -36 -154.5t-128 -97.5v-4q92 -35 128 -95t36 -153v-368q0 -86 50 -126t120 -40h65v-143h-55q-152 0 -243 73.5t-91 245.5v338q0 86 -59.5 133t-161.5 53z " />
<glyph unicode="|" horiz-adv-x="563" d="M205 -274v1833h153v-1833h-153z" />
<glyph unicode="}" horiz-adv-x="774" d="M41 -131h65q70 0 120 40t50 126v368q0 92 36 152.5t128 95.5v4q-92 35 -128 97.5t-36 154.5v342q0 86 -50 126t-120 40h-65v144h55q76 0 137.5 -17.5t105.5 -56.5t67.5 -99.5t23.5 -146.5v-328q0 -86 59.5 -135t161.5 -55v-152q-102 -6 -161.5 -53t-59.5 -133v-338 q0 -86 -23.5 -146.5t-67.5 -99.5t-105.5 -56t-137.5 -17h-55v143z" />
<glyph unicode="~" horiz-adv-x="1398" d="M154 629q66 66 147.5 116t173.5 50q70 0 128.5 -22.5t111.5 -48.5t103 -48.5t106 -22.5q59 0 116.5 35t108.5 84l96 -127q-33 -33 -69.5 -63.5t-77.5 -55t-85 -40t-89 -15.5q-70 0 -128.5 22.5t-111.5 48t-103.5 48t-105.5 22.5q-59 0 -116.5 -34.5t-108.5 -83.5z" />
<glyph unicode="&#xa1;" horiz-adv-x="647" d="M184 911q0 61 39 100.5t101 39.5q61 0 100 -39.5t39 -100.5t-39 -100t-100 -39t-100.5 39t-39.5 100zM231 -410v1047h185v-1047h-185z" />
<glyph unicode="&#xa2;" horiz-adv-x="1062" d="M102 512q0 100 32 189.5t89.5 159t136 116.5t175.5 63v187h133v-180q195 -12 325 -150l-110 -139q-41 49 -95.5 79.5t-119.5 39.5v-730q72 8 127 41t98 84l108 -141q-59 -63 -143 -105t-190 -49v-176h-133v183q-94 16 -174 62t-137.5 115.5t-89.5 159t-32 191.5zM285 512 q0 -139 70.5 -232.5t179.5 -121.5v708q-111 -31 -180.5 -124t-69.5 -230z" />
<glyph unicode="&#xa3;" horiz-adv-x="1275" d="M123 655v154h201v242q0 86 23.5 160.5t72.5 130t122.5 87t174.5 31.5q72 0 130 -20.5t103 -52t78 -72.5t51 -84l-155 -111q-25 72 -80.5 119t-126.5 47q-98 0 -153.5 -59.5t-55.5 -175.5v-242h399v-154h-399v-276q0 -92 -33 -137t-63 -62v-6h399q109 0 186.5 51 t122.5 125l94 -164q-29 -39 -66.5 -72.5t-85.5 -59t-110.5 -40t-140.5 -14.5h-668v168q86 10 133.5 62.5t47.5 148.5v276h-201z" />
<glyph unicode="&#xa4;" horiz-adv-x="1114" d="M41 293l170 170q-41 53 -62.5 117.5t-21.5 136.5t21.5 137.5t62.5 118.5l-156 153l97 91l151 -154q53 41 117.5 62.5t136.5 21.5t136.5 -21.5t117.5 -62.5l152 154l94 -91l-156 -153q41 -53 63.5 -119t22.5 -137q0 -72 -21.5 -135.5t-62.5 -116.5l170 -172l-90 -90 l-172 168q-53 -39 -117.5 -60.5t-136.5 -21.5t-136.5 21.5t-117.5 60.5l-172 -168zM301 717q0 -53 20.5 -99.5t55.5 -80t81 -54t99 -20.5q51 0 98 20.5t82 54t55.5 80t20.5 99.5t-20.5 99t-55.5 81t-82 55.5t-98 20.5q-53 0 -99 -20.5t-81 -55.5t-55.5 -81t-20.5 -99z" />
<glyph unicode="&#xa5;" horiz-adv-x="1376" d="M41 1434h225l422 -646l422 646h225l-458 -686h288v-144h-385v-141h385v-144h-385v-319h-184v319h-385v144h385v141h-385v144h289z" />
<glyph unicode="&#xa6;" horiz-adv-x="563" d="M205 -274v876h153v-876h-153zM205 784v775h153v-775h-153z" />
<glyph unicode="&#xa7;" horiz-adv-x="1056" d="M102 571q0 100 52.5 179t140.5 124q-51 41 -82 97.5t-31 142.5q0 74 25.5 136.5t73 108.5t116 72.5t152.5 26.5q123 0 217 -54t149 -167l-145 -92q-31 70 -88 109.5t-141 39.5q-86 0 -134.5 -53t-48.5 -123q0 -63 44 -102t111 -70t143.5 -59.5t143 -71.5t110.5 -108.5 t44 -167.5q0 -100 -52 -180t-140 -123q49 -41 80.5 -98.5t31.5 -141.5q0 -74 -25.5 -136.5t-73.5 -108.5t-115.5 -72.5t-151.5 -26.5q-123 0 -217 54t-150 167l146 92q31 -70 88 -109.5t141 -39.5q86 0 134 53t48 123q0 63 -44 102t-110.5 70t-143 59.5t-143.5 71.5 t-111 108.5t-44 167.5zM276 580q0 -53 29 -90t76 -65t106.5 -50.5t118.5 -48.5q72 29 123 80t51 124q0 53 -28.5 90t-75.5 65t-106.5 50.5t-118.5 48.5q-72 -29 -123.5 -80.5t-51.5 -123.5z" />
<glyph unicode="&#xa8;" horiz-adv-x="794" d="M20 1321q0 59 40 99t100 40q59 0 99 -40t40 -99t-40 -99t-99 -40t-99.5 40t-40.5 99zM496 1321q0 59 39.5 99t99.5 40q59 0 99 -40t40 -99t-40 -99t-99 -40t-99 40t-40 99z" />
<glyph unicode="&#xa9;" horiz-adv-x="1806" d="M164 717q0 160 56 295t154.5 235.5t233.5 156.5t295 56t295 -56t233.5 -156.5t154.5 -235.5t56 -295t-56 -295t-154.5 -235.5t-233.5 -157t-295 -56.5t-295 56.5t-233.5 157t-154.5 235.5t-56 295zM307 717q0 -129 45 -238.5t124 -190.5t188.5 -126t238.5 -45t238.5 45 t188.5 126t124 190.5t45 238.5t-45 238.5t-124 190.5t-188.5 126t-238.5 45t-238.5 -45t-188.5 -126t-124 -190.5t-45 -238.5zM520 737q0 86 31 160t85 128t129 85t161 31t157.5 -33t135.5 -96l-60 -129q-49 59 -109.5 88.5t-123.5 29.5q-117 0 -192 -71.5t-75 -192.5 q0 -59 19.5 -108t55.5 -85t84 -55.5t108 -19.5q29 0 68.5 11.5t82.5 33.5l23 -145q-86 -37 -174 -37q-86 0 -161 30.5t-129 85t-85 129t-31 160.5z" />
<glyph unicode="&#xaa;" horiz-adv-x="946" d="M111 911q0 59 20.5 103.5t56 74t80.5 47t94 21.5l238 21q49 4 49 45v24q0 45 -45 74t-123 29q-80 0 -132 -31t-70 -105l-144 76q29 92 108 147.5t228 55.5q174 0 256 -80t82 -221v-516h-160v98q-39 -49 -100.5 -82t-149.5 -33q-135 0 -211.5 72t-76.5 180zM274 911 q0 -45 37 -72.5t111 -27.5q47 0 88 16.5t71.5 43t49 60.5t18.5 70v41l-258 -28q-61 -8 -89 -37t-28 -66z" />
<glyph unicode="&#xab;" horiz-adv-x="1153" d="M82 512l379 430l117 -106l-293 -324l293 -326l-117 -104zM494 512l378 430l117 -106l-291 -324l291 -326l-117 -104z" />
<glyph unicode="&#xac;" d="M248 623v184h938v-520h-187v336h-751z" />
<glyph unicode="&#xad;" horiz-adv-x="1081" d="M164 541v184h754v-184h-754z" />
<glyph unicode="&#xae;" horiz-adv-x="1806" d="M164 717q0 160 56 295t154.5 235.5t233.5 156.5t295 56t295 -56t233.5 -156.5t154.5 -235.5t56 -295t-56 -295t-154.5 -235.5t-233.5 -157t-295 -56.5t-295 56.5t-233.5 157t-154.5 235.5t-56 295zM307 717q0 -129 45 -238.5t124 -190.5t188.5 -126t238.5 -45t238.5 45 t188.5 126t124 190.5t45 238.5t-45 238.5t-124 190.5t-188.5 126t-238.5 45t-238.5 -45t-188.5 -126t-124 -190.5t-45 -238.5zM629 344v776h303q57 0 106 -20.5t85 -55t56.5 -85t20.5 -107.5q0 -78 -32.5 -136.5t-92.5 -90.5l228 -281h-162l-197 244h-188v-244h-127z M756 709h86l-33 43l98 79l86 -108q37 16 58.5 51t21.5 78q0 61 -40 102t-101 41h-176v-286z" />
<glyph unicode="&#xaf;" horiz-adv-x="655" d="M20 1253v154h615v-154h-615z" />
<glyph unicode="&#xb0;" d="M451 1208q0 57 20.5 105.5t56 84.5t83.5 56.5t106 20.5q57 0 105 -20.5t84 -56.5t56.5 -84.5t20.5 -105.5t-20.5 -105t-56.5 -84t-84 -56.5t-105 -20.5t-105.5 20.5t-84 56.5t-56 84t-20.5 105zM569 1208q0 -68 40 -112.5t108 -44.5t107.5 44.5t39.5 112.5t-40 113 t-107 45q-68 0 -108 -45t-40 -113z" />
<glyph unicode="&#xb1;" d="M231 236v180h969v-180h-969zM231 784v181h398v284h176v-284h395v-181h-395v-284h-176v284h-398z" />
<glyph unicode="&#xb2;" horiz-adv-x="851" d="M119 1436q41 74 115.5 128t183.5 54q121 0 198.5 -71.5t77.5 -188.5q0 -66 -24.5 -116t-65.5 -93l-233 -246h313v-145h-543v121l359 372q20 23 32.5 46.5t12.5 56.5q0 57 -37 88t-90 31q-59 0 -107.5 -38t-77.5 -98z" />
<glyph unicode="&#xb3;" horiz-adv-x="800" d="M119 946l131 98q20 -66 57 -103.5t94 -37.5q49 0 83 29t34 78q0 51 -34.5 79.5t-92.5 28.5h-49v146h49q55 0 91 25.5t36 76.5q0 49 -32.5 78t-82.5 29q-49 0 -93 -32t-66 -100l-119 99q29 72 99.5 125t174.5 53q57 0 107.5 -18.5t85.5 -51t55.5 -78t20.5 -96.5 q0 -63 -27 -108t-57 -74q84 -68 84 -186q0 -115 -73 -181.5t-192 -66.5q-104 0 -176.5 51t-107.5 137z" />
<glyph unicode="&#xb4;" horiz-adv-x="557" d="M20 1313l435 280l82 -131l-437 -272z" />
<glyph unicode="&#xb5;" d="M276 -410v1434h181v-606q0 -61 10 -112.5t35.5 -88.5t68.5 -57.5t111 -20.5q78 0 140.5 31t99.5 90t48 138t11 149v477h176v-1024h-170v147q-59 -86 -139 -129t-197 -43q-121 0 -200 45v-430h-175z" />
<glyph unicode="&#xb6;" horiz-adv-x="1200" d="M82 1053q0 80 28.5 149.5t80 120.5t121 81t151.5 30h532v-1708h-159v1554h-213v-1554h-160v946q-82 0 -151.5 29.5t-121 81t-80 121t-28.5 149.5z" />
<glyph unicode="&#xb7;" horiz-adv-x="700" d="M205 647q0 68 46 115t114 47t114.5 -47t46.5 -115t-47 -114t-114 -46q-68 0 -114 46t-46 114z" />
<glyph unicode="&#xb8;" horiz-adv-x="323" d="M20 -203q23 -6 42.5 -10t35.5 -4q29 0 47.5 15.5t18.5 54.5q0 37 -24.5 88t-90.5 120h139q66 -70 90.5 -123t24.5 -104q0 -88 -53 -132t-125 -44q-23 0 -50.5 5t-54.5 15v119z" />
<glyph unicode="&#xb9;" horiz-adv-x="671" d="M82 1331l299 287h133v-860h-147v641l-181 -172z" />
<glyph unicode="&#xba;" horiz-adv-x="1015" d="M80 1075q0 86 33.5 163t91 133t135.5 89t168 33q88 0 167 -33t136 -89t91 -133t34 -163t-34 -162.5t-91 -133t-136 -89.5t-167 -33q-90 0 -168 33t-135.5 89.5t-91 133t-33.5 162.5zM254 1075q0 -53 18.5 -100t52 -82t81 -55.5t102.5 -20.5t102 20.5t81 55.5t53.5 82 t19.5 100t-19.5 100.5t-53.5 82t-81 55t-102 20.5t-102.5 -20.5t-81 -55t-52 -82t-18.5 -100.5z" />
<glyph unicode="&#xbb;" horiz-adv-x="1155" d="M164 186l293 326l-293 324l117 106l378 -430l-378 -430zM578 186l292 326l-292 324l116 106l379 -430l-379 -430z" />
<glyph unicode="&#xbc;" horiz-adv-x="1843" d="M115 1147l299 287h133v-861h-148v641l-180 -172zM295 84l1071 1350l102 -82l-1071 -1352zM934 166v125l498 569h120v-549h177v-145h-177v-166h-147v166h-471zM1147 311h258v291z" />
<glyph unicode="&#xbd;" horiz-adv-x="1843" d="M143 1147l299 287h133v-861h-147v641l-180 -172zM324 84l1071 1350l102 -82l-1071 -1352zM1122 678q41 74 116 128t183 54q121 0 199 -71.5t78 -188.5q0 -66 -24.5 -116t-65.5 -93l-234 -246h314v-145h-543v121l358 373q20 23 32.5 46t12.5 58q0 55 -37.5 86t-87.5 31 q-63 0 -110 -38t-76 -97z" />
<glyph unicode="&#xbe;" horiz-adv-x="1843" d="M94 762l131 98q20 -66 57 -103.5t95 -37.5q49 0 83 28.5t34 77.5q0 51 -35 80t-92 29h-50v145h50q55 0 91 26t36 77q0 49 -33 77.5t-80 28.5q-51 0 -95 -31.5t-67 -99.5l-119 98q29 72 99.5 125.5t175.5 53.5q57 0 107 -18.5t85 -51.5t55.5 -78t20.5 -96 q0 -63 -26.5 -108.5t-57.5 -73.5q84 -68 84 -187q0 -115 -72.5 -181.5t-189.5 -66.5q-106 0 -179 51.5t-108 137.5zM336 84l1071 1350l102 -82l-1071 -1352zM954 166v125l498 569h121v-549h176v-145h-176v-166h-148v166h-471zM1167 311h258v291z" />
<glyph unicode="&#xbf;" horiz-adv-x="1005" d="M82 -27q0 102 52 191.5t147 167.5q68 57 96.5 108.5t28.5 112.5v84h184v-84q0 -113 -53.5 -203t-147.5 -166q-63 -51 -93 -101t-30 -110q0 -43 14.5 -81.5t43 -68.5t72.5 -47.5t104 -17.5q121 0 192.5 80t71.5 211h180q0 -100 -30.5 -186t-89 -150.5t-140.5 -101.5 t-184 -37q-94 0 -171 27.5t-132.5 80t-85 126t-29.5 165.5zM358 911q0 61 39 100.5t101 39.5q61 0 100 -39.5t39 -100.5t-39 -100t-100 -39t-100.5 39t-39.5 100z" />
<glyph unicode="&#xc0;" horiz-adv-x="1568" d="M20 0l668 1434h193l667 -1434h-202l-115 252h-893l-115 -252h-203zM426 436h717l-359 774zM532 1831l82 131l435 -281l-80 -122z" />
<glyph unicode="&#xc1;" horiz-adv-x="1568" d="M20 0l668 1434h193l667 -1434h-202l-115 252h-893l-115 -252h-203zM426 436h717l-359 774zM539 1681l434 281l82 -131l-437 -272z" />
<glyph unicode="&#xc2;" horiz-adv-x="1568" d="M20 0l668 1434h193l667 -1434h-202l-115 252h-893l-115 -252h-203zM424 1653l360 309l361 -309l-96 -107l-265 230l-264 -230zM426 436h717l-359 774z" />
<glyph unicode="&#xc3;" horiz-adv-x="1568" d="M20 0l668 1434h193l667 -1434h-202l-115 252h-893l-115 -252h-203zM426 436h717l-359 774zM453 1690q20 25 45.5 50t53.5 44.5t57.5 33t60.5 13.5q37 0 70.5 -15.5t63.5 -33t55 -32.5t48 -15q29 0 57.5 24.5t57.5 55.5l98 -95q-20 -25 -45.5 -50t-53.5 -44.5t-57.5 -33 t-60.5 -13.5q-37 0 -70.5 15.5t-63.5 33t-55.5 32.5t-47.5 15q-29 0 -57.5 -24.5t-57.5 -55.5z" />
<glyph unicode="&#xc4;" horiz-adv-x="1568" d="M20 0l668 1434h193l667 -1434h-202l-115 252h-893l-115 -252h-203zM281 1511q0 59 39.5 99.5t99.5 40.5q59 0 99 -40t40 -100q0 -59 -40 -99t-99 -40t-99 40t-40 99zM426 436h717l-359 774zM1010 1511q0 59 40 99.5t99 40.5t99 -40t40 -100q0 -59 -40 -99t-99 -40t-99 40 t-40 99z" />
<glyph unicode="&#xc5;" horiz-adv-x="1568" d="M20 0l668 1434h193l667 -1434h-202l-115 252h-893l-115 -252h-203zM426 436h717l-359 774zM559 1767q0 98 63.5 163t161.5 65t162 -64.5t64 -163.5q0 -98 -64 -161.5t-162 -63.5t-161.5 63.5t-63.5 161.5zM676 1767q0 -49 29.5 -80.5t78.5 -31.5t79 31.5t30 80.5 t-29.5 81t-79.5 32q-49 0 -78.5 -31.5t-29.5 -81.5z" />
<glyph unicode="&#xc6;" horiz-adv-x="2033" d="M10 0l1039 1434h872v-185h-696v-440h696v-184h-696v-441h696v-184h-883v252h-612l-178 -252h-238zM561 436h479v664z" />
<glyph unicode="&#xc7;" horiz-adv-x="1349" d="M102 717q0 154 55.5 285t150.5 227t225.5 150.5t281.5 54.5q154 0 279 -55.5t225 -149.5l-84 -174q-78 84 -183.5 139t-244.5 55q-111 0 -206 -39t-164.5 -108.5t-109.5 -167.5t-40 -217t40 -217.5t109.5 -168t164.5 -108.5t206 -39q66 0 128 14.5t136 49.5l33 -189 q-57 -20 -105.5 -33.5t-95.5 -19.5q39 -47 53.5 -89t14.5 -83q0 -88 -53.5 -132t-124.5 -44q-23 0 -50.5 5t-54.5 15v119q23 -6 42.5 -10t35.5 -4q29 0 47 15.5t18 54.5q0 29 -14 64.5t-49 82.5q-139 8 -260 65.5t-211 152.5t-142.5 223t-52.5 276z" />
<glyph unicode="&#xc8;" horiz-adv-x="1157" d="M164 0v1434h880v-185h-696v-440h696v-184h-696v-441h696v-184h-880zM377 1831l82 131l434 -281l-80 -122z" />
<glyph unicode="&#xc9;" horiz-adv-x="1157" d="M164 0v1434h880v-185h-696v-440h696v-184h-696v-441h696v-184h-880zM383 1681l434 281l82 -131l-436 -272z" />
<glyph unicode="&#xca;" horiz-adv-x="1157" d="M164 0v1434h880v-185h-696v-440h696v-184h-696v-441h696v-184h-880zM268 1653l361 309l360 -309l-96 -107l-264 230l-264 -230z" />
<glyph unicode="&#xcb;" horiz-adv-x="1157" d="M164 0v1434h880v-185h-696v-440h696v-184h-696v-441h696v-184h-880zM252 1690q0 59 40 99t99 40t99 -40t40 -99t-39.5 -99.5t-99.5 -40.5q-59 0 -99 40.5t-40 99.5zM727 1690q0 59 40 99t99 40t99.5 -40t40.5 -99t-40 -99.5t-100 -40.5q-59 0 -99 40.5t-40 99.5z" />
<glyph unicode="&#xcc;" horiz-adv-x="512" d="M4 1831l82 131l434 -281l-80 -122zM164 0v1434h184v-1434h-184z" />
<glyph unicode="&#xcd;" horiz-adv-x="512" d="M10 1681l434 281l82 -131l-436 -272zM164 0v1434h184v-1434h-184z" />
<glyph unicode="&#xce;" horiz-adv-x="512" d="M-104 1653l360 309l360 -309l-96 -107l-264 230l-264 -230zM164 0v1434h184v-1434h-184z" />
<glyph unicode="&#xcf;" horiz-adv-x="552" d="M-164 1511q0 59 40 99.5t99 40.5t99.5 -40t40.5 -100q0 -59 -40 -99t-100 -40q-59 0 -99 40t-40 99zM184 0v1434h185v-1434h-185zM438 1511q0 59 40 99.5t100 40.5q59 0 99 -40t40 -100q0 -59 -40 -99t-99 -40t-99.5 40t-40.5 99z" />
<glyph unicode="&#xd0;" horiz-adv-x="1472" d="M0 635v184h164v615h491q152 0 283 -54.5t227.5 -149.5t150.5 -226.5t54 -286.5q0 -156 -54 -287t-150.5 -226t-227.5 -149.5t-283 -54.5h-491v635h-164zM348 184h307q115 0 212.5 39t168 109.5t110.5 169t40 215.5t-40 214t-110.5 167.5t-168 110.5t-212.5 40h-307v-430 h348v-184h-348v-451z" />
<glyph unicode="&#xd1;" horiz-adv-x="1611" d="M164 0v1434h170l930 -1129v1129h184v-1434h-176l-924 1120v-1120h-184zM526 1690q20 25 46 50t53.5 44.5t57.5 33t60 13.5q37 0 71 -15.5t63.5 -33t55 -32.5t48.5 -15q29 0 57.5 24.5t57.5 55.5l98 -95q-20 -25 -46 -50t-53.5 -44.5t-57 -33t-60.5 -13.5q-37 0 -71 15.5 t-63.5 33t-55 32.5t-48.5 15q-29 0 -57.5 -24.5t-56.5 -55.5z" />
<glyph unicode="&#xd2;" horiz-adv-x="1634" d="M102 717q0 154 54.5 285t150.5 227t226 150.5t284 54.5t285 -54.5t226 -150.5t149.5 -227.5t54.5 -284.5q0 -154 -54.5 -285t-149.5 -227t-226 -150.5t-285 -54.5t-284 54.5t-226 150.5t-150.5 227t-54.5 285zM287 717q0 -115 40 -212t110.5 -169t167.5 -112t212 -40 t212 40t168 112t111 169t40 212t-40 212t-111 168.5t-168 111.5t-212 40t-212 -40t-167.5 -111.5t-110.5 -169t-40 -211.5zM565 1831l82 131l434 -281l-80 -122z" />
<glyph unicode="&#xd3;" horiz-adv-x="1634" d="M102 717q0 154 54.5 285t150.5 227t226 150.5t284 54.5t285 -54.5t226 -150.5t149.5 -227.5t54.5 -284.5q0 -154 -54.5 -285t-149.5 -227t-226 -150.5t-285 -54.5t-284 54.5t-226 150.5t-150.5 227t-54.5 285zM287 717q0 -115 40 -212t110.5 -169t167.5 -112t212 -40 t212 40t168 112t111 169t40 212t-40 212t-111 168.5t-168 111.5t-212 40t-212 -40t-167.5 -111.5t-110.5 -169t-40 -211.5zM571 1681l435 281l81 -131l-436 -272z" />
<glyph unicode="&#xd4;" horiz-adv-x="1634" d="M102 717q0 154 54.5 285t150.5 227t226 150.5t284 54.5t285 -54.5t226 -150.5t149.5 -227.5t54.5 -284.5q0 -154 -54.5 -285t-149.5 -227t-226 -150.5t-285 -54.5t-284 54.5t-226 150.5t-150.5 227t-54.5 285zM287 717q0 -115 40 -212t110.5 -169t167.5 -112t212 -40 t212 40t168 112t111 169t40 212t-40 212t-111 168.5t-168 111.5t-212 40t-212 -40t-167.5 -111.5t-110.5 -169t-40 -211.5zM457 1653l360 309l361 -309l-97 -107l-264 230l-264 -230z" />
<glyph unicode="&#xd5;" horiz-adv-x="1634" d="M102 717q0 154 54.5 285t150.5 227t226 150.5t284 54.5t285 -54.5t226 -150.5t149.5 -227.5t54.5 -284.5q0 -154 -54.5 -285t-149.5 -227t-226 -150.5t-285 -54.5t-284 54.5t-226 150.5t-150.5 227t-54.5 285zM287 717q0 -115 40 -212t110.5 -169t167.5 -112t212 -40 t212 40t168 112t111 169t40 212t-40 212t-111 168.5t-168 111.5t-212 40t-212 -40t-167.5 -111.5t-110.5 -169t-40 -211.5zM485 1690q20 25 46 50t53.5 44.5t57.5 33t60 13.5q37 0 71 -15.5t63.5 -33t55 -32.5t48.5 -15q29 0 57.5 24.5t57.5 55.5l98 -95q-20 -25 -46 -50 t-53.5 -44.5t-57 -33t-60.5 -13.5q-37 0 -71 15.5t-63.5 33t-55 32.5t-48.5 15q-29 0 -57.5 -24.5t-56.5 -55.5z" />
<glyph unicode="&#xd6;" horiz-adv-x="1671" d="M102 1511q0 59 40 99.5t100 40.5q59 0 99 -40t40 -100q0 -59 -40 -99t-99 -40t-99.5 40t-40.5 99zM121 717q0 154 54 285t150.5 227t226.5 150.5t284 54.5t284.5 -54.5t226 -150.5t149.5 -227.5t54 -284.5q0 -154 -54 -285t-149.5 -227t-226.5 -150.5t-284 -54.5 q-154 0 -284 54.5t-226.5 150.5t-150.5 227t-54 285zM305 717q0 -115 40 -212t110.5 -169t168 -112t212.5 -40t212 40t167.5 112t110.5 169t40 212t-40 212t-110.5 168.5t-168 111.5t-211.5 40q-115 0 -212.5 -40t-168 -111.5t-110.5 -169t-40 -211.5zM1290 1511 q0 59 40 99.5t100 40.5q59 0 99 -40t40 -100q0 -59 -40 -99t-99 -40t-99.5 40t-40.5 99z" />
<glyph unicode="&#xd7;" d="M231 289l361 360l-361 363l123 123l361 -361l362 363l123 -125l-360 -363l360 -360l-123 -125l-362 362l-361 -360z" />
<glyph unicode="&#xd8;" horiz-adv-x="1634" d="M102 717q0 154 54.5 285t150.5 227t226.5 150.5t283.5 54.5q117 0 221.5 -32t190.5 -91l131 155l108 -94l-131 -153q92 -96 143.5 -224.5t51.5 -277.5q0 -154 -54.5 -285t-149.5 -227t-226 -150.5t-285 -54.5q-117 0 -220 30.5t-189 90.5l-132 -154l-110 92l131 154 q-92 96 -143.5 224t-51.5 280zM287 717q0 -109 34.5 -200t96.5 -161l690 813q-127 80 -291 80q-115 0 -212 -40t-167.5 -111.5t-110.5 -168.5t-40 -212zM528 264q127 -80 289 -80q115 0 212 40t168 112t111 169t40 212q0 106 -35 197.5t-96 160.5z" />
<glyph unicode="&#xd9;" horiz-adv-x="1597" d="M143 655v779h185v-779q0 -100 35.5 -186t99 -149.5t149.5 -99.5t187 -36q100 0 186 36t149.5 99.5t99.5 149.5t36 186v779h184v-779q0 -139 -50 -259t-138 -208t-208 -138t-259 -50t-259 50t-208 138t-138.5 208t-50.5 259zM547 1831l82 131l434 -281l-80 -122z" />
<glyph unicode="&#xda;" horiz-adv-x="1597" d="M143 655v779h185v-779q0 -100 35.5 -186t99 -149.5t149.5 -99.5t187 -36q100 0 186 36t149.5 99.5t99.5 149.5t36 186v779h184v-779q0 -139 -50 -259t-138 -208t-208 -138t-259 -50t-259 50t-208 138t-138.5 208t-50.5 259zM553 1681l434 281l82 -131l-436 -272z" />
<glyph unicode="&#xdb;" horiz-adv-x="1597" d="M143 655v779h185v-779q0 -100 35.5 -186t99 -149.5t149.5 -99.5t187 -36q100 0 186 36t149.5 99.5t99.5 149.5t36 186v779h184v-779q0 -139 -50 -259t-138 -208t-208 -138t-259 -50t-259 50t-208 138t-138.5 208t-50.5 259zM438 1653l361 309l360 -309l-96 -107l-264 230 l-264 -230z" />
<glyph unicode="&#xdc;" horiz-adv-x="1597" d="M143 655v779h185v-779q0 -100 35.5 -186t99 -149.5t149.5 -99.5t187 -36q100 0 186 36t149.5 99.5t99.5 149.5t36 186v779h184v-779q0 -139 -50 -259t-138 -208t-208 -138t-259 -50t-259 50t-208 138t-138.5 208t-50.5 259zM430 1511q0 59 40 99.5t99 40.5t99.5 -40 t40.5 -100q0 -59 -40 -99t-100 -40q-59 0 -99 40t-40 99zM889 1511q0 59 40 99.5t99 40.5t99 -40t40 -100q0 -59 -40 -99t-99 -40t-99 40t-40 99z" />
<glyph unicode="&#xdd;" horiz-adv-x="1355" d="M10 1434h226l442 -639l442 639h226l-576 -830v-604h-184v604zM432 1681l434 281l82 -131l-436 -272z" />
<glyph unicode="&#xde;" horiz-adv-x="1216" d="M164 0v1434h182v-254h275q102 0 189 -35t149.5 -96.5t98.5 -146.5t36 -185t-36 -185.5t-98.5 -146.5t-149.5 -96t-189 -35h-273v-254h-184zM348 438h273q57 0 109 20.5t91 57.5t61.5 88t22.5 113q0 61 -22.5 112.5t-61.5 88t-91 57t-109 20.5h-273v-557z" />
<glyph unicode="&#xdf;" horiz-adv-x="1173" d="M143 -154v1141q0 104 26 190.5t80 150t136 98t197 34.5q106 0 185 -28.5t131 -78.5t76.5 -116t24.5 -139q0 -104 -50 -183t-140 -114q61 -12 116.5 -42t97.5 -78t65.5 -113.5t23.5 -149.5q0 -104 -35 -185t-98.5 -135.5t-152.5 -83t-197 -28.5q-61 0 -129 6v162 q16 -2 35 -2q16 -2 34.5 -2h40.5q70 0 129.5 16t103.5 49t68.5 83t24.5 120q0 74 -29.5 127t-80 89t-119 53.5t-148.5 19.5v155q129 10 196.5 67.5t67.5 168.5q0 90 -66.5 144t-183.5 54t-185.5 -77.5t-68.5 -231.5v-1141h-176z" />
<glyph unicode="&#xe0;" horiz-adv-x="1085" d="M92 293q0 74 24.5 130t67.5 96t99.5 63.5t119.5 29.5l297 29q35 4 55.5 24.5t20.5 51.5v22q0 66 -59.5 109t-163.5 43q-111 0 -179.5 -45t-84.5 -141l-160 86q29 113 126 185.5t282 72.5q215 0 315 -101.5t100 -281.5v-666h-176v145q-49 -76 -136 -120.5t-194 -44.5 q-86 0 -152.5 24.5t-110.5 66.5t-67.5 99t-23.5 123zM272 293q0 -66 48.5 -107t152.5 -41q63 0 118.5 24t96.5 62.5t64.5 86t23.5 96.5v75l-342 -40q-90 -10 -126 -54.5t-36 -101.5zM285 1462l82 131l434 -280l-80 -123z" />
<glyph unicode="&#xe1;" horiz-adv-x="1085" d="M92 293q0 74 24.5 130t67.5 96t99.5 63.5t119.5 29.5l297 29q35 4 55.5 24.5t20.5 51.5v22q0 66 -59.5 109t-163.5 43q-111 0 -179.5 -45t-84.5 -141l-160 86q29 113 126 185.5t282 72.5q215 0 315 -101.5t100 -281.5v-666h-176v145q-49 -76 -136 -120.5t-194 -44.5 q-86 0 -152.5 24.5t-110.5 66.5t-67.5 99t-23.5 123zM272 293q0 -66 48.5 -107t152.5 -41q63 0 118.5 24t96.5 62.5t64.5 86t23.5 96.5v75l-342 -40q-90 -10 -126 -54.5t-36 -101.5zM285 1313l434 280l82 -131l-436 -272z" />
<glyph unicode="&#xe2;" horiz-adv-x="1085" d="M92 293q0 74 24.5 130t67.5 96t99.5 63.5t119.5 29.5l297 29q35 4 55.5 24.5t20.5 51.5v22q0 66 -59.5 109t-163.5 43q-111 0 -179.5 -45t-84.5 -141l-160 86q29 113 126 185.5t282 72.5q215 0 315 -101.5t100 -281.5v-666h-176v145q-49 -76 -136 -120.5t-194 -44.5 q-86 0 -152.5 24.5t-110.5 66.5t-67.5 99t-23.5 123zM182 1284l361 309l360 -309l-96 -106l-264 229l-264 -229zM272 293q0 -66 48.5 -107t152.5 -41q63 0 118.5 24t96.5 62.5t64.5 86t23.5 96.5v75l-342 -40q-90 -10 -126 -54.5t-36 -101.5z" />
<glyph unicode="&#xe3;" horiz-adv-x="1085" d="M92 293q0 74 24.5 130t67.5 96t99.5 63.5t119.5 29.5l297 29q35 4 55.5 24.5t20.5 51.5v22q0 66 -59.5 109t-163.5 43q-111 0 -179.5 -45t-84.5 -141l-160 86q29 113 126 185.5t282 72.5q215 0 315 -101.5t100 -281.5v-666h-176v145q-49 -76 -136 -120.5t-194 -44.5 q-86 0 -152.5 24.5t-110.5 66.5t-67.5 99t-23.5 123zM209 1321q20 25 46 50.5t53.5 45t57 32.5t60.5 13q37 0 70.5 -15t63.5 -32.5t55.5 -33t48.5 -15.5q29 0 57.5 24.5t56.5 55.5l99 -94q-20 -25 -46 -50.5t-53.5 -45t-57.5 -33t-61 -13.5q-37 0 -70.5 15.5t-63 33 t-55.5 33t-48 15.5q-29 0 -57.5 -25t-57.5 -55zM272 293q0 -66 48.5 -107t152.5 -41q63 0 118.5 24t96.5 62.5t64.5 86t23.5 96.5v75l-342 -40q-90 -10 -126 -54.5t-36 -101.5z" />
<glyph unicode="&#xe4;" horiz-adv-x="1085" d="M92 293q0 74 24.5 130t67.5 96t99.5 63.5t119.5 29.5l297 29q35 4 55.5 24.5t20.5 51.5v22q0 66 -59.5 109t-163.5 43q-111 0 -179.5 -45t-84.5 -141l-160 86q29 113 126 185.5t282 72.5q215 0 315 -101.5t100 -281.5v-666h-176v145q-49 -76 -136 -120.5t-194 -44.5 q-86 0 -152.5 24.5t-110.5 66.5t-67.5 99t-23.5 123zM166 1321q0 59 40 99t99 40t99 -40t40 -99t-39.5 -99t-99.5 -40q-59 0 -99 40t-40 99zM272 293q0 -66 48.5 -107t152.5 -41q63 0 118.5 24t96.5 62.5t64.5 86t23.5 96.5v75l-342 -40q-90 -10 -126 -54.5t-36 -101.5z M641 1321q0 59 40 99t99 40t99.5 -40t40.5 -99t-40 -99t-100 -40q-59 0 -99 40t-40 99z" />
<glyph unicode="&#xe5;" horiz-adv-x="1085" d="M92 293q0 74 24.5 130t67.5 96t99.5 63.5t119.5 29.5l297 29q35 4 55.5 24.5t20.5 51.5v22q0 66 -59.5 109t-163.5 43q-111 0 -179.5 -45t-84.5 -141l-160 86q29 113 126 185.5t282 72.5q215 0 315 -101.5t100 -281.5v-666h-176v145q-49 -76 -136 -120.5t-194 -44.5 q-86 0 -152.5 24.5t-110.5 66.5t-67.5 99t-23.5 123zM272 293q0 -66 48.5 -107t152.5 -41q63 0 118.5 24t96.5 62.5t64.5 86t23.5 96.5v75l-342 -40q-90 -10 -126 -54.5t-36 -101.5zM317 1399q0 98 63.5 162.5t162.5 64.5q98 0 161.5 -64.5t63.5 -162.5t-63.5 -161.5 t-161.5 -63.5t-162 63t-64 162zM434 1399q0 -49 30 -81t79 -32t78.5 32t29.5 81t-29.5 80.5t-78.5 31.5t-79 -31.5t-30 -80.5z" />
<glyph unicode="&#xe6;" horiz-adv-x="1771" d="M92 295q0 74 26.5 130t70.5 96t100.5 61.5t116.5 27.5l294 29q35 4 55.5 25.5t20.5 50.5v24q0 70 -58.5 111t-166.5 41q-111 0 -179.5 -46t-84.5 -143l-160 86q14 57 45 104.5t80 82.5t118.5 54.5t161.5 19.5q131 0 222.5 -44t134.5 -120q55 74 145 119t209 45 q111 0 199 -41t149.5 -114t95 -171t33.5 -211v-53h-784q2 -76 26.5 -135.5t65.5 -100.5t95.5 -62.5t119.5 -21.5q111 0 186.5 47t133.5 119l94 -143q-35 -41 -75 -75t-89 -58.5t-110.5 -39t-139.5 -14.5q-129 0 -229.5 56.5t-163.5 156.5q-27 -37 -58.5 -73.5t-76.5 -66.5 t-108.5 -49t-153.5 -19q-82 0 -148.5 23.5t-114 65.5t-73 100t-25.5 126zM272 295q0 -68 54.5 -109t156.5 -41q63 0 116.5 22.5t92.5 59.5t61.5 85t22.5 102v73l-340 -38q-86 -10 -125 -55.5t-39 -98.5zM950 600h580q-10 129 -84 207t-203 78t-201.5 -78t-91.5 -207z" />
<glyph unicode="&#xe7;" horiz-adv-x="1011" d="M61 512q0 115 40 213t112 170t168 113t211 41q219 0 360 -152l-110 -139q-47 57 -110.5 89t-143.5 32q-72 0 -134.5 -27t-109.5 -74t-73.5 -115.5t-26.5 -150.5q0 -84 27.5 -151.5t73.5 -115.5t108.5 -74t134.5 -26q86 0 150.5 35t113.5 92l109 -141q-51 -53 -121 -92 t-156 -55q29 -41 40 -78t11 -72q0 -88 -53 -132t-125 -44q-23 0 -50.5 5t-53.5 15v119q23 -6 42 -10t35 -4q29 0 47.5 15.5t18.5 54.5q0 25 -10.5 55.5t-34.5 68.5q-106 6 -195.5 50.5t-155 115t-102.5 164.5t-37 205z" />
<glyph unicode="&#xe8;" horiz-adv-x="1110" d="M61 504q0 111 35 210t100.5 173t159 118t209.5 44q113 0 204 -41t155.5 -114t99.5 -171t35 -211v-53h-821q4 -78 32.5 -138.5t74.5 -100.5t105.5 -60.5t124.5 -20.5q113 0 193 47t133 111l90 -135q-31 -35 -69.5 -69t-89 -59.5t-112 -42t-136.5 -16.5q-117 0 -212.5 39 t-165 109t-107.5 167t-38 214zM250 600h616q-16 129 -92 207t-203 78q-129 0 -214 -78t-107 -207zM324 1462l82 131l434 -280l-80 -123z" />
<glyph unicode="&#xe9;" horiz-adv-x="1110" d="M61 504q0 111 35 210t100.5 173t159 118t209.5 44q113 0 204 -41t155.5 -114t99.5 -171t35 -211v-53h-821q4 -78 32.5 -138.5t74.5 -100.5t105.5 -60.5t124.5 -20.5q113 0 193 47t133 111l90 -135q-31 -35 -69.5 -69t-89 -59.5t-112 -42t-136.5 -16.5q-117 0 -212.5 39 t-165 109t-107.5 167t-38 214zM250 600h616q-16 129 -92 207t-203 78q-129 0 -214 -78t-107 -207zM338 1313l434 280l82 -131l-436 -272z" />
<glyph unicode="&#xea;" horiz-adv-x="1110" d="M61 504q0 111 35 210t100.5 173t159 118t209.5 44q113 0 204 -41t155.5 -114t99.5 -171t35 -211v-53h-821q4 -78 32.5 -138.5t74.5 -100.5t105.5 -60.5t124.5 -20.5q113 0 193 47t133 111l90 -135q-31 -35 -69.5 -69t-89 -59.5t-112 -42t-136.5 -16.5q-117 0 -212.5 39 t-165 109t-107.5 167t-38 214zM215 1284l360 309l361 -309l-96 -106l-265 229l-264 -229zM250 600h616q-16 129 -92 207t-203 78q-129 0 -214 -78t-107 -207z" />
<glyph unicode="&#xeb;" horiz-adv-x="1110" d="M61 504q0 111 35 210t100.5 173t159 118t209.5 44q113 0 204 -41t155.5 -114t99.5 -171t35 -211v-53h-821q4 -78 32.5 -138.5t74.5 -100.5t105.5 -60.5t124.5 -20.5q113 0 193 47t133 111l90 -135q-31 -35 -69.5 -69t-89 -59.5t-112 -42t-136.5 -16.5q-117 0 -212.5 39 t-165 109t-107.5 167t-38 214zM209 1321q0 59 40 99t99 40t99 -40t40 -99t-39.5 -99t-99.5 -40q-59 0 -99 40t-40 99zM250 600h616q-16 129 -92 207t-203 78q-129 0 -214 -78t-107 -207zM684 1321q0 59 40 99t99 40t99.5 -40t40.5 -99t-40 -99t-100 -40q-59 0 -99 40t-40 99 z" />
<glyph unicode="&#xec;" horiz-adv-x="524" d="M-78 1462l82 131l434 -280l-80 -123zM174 0v1024h176v-1024h-176z" />
<glyph unicode="&#xed;" horiz-adv-x="524" d="M102 1313l435 280l81 -131l-436 -272zM174 0v1024h176v-1024h-176z" />
<glyph unicode="&#xee;" horiz-adv-x="524" d="M-98 1284l360 309l361 -309l-97 -106l-264 229l-264 -229zM174 0v1024h176v-1024h-176z" />
<glyph unicode="&#xef;" horiz-adv-x="524" d="M-115 1321q0 59 40 99t100 40q59 0 99 -40t40 -99t-40 -99t-99 -40t-99.5 40t-40.5 99zM174 0v1024h176v-1024h-176zM360 1321q0 59 40 99t100 40q59 0 99 -40t40 -99t-40 -99t-99 -40t-99.5 40t-40.5 99z" />
<glyph unicode="&#xf0;" horiz-adv-x="1247" d="M61 512q0 119 40 218t110 170t162 110t196 39q37 0 84 -7.5t94.5 -28t94.5 -54t84 -87.5q-23 135 -81.5 241t-144.5 183l-208 -141l-82 113l174 118q-47 31 -100.5 55.5t-106.5 47.5l59 135q86 -29 158 -64.5t131 -76.5l182 123l82 -115l-149 -100q80 -78 134 -166 t88 -183.5t48 -196t14 -198.5q0 -164 -41 -290t-114.5 -211t-174 -128t-216.5 -43q-111 0 -206.5 39t-164 110t-107.5 170t-39 218zM244 514q0 -82 25.5 -149.5t70.5 -116.5t108.5 -76t141.5 -27q74 0 137.5 26t110.5 73t73.5 113.5t26.5 150.5q0 80 -23.5 147.5 t-67.5 116.5t-109.5 78t-149.5 29q-78 0 -141.5 -27t-108.5 -76t-69.5 -115.5t-24.5 -146.5z" />
<glyph unicode="&#xf1;" horiz-adv-x="1181" d="M143 0v1024h170v-135q61 86 147.5 123t186.5 37t175 -33t122 -91.5t70.5 -141.5t23.5 -181v-602h-180v610q0 133 -60.5 204t-176.5 71q-72 0 -136.5 -29t-105.5 -92q-37 -59 -48.5 -138t-11.5 -149v-477h-176zM256 1321q20 25 46 50.5t53.5 45t57 32.5t60.5 13 q37 0 71 -15t63.5 -32.5t55 -33t48.5 -15.5q29 0 57.5 24.5t56.5 55.5l99 -94q-20 -25 -46 -50.5t-53.5 -45t-57.5 -33t-60 -13.5q-37 0 -71 15.5t-63.5 33t-55 33t-48.5 15.5q-29 0 -57.5 -25t-57.5 -55z" />
<glyph unicode="&#xf2;" horiz-adv-x="1196" d="M61 512q0 111 42 209t115 171t171 115t209 42t209 -42t171 -115t115 -171t42 -209t-42 -209t-115 -171t-171 -115t-209 -42t-209 42t-171 115t-115 171t-42 209zM244 512q0 -78 26.5 -144.5t73.5 -115.5t111.5 -78t142.5 -29q76 0 141.5 29t112.5 78t73.5 115.5 t26.5 144.5q0 76 -26.5 143.5t-73.5 116.5t-112.5 78t-141.5 29q-78 0 -142.5 -29t-111.5 -78t-73.5 -116.5t-26.5 -143.5zM340 1462l82 131l434 -280l-80 -123z" />
<glyph unicode="&#xf3;" horiz-adv-x="1196" d="M61 512q0 111 42 209t115 171t171 115t209 42t209 -42t171 -115t115 -171t42 -209t-42 -209t-115 -171t-171 -115t-209 -42t-209 42t-171 115t-115 171t-42 209zM244 512q0 -78 26.5 -144.5t73.5 -115.5t111.5 -78t142.5 -29q76 0 141.5 29t112.5 78t73.5 115.5 t26.5 144.5q0 76 -26.5 143.5t-73.5 116.5t-112.5 78t-141.5 29q-78 0 -142.5 -29t-111.5 -78t-73.5 -116.5t-26.5 -143.5zM340 1313l434 280l82 -131l-436 -272z" />
<glyph unicode="&#xf4;" horiz-adv-x="1196" d="M61 512q0 111 42 209t115 171t171 115t209 42t209 -42t171 -115t115 -171t42 -209t-42 -209t-115 -171t-171 -115t-209 -42t-209 42t-171 115t-115 171t-42 209zM238 1284l360 309l360 -309l-96 -106l-264 229l-264 -229zM244 512q0 -78 26.5 -144.5t73.5 -115.5 t111.5 -78t142.5 -29q76 0 141.5 29t112.5 78t73.5 115.5t26.5 144.5q0 76 -26.5 143.5t-73.5 116.5t-112.5 78t-141.5 29q-78 0 -142.5 -29t-111.5 -78t-73.5 -116.5t-26.5 -143.5z" />
<glyph unicode="&#xf5;" horiz-adv-x="1196" d="M61 512q0 111 42 209t115 171t171 115t209 42t209 -42t171 -115t115 -171t42 -209t-42 -209t-115 -171t-171 -115t-209 -42t-209 42t-171 115t-115 171t-42 209zM244 512q0 -78 26.5 -144.5t73.5 -115.5t111.5 -78t142.5 -29q76 0 141.5 29t112.5 78t73.5 115.5 t26.5 144.5q0 76 -26.5 143.5t-73.5 116.5t-112.5 78t-141.5 29q-78 0 -142.5 -29t-111.5 -78t-73.5 -116.5t-26.5 -143.5zM264 1321q20 25 46 50.5t53.5 45t57.5 32.5t60 13q37 0 71 -15t63.5 -32.5t55 -33t48.5 -15.5q29 0 57.5 24.5t57.5 55.5l98 -94q-20 -25 -46 -50.5 t-53.5 -45t-57.5 -33t-60 -13.5q-37 0 -71 15.5t-63.5 33t-55 33t-48.5 15.5q-29 0 -57.5 -25t-57.5 -55z" />
<glyph unicode="&#xf6;" horiz-adv-x="1196" d="M61 512q0 111 42 209t115 171t171 115t209 42t209 -42t171 -115t115 -171t42 -209t-42 -209t-115 -171t-171 -115t-209 -42t-209 42t-171 115t-115 171t-42 209zM221 1321q0 59 40 99t99 40t99.5 -40t40.5 -99t-40 -99t-100 -40q-59 0 -99 40t-40 99zM244 512 q0 -78 26.5 -144.5t73.5 -115.5t111.5 -78t142.5 -29q76 0 141.5 29t112.5 78t73.5 115.5t26.5 144.5q0 76 -26.5 143.5t-73.5 116.5t-112.5 78t-141.5 29q-78 0 -142.5 -29t-111.5 -78t-73.5 -116.5t-26.5 -143.5zM696 1321q0 59 40 99t100 40q59 0 99 -40t40 -99t-40 -99 t-99 -40t-99.5 40t-40.5 99z" />
<glyph unicode="&#xf7;" d="M156 551v184h1122v-184h-1122zM537 266q0 68 46 115t113 47q68 0 115 -47t47 -115t-47 -114t-115 -46t-113.5 46t-45.5 114zM537 1018q0 68 46 115t113 47q68 0 115 -47.5t47 -114.5q0 -68 -47 -114t-115 -46t-113.5 46t-45.5 114z" />
<glyph unicode="&#xf8;" horiz-adv-x="1196" d="M61 514q0 111 42 209t115 171t171 115t209 42q80 0 153.5 -22.5t137.5 -63.5l78 92l108 -94l-78 -93q66 -72 102 -162t36 -194q0 -111 -42 -209t-115 -171t-171 -115t-209 -42q-80 0 -153.5 21.5t-135.5 62.5l-80 -94l-110 92l80 95q-66 72 -102 164t-36 196zM244 514 q0 -131 69 -225l463 545q-39 23 -84 35t-94 12q-78 0 -142.5 -29t-111.5 -78t-73.5 -116.5t-26.5 -143.5zM420 193q80 -46 178 -46q76 0 141.5 29t112.5 78t73.5 115.5t26.5 144.5q0 63 -18.5 118.5t-50.5 102.5z" />
<glyph unicode="&#xf9;" horiz-adv-x="1167" d="M143 418v606h181v-606q0 -61 10 -112.5t35.5 -88.5t68.5 -57.5t111 -20.5q78 0 140.5 31t98.5 90q37 59 48.5 138t11.5 149v477h176v-1024h-170v147q-59 -86 -139 -129t-197 -43q-104 0 -176 34t-116 92.5t-63.5 139.5t-19.5 177zM326 1462l82 131l434 -280l-80 -123z " />
<glyph unicode="&#xfa;" horiz-adv-x="1167" d="M143 418v606h181v-606q0 -61 10 -112.5t35.5 -88.5t68.5 -57.5t111 -20.5q78 0 140.5 31t98.5 90q37 59 48.5 138t11.5 149v477h176v-1024h-170v147q-59 -86 -139 -129t-197 -43q-104 0 -176 34t-116 92.5t-63.5 139.5t-19.5 177zM326 1313l434 280l82 -131l-436 -272z " />
<glyph unicode="&#xfb;" horiz-adv-x="1167" d="M143 418v606h181v-606q0 -61 10 -112.5t35.5 -88.5t68.5 -57.5t111 -20.5q78 0 140.5 31t98.5 90q37 59 48.5 138t11.5 149v477h176v-1024h-170v147q-59 -86 -139 -129t-197 -43q-104 0 -176 34t-116 92.5t-63.5 139.5t-19.5 177zM223 1284l361 309l360 -309l-96 -106 l-264 229l-265 -229z" />
<glyph unicode="&#xfc;" horiz-adv-x="1167" d="M143 418v606h181v-606q0 -61 10 -112.5t35.5 -88.5t68.5 -57.5t111 -20.5q78 0 140.5 31t98.5 90q37 59 48.5 138t11.5 149v477h176v-1024h-170v147q-59 -86 -139 -129t-197 -43q-104 0 -176 34t-116 92.5t-63.5 139.5t-19.5 177zM207 1321q0 59 40 99t99 40t99 -40 t40 -99t-39.5 -99t-99.5 -40q-59 0 -99 40t-40 99zM682 1321q0 59 40 99t99 40t99.5 -40t40.5 -99t-40 -99t-100 -40q-59 0 -99 40t-40 99z" />
<glyph unicode="&#xfd;" horiz-adv-x="1075" d="M20 1024h213l326 -680l320 680h186l-662 -1434h-190l252 549zM279 1313l434 280l82 -131l-437 -272z" />
<glyph unicode="&#xfe;" horiz-adv-x="1193" d="M143 -410v1844h176v-551q2 4 3 4q53 49 137 88t194 39q104 0 192.5 -35t152 -100.5t99.5 -157.5t36 -209t-36 -209t-99.5 -157.5t-150.5 -100.5t-190 -35q-117 0 -199.5 41t-138.5 96v-557h-176zM307 512q0 -152 86 -242t240 -90q74 0 132 24.5t99 68.5t63.5 105.5 t22.5 133.5t-22.5 133.5t-63.5 105.5t-99 68.5t-132 24.5q-154 0 -240 -90t-86 -242z" />
<glyph unicode="&#xff;" horiz-adv-x="1075" d="M20 1024h213l326 -680l320 680h186l-662 -1434h-190l252 549zM160 1321q0 59 40 99t99 40t99 -40t40 -99t-40 -99t-99 -40t-99 40t-40 99zM635 1321q0 59 40 99t99 40t99 -40t40 -99t-39.5 -99t-99.5 -40q-59 0 -99 40t-40 99z" />
<glyph unicode="&#x100;" horiz-adv-x="1568" d="M20 0l668 1434h193l667 -1434h-202l-115 252h-893l-115 -252h-203zM426 436h717l-359 774zM477 1622v154h615v-154h-615z" />
<glyph unicode="&#x101;" horiz-adv-x="1085" d="M92 293q0 74 24.5 130t67.5 96t99.5 63.5t119.5 29.5l297 29q35 4 55.5 24.5t20.5 51.5v22q0 66 -59.5 109t-163.5 43q-111 0 -179.5 -45t-84.5 -141l-160 86q29 113 126 185.5t282 72.5q215 0 315 -101.5t100 -281.5v-666h-176v145q-49 -76 -136 -120.5t-194 -44.5 q-86 0 -152.5 24.5t-110.5 66.5t-67.5 99t-23.5 123zM236 1253v154h614v-154h-614zM272 293q0 -66 48.5 -107t152.5 -41q63 0 118.5 24t96.5 62.5t64.5 86t23.5 96.5v75l-342 -40q-90 -10 -126 -54.5t-36 -101.5z" />
<glyph unicode="&#x102;" horiz-adv-x="1568" d="M20 0l668 1434h193l667 -1434h-202l-115 252h-893l-115 -252h-203zM426 436h717l-359 774zM494 1866h149q0 -82 37 -124t104 -42q68 0 105 42t37 124h149q0 -141 -77 -227.5t-214 -86.5t-213.5 86t-76.5 228z" />
<glyph unicode="&#x103;" horiz-adv-x="1085" d="M92 293q0 74 24.5 130t67.5 96t99.5 63.5t119.5 29.5l297 29q35 4 55.5 24.5t20.5 51.5v22q0 66 -59.5 109t-163.5 43q-111 0 -179.5 -45t-84.5 -141l-160 86q29 113 126 185.5t282 72.5q215 0 315 -101.5t100 -281.5v-666h-176v145q-49 -76 -136 -120.5t-194 -44.5 q-86 0 -152.5 24.5t-110.5 66.5t-67.5 99t-23.5 123zM252 1497h149q0 -82 37 -124t105 -42t104.5 42t36.5 124h150q0 -141 -77 -227t-214 -86t-214 86t-77 227zM272 293q0 -66 48.5 -107t152.5 -41q63 0 118.5 24t96.5 62.5t64.5 86t23.5 96.5v75l-342 -40 q-90 -10 -126 -54.5t-36 -101.5z" />
<glyph unicode="&#x104;" horiz-adv-x="1568" d="M20 0l668 1434h193l667 -1434h-127q-35 -47 -48 -83t-13 -64q0 -39 17.5 -54.5t45.5 -15.5q16 0 36 4t42 10v-119q-27 -10 -54.5 -15t-49.5 -5q-72 0 -125 44t-53 132q0 49 22.5 100.5t81.5 114.5l-92 203h-893l-115 -252h-203zM426 436h717l-359 774z" />
<glyph unicode="&#x105;" horiz-adv-x="1085" d="M92 293q0 74 24.5 130t67.5 96t99.5 63.5t119.5 29.5l297 29q35 4 55.5 24.5t20.5 51.5v22q0 66 -59.5 109t-163.5 43q-111 0 -179.5 -45t-84.5 -141l-160 86q29 113 126 185.5t282 72.5q215 0 315 -101.5t100 -281.5v-666h-82q-35 -47 -48 -83t-13 -64q0 -39 17.5 -54.5 t45.5 -15.5q16 0 36 4t42 10v-119q-27 -10 -54.5 -15t-49.5 -5q-72 0 -125 44t-53 132q0 49 22.5 101.5t85.5 117.5v92q-49 -76 -136 -120.5t-194 -44.5q-86 0 -152.5 24.5t-110.5 66.5t-67.5 99t-23.5 123zM272 293q0 -66 48.5 -107t152.5 -41q63 0 118.5 24t96.5 62.5 t64.5 86t23.5 96.5v75l-342 -40q-90 -10 -126 -54.5t-36 -101.5z" />
<glyph unicode="&#x106;" horiz-adv-x="1349" d="M102 717q0 154 55.5 285t150.5 227t225.5 150.5t281.5 54.5q154 0 279 -55.5t225 -149.5l-84 -174q-78 84 -183.5 139t-244.5 55q-111 0 -206 -39t-164.5 -108.5t-109.5 -167.5t-40 -217t40 -217.5t109.5 -168t164.5 -108.5t206 -39q66 0 128 14.5t136 49.5l33 -189 q-86 -31 -155.5 -45t-141.5 -14q-145 0 -274.5 54.5t-224.5 150.5t-150.5 227t-55.5 285zM580 1681l434 281l82 -131l-437 -272z" />
<glyph unicode="&#x107;" horiz-adv-x="1011" d="M61 512q0 115 40 213t112 170t168 113t211 41q219 0 360 -152l-110 -139q-47 57 -110.5 89t-143.5 32q-72 0 -134.5 -27t-109.5 -74t-73.5 -115.5t-26.5 -150.5q0 -84 27.5 -151.5t73.5 -115.5t108.5 -74t134.5 -26q86 0 150.5 35t113.5 92l109 -141q-66 -68 -158 -112 t-213 -44q-113 0 -210 41t-168 113t-111 170t-40 213zM340 1313l434 280l82 -131l-436 -272z" />
<glyph unicode="&#x108;" horiz-adv-x="1349" d="M102 717q0 154 55.5 285t150.5 227t225.5 150.5t281.5 54.5q154 0 279 -55.5t225 -149.5l-84 -174q-78 84 -183.5 139t-244.5 55q-111 0 -206 -39t-164.5 -108.5t-109.5 -167.5t-40 -217t40 -217.5t109.5 -168t164.5 -108.5t206 -39q66 0 128 14.5t136 49.5l33 -189 q-86 -31 -155.5 -45t-141.5 -14q-145 0 -274.5 54.5t-224.5 150.5t-150.5 227t-55.5 285zM408 1653l360 309l360 -309l-96 -107l-264 230l-264 -230z" />
<glyph unicode="&#x109;" horiz-adv-x="1011" d="M61 512q0 115 40 213t112 170t168 113t211 41q219 0 360 -152l-110 -139q-47 57 -110.5 89t-143.5 32q-72 0 -134.5 -27t-109.5 -74t-73.5 -115.5t-26.5 -150.5q0 -84 27.5 -151.5t73.5 -115.5t108.5 -74t134.5 -26q86 0 150.5 35t113.5 92l109 -141q-66 -68 -158 -112 t-213 -44q-113 0 -210 41t-168 113t-111 170t-40 213zM213 1284l360 309l361 -309l-96 -106l-265 229l-264 -229z" />
<glyph unicode="&#x10a;" horiz-adv-x="1349" d="M102 717q0 154 55.5 285t150.5 227t225.5 150.5t281.5 54.5q154 0 279 -55.5t225 -149.5l-84 -174q-78 84 -183.5 139t-244.5 55q-111 0 -206 -39t-164.5 -108.5t-109.5 -167.5t-40 -217t40 -217.5t109.5 -168t164.5 -108.5t206 -39q66 0 128 14.5t136 49.5l33 -189 q-86 -31 -155.5 -45t-141.5 -14q-145 0 -274.5 54.5t-224.5 150.5t-150.5 227t-55.5 285zM686 1690q0 59 40 99t99 40t99.5 -40t40.5 -99t-40 -99.5t-100 -40.5q-59 0 -99 40.5t-40 99.5z" />
<glyph unicode="&#x10b;" horiz-adv-x="1011" d="M61 512q0 115 40 213t112 170t168 113t211 41q219 0 360 -152l-110 -139q-47 57 -110.5 89t-143.5 32q-72 0 -134.5 -27t-109.5 -74t-73.5 -115.5t-26.5 -150.5q0 -84 27.5 -151.5t73.5 -115.5t108.5 -74t134.5 -26q86 0 150.5 35t113.5 92l109 -141q-66 -68 -158 -112 t-213 -44q-113 0 -210 41t-168 113t-111 170t-40 213zM449 1321q0 59 39.5 99t99.5 40q59 0 99 -40t40 -99t-40 -99t-99 -40t-99 40t-40 99z" />
<glyph unicode="&#x10c;" horiz-adv-x="1349" d="M102 717q0 154 55.5 285t150.5 227t225.5 150.5t281.5 54.5q154 0 279 -55.5t225 -149.5l-84 -174q-78 84 -183.5 139t-244.5 55q-111 0 -206 -39t-164.5 -108.5t-109.5 -167.5t-40 -217t40 -217.5t109.5 -168t164.5 -108.5t206 -39q66 0 128 14.5t136 49.5l33 -189 q-86 -31 -155.5 -45t-141.5 -14q-145 0 -274.5 54.5t-224.5 150.5t-150.5 227t-55.5 285zM412 1855l96 107l264 -229l264 229l97 -107l-361 -309z" />
<glyph unicode="&#x10d;" horiz-adv-x="1011" d="M61 512q0 115 40 213t112 170t168 113t211 41q219 0 360 -152l-110 -139q-47 57 -110.5 89t-143.5 32q-72 0 -134.5 -27t-109.5 -74t-73.5 -115.5t-26.5 -150.5q0 -84 27.5 -151.5t73.5 -115.5t108.5 -74t134.5 -26q86 0 150.5 35t113.5 92l109 -141q-66 -68 -158 -112 t-213 -44q-113 0 -210 41t-168 113t-111 170t-40 213zM215 1487l96 106l264 -229l265 229l96 -106l-361 -309z" />
<glyph unicode="&#x10e;" horiz-adv-x="1472" d="M164 0v1434h491q152 0 283 -54.5t227.5 -149.5t150.5 -226.5t54 -286.5q0 -156 -54 -287t-150.5 -226t-227.5 -149.5t-283 -54.5h-491zM227 1855l97 107l264 -229l264 229l96 -107l-360 -309zM348 184h307q115 0 212.5 39t168 109.5t110.5 169t40 215.5t-40 214 t-110.5 167.5t-168 110.5t-212.5 40h-307v-1065z" />
<glyph unicode="&#x10f;" horiz-adv-x="1554" d="M61 512q0 123 38 222.5t104.5 169t158.5 107.5t201 38q123 0 212 -46.5t140 -117.5v549h177v-1434h-177v147q-51 -78 -143 -125t-215 -47q-106 0 -196.5 38t-157 107.5t-104.5 169t-38 222.5zM244 512q0 -82 24.5 -150.5t69.5 -117.5t109.5 -77t144.5 -28 q158 0 247 101.5t89 271.5t-89 271.5t-247 101.5q-80 0 -144.5 -28t-109.5 -77t-69.5 -117.5t-24.5 -150.5zM1227 1315q0 55 40 100t101 45q66 0 105.5 -45t39.5 -100q0 -18 -6 -35.5t-16 -34.5l-166 -297l-94 53l100 177q-47 16 -75.5 55t-28.5 82z" />
<glyph unicode="&#x110;" horiz-adv-x="1472" d="M0 635v184h164v615h491q152 0 283 -54.5t227.5 -149.5t150.5 -226.5t54 -286.5q0 -156 -54 -287t-150.5 -226t-227.5 -149.5t-283 -54.5h-491v635h-164zM348 184h307q115 0 212.5 39t168 109.5t110.5 169t40 215.5t-40 214t-110.5 167.5t-168 110.5t-212.5 40h-307v-430 h348v-184h-348v-451z" />
<glyph unicode="&#x111;" horiz-adv-x="1234" d="M61 512q0 123 38 222.5t104.5 169t159 107.5t200.5 38q123 0 212 -46.5t140 -117.5v293h-245v157h245v99h177v-99h114v-157h-114v-1178h-177v147q-51 -78 -143 -125t-215 -47q-106 0 -196.5 38t-157 107.5t-104.5 169t-38 222.5zM244 512q0 -82 24.5 -150.5t69.5 -117.5 t109.5 -77t144.5 -28q158 0 247 101.5t89 271.5t-89 271.5t-247 101.5q-80 0 -144.5 -28t-109.5 -77t-69.5 -117.5t-24.5 -150.5z" />
<glyph unicode="&#x112;" horiz-adv-x="1157" d="M164 0v1434h880v-185h-696v-440h696v-184h-696v-441h696v-184h-880zM322 1622v154h614v-154h-614z" />
<glyph unicode="&#x113;" horiz-adv-x="1110" d="M61 504q0 111 35 210t100.5 173t159 118t209.5 44q113 0 204 -41t155.5 -114t99.5 -171t35 -211v-53h-821q4 -78 32.5 -138.5t74.5 -100.5t105.5 -60.5t124.5 -20.5q113 0 193 47t133 111l90 -135q-31 -35 -69.5 -69t-89 -59.5t-112 -42t-136.5 -16.5q-117 0 -212.5 39 t-165 109t-107.5 167t-38 214zM250 600h616q-16 129 -92 207t-203 78q-129 0 -214 -78t-107 -207zM268 1253v154h615v-154h-615z" />
<glyph unicode="&#x114;" horiz-adv-x="1157" d="M164 0v1434h880v-185h-696v-440h696v-184h-696v-441h696v-184h-880zM338 1866h149q0 -82 37 -124t105 -42t104.5 42t36.5 124h150q0 -141 -77 -227.5t-214 -86.5t-214 86t-77 228z" />
<glyph unicode="&#x115;" horiz-adv-x="1110" d="M61 504q0 111 35 210t100.5 173t159 118t209.5 44q113 0 204 -41t155.5 -114t99.5 -171t35 -211v-53h-821q4 -78 32.5 -138.5t74.5 -100.5t105.5 -60.5t124.5 -20.5q113 0 193 47t133 111l90 -135q-31 -35 -69.5 -69t-89 -59.5t-112 -42t-136.5 -16.5q-117 0 -212.5 39 t-165 109t-107.5 167t-38 214zM250 600h616q-16 129 -92 207t-203 78q-129 0 -214 -78t-107 -207zM283 1497h149q0 -82 37 -124t104 -42q68 0 105 42t37 124h149q0 -141 -77 -227t-214 -86t-213.5 86t-76.5 227z" />
<glyph unicode="&#x116;" horiz-adv-x="1157" d="M164 0v1434h880v-185h-696v-440h696v-184h-696v-441h696v-184h-880zM489 1690q0 59 40 99t100 40q59 0 99 -40t40 -99t-40 -99.5t-99 -40.5t-99.5 40.5t-40.5 99.5z" />
<glyph unicode="&#x117;" horiz-adv-x="1110" d="M61 504q0 111 35 210t100.5 173t159 118t209.5 44q113 0 204 -41t155.5 -114t99.5 -171t35 -211v-53h-821q4 -78 32.5 -138.5t74.5 -100.5t105.5 -60.5t124.5 -20.5q113 0 193 47t133 111l90 -135q-31 -35 -69.5 -69t-89 -59.5t-112 -42t-136.5 -16.5q-117 0 -212.5 39 t-165 109t-107.5 167t-38 214zM250 600h616q-16 129 -92 207t-203 78q-129 0 -214 -78t-107 -207zM432 1321q0 59 40 99t99 40t99.5 -40t40.5 -99t-40 -99t-100 -40q-59 0 -99 40t-40 99z" />
<glyph unicode="&#x118;" horiz-adv-x="1157" d="M164 0v1434h880v-185h-696v-440h696v-184h-696v-441h696v-184h-118q-35 -47 -48.5 -83t-13.5 -64q0 -39 17.5 -54.5t46.5 -15.5q16 0 35.5 4t42.5 10v-119q-27 -10 -54.5 -15t-50.5 -5q-72 0 -125 44t-53 132q0 39 13.5 79t47.5 87h-620z" />
<glyph unicode="&#x119;" horiz-adv-x="1110" d="M61 504q0 111 35 210t100.5 173t159 118t209.5 44q113 0 204 -41t155.5 -114t99.5 -171t35 -211v-53h-821q4 -78 32.5 -138.5t74.5 -100.5t105.5 -60.5t124.5 -20.5q113 0 193 47t133 111l90 -135q-55 -63 -139 -116.5t-211 -65.5q-27 -39 -36 -71t-9 -56 q0 -39 17.5 -54.5t45.5 -15.5q16 0 36 4t42 10v-119q-27 -10 -54.5 -15t-49.5 -5q-72 0 -125 44t-53 132q0 35 10 71t37 77q-98 12 -180 55t-139.5 111.5t-89.5 158.5t-32 197zM250 600h616q-16 129 -92 207t-203 78q-129 0 -214 -78t-107 -207z" />
<glyph unicode="&#x11a;" horiz-adv-x="1157" d="M164 0v1434h880v-185h-696v-440h696v-184h-696v-441h696v-184h-880zM268 1855l97 107l264 -229l264 229l96 -107l-360 -309z" />
<glyph unicode="&#x11b;" horiz-adv-x="1110" d="M61 504q0 111 35 210t100.5 173t159 118t209.5 44q113 0 204 -41t155.5 -114t99.5 -171t35 -211v-53h-821q4 -78 32.5 -138.5t74.5 -100.5t105.5 -60.5t124.5 -20.5q113 0 193 47t133 111l90 -135q-31 -35 -69.5 -69t-89 -59.5t-112 -42t-136.5 -16.5q-117 0 -212.5 39 t-165 109t-107.5 167t-38 214zM225 1487l97 106l264 -229l264 229l96 -106l-360 -309zM250 600h616q-16 129 -92 207t-203 78q-129 0 -214 -78t-107 -207z" />
<glyph unicode="&#x11c;" horiz-adv-x="1349" d="M102 719q0 152 55.5 283t150.5 227t225.5 150.5t281.5 54.5q154 0 279 -55.5t225 -149.5l-84 -174q-78 84 -183.5 139t-244.5 55q-111 0 -206 -39t-164.5 -108.5t-109.5 -167.5t-40 -217t40 -217.5t109.5 -168t164.5 -108.5t208 -39q39 0 67.5 4.5t61.5 12.5v370h-330 v185h514v-690q-74 -29 -152.5 -47.5t-164.5 -18.5q-145 0 -273.5 54.5t-223.5 151.5t-150.5 228t-55.5 285zM438 1653l361 309l360 -309l-96 -107l-264 230l-264 -230z" />
<glyph unicode="&#x11d;" horiz-adv-x="1255" d="M82 512q0 123 38 222.5t104.5 169t157.5 107.5t200 38q129 0 219 -48.5t135 -115.5v139h176v-969q0 -92 -20.5 -180t-75.5 -156.5t-151.5 -111.5t-246.5 -43q-96 0 -169.5 18.5t-129 51t-96.5 79.5t-69 103l137 108q49 -98 131 -151.5t211 -53.5q96 0 156.5 29t94.5 77 t46 108.5t12 121.5v84q-49 -72 -142 -118t-216 -46q-109 0 -201 38t-158.5 107.5t-104.5 169t-38 222.5zM246 1284l360 309l361 -309l-97 -106l-264 229l-264 -229zM264 512q0 -82 24.5 -150.5t69.5 -117.5t109.5 -77t144.5 -28q158 0 247 101.5t89 271.5t-89 271.5 t-247 101.5q-80 0 -144.5 -28t-109.5 -77t-69.5 -117.5t-24.5 -150.5z" />
<glyph unicode="&#x11e;" horiz-adv-x="1349" d="M102 719q0 152 55.5 283t150.5 227t225.5 150.5t281.5 54.5q154 0 279 -55.5t225 -149.5l-84 -174q-78 84 -183.5 139t-244.5 55q-111 0 -206 -39t-164.5 -108.5t-109.5 -167.5t-40 -217t40 -217.5t109.5 -168t164.5 -108.5t208 -39q39 0 67.5 4.5t61.5 12.5v370h-330 v185h514v-690q-74 -29 -152.5 -47.5t-164.5 -18.5q-145 0 -273.5 54.5t-223.5 151.5t-150.5 228t-55.5 285zM508 1866h149q0 -82 37 -124t105 -42t104.5 42t36.5 124h150q0 -141 -77 -227.5t-214 -86.5t-214 86t-77 228z" />
<glyph unicode="&#x11f;" horiz-adv-x="1255" d="M82 512q0 123 38 222.5t104.5 169t157.5 107.5t200 38q129 0 219 -48.5t135 -115.5v139h176v-969q0 -92 -20.5 -180t-75.5 -156.5t-151.5 -111.5t-246.5 -43q-96 0 -169.5 18.5t-129 51t-96.5 79.5t-69 103l137 108q49 -98 131 -151.5t211 -53.5q96 0 156.5 29t94.5 77 t46 108.5t12 121.5v84q-49 -72 -142 -118t-216 -46q-109 0 -201 38t-158.5 107.5t-104.5 169t-38 222.5zM264 512q0 -82 24.5 -150.5t69.5 -117.5t109.5 -77t144.5 -28q158 0 247 101.5t89 271.5t-89 271.5t-247 101.5q-80 0 -144.5 -28t-109.5 -77t-69.5 -117.5 t-24.5 -150.5zM336 1497h149q0 -82 37 -124t105 -42t104.5 42t36.5 124h150q0 -141 -77 -227t-214 -86t-214 86t-77 227z" />
<glyph unicode="&#x120;" horiz-adv-x="1349" d="M102 719q0 152 55.5 283t150.5 227t225.5 150.5t281.5 54.5q154 0 279 -55.5t225 -149.5l-84 -174q-78 84 -183.5 139t-244.5 55q-111 0 -206 -39t-164.5 -108.5t-109.5 -167.5t-40 -217t40 -217.5t109.5 -168t164.5 -108.5t208 -39q39 0 67.5 4.5t61.5 12.5v370h-330 v185h514v-690q-74 -29 -152.5 -47.5t-164.5 -18.5q-145 0 -273.5 54.5t-223.5 151.5t-150.5 228t-55.5 285zM659 1690q0 59 40 99t100 40q59 0 99 -40t40 -99t-40 -99.5t-99 -40.5t-99.5 40.5t-40.5 99.5z" />
<glyph unicode="&#x121;" horiz-adv-x="1255" d="M82 512q0 123 38 222.5t104.5 169t157.5 107.5t200 38q129 0 219 -48.5t135 -115.5v139h176v-969q0 -92 -20.5 -180t-75.5 -156.5t-151.5 -111.5t-246.5 -43q-96 0 -169.5 18.5t-129 51t-96.5 79.5t-69 103l137 108q49 -98 131 -151.5t211 -53.5q96 0 156.5 29t94.5 77 t46 108.5t12 121.5v84q-49 -72 -142 -118t-216 -46q-109 0 -201 38t-158.5 107.5t-104.5 169t-38 222.5zM264 512q0 -82 24.5 -150.5t69.5 -117.5t109.5 -77t144.5 -28q158 0 247 101.5t89 271.5t-89 271.5t-247 101.5q-80 0 -144.5 -28t-109.5 -77t-69.5 -117.5 t-24.5 -150.5zM467 1321q0 59 40 99t99 40t99 -40t40 -99t-39.5 -99t-99.5 -40q-59 0 -99 40t-40 99z" />
<glyph unicode="&#x122;" horiz-adv-x="1349" d="M102 719q0 152 55.5 283t150.5 227t225.5 150.5t281.5 54.5q154 0 279 -55.5t225 -149.5l-84 -174q-78 84 -183.5 139t-244.5 55q-111 0 -206 -39t-164.5 -108.5t-109.5 -167.5t-40 -217t40 -217.5t109.5 -168t164.5 -108.5t208 -39q39 0 67.5 4.5t61.5 12.5v370h-330 v185h514v-690q-74 -29 -152.5 -47.5t-164.5 -18.5q-145 0 -273.5 54.5t-223.5 151.5t-150.5 228t-55.5 285zM653 -248q0 55 40 100.5t102 45.5q66 0 105.5 -45.5t39.5 -100.5q0 -18 -6 -35.5t-16 -33.5l-166 -297l-95 53l101 176q-47 16 -76 55t-29 82z" />
<glyph unicode="&#x123;" horiz-adv-x="1255" d="M82 512q0 123 38 222.5t104.5 169t157.5 107.5t200 38q129 0 219 -48.5t135 -115.5v139h176v-969q0 -92 -20.5 -180t-75.5 -156.5t-151.5 -111.5t-246.5 -43q-96 0 -169.5 18.5t-129 51t-96.5 79.5t-69 103l137 108q49 -98 131 -151.5t211 -53.5q96 0 156.5 29t94.5 77 t46 108.5t12 121.5v84q-49 -72 -142 -118t-216 -46q-109 0 -201 38t-158.5 107.5t-104.5 169t-38 222.5zM264 512q0 -82 24.5 -150.5t69.5 -117.5t109.5 -77t144.5 -28q158 0 247 101.5t89 271.5t-89 271.5t-247 101.5q-80 0 -144.5 -28t-109.5 -77t-69.5 -117.5 t-24.5 -150.5zM451 1296q0 18 6 36t16 34l166 297l94 -53l-100 -176q47 -16 75.5 -55.5t28.5 -82.5q0 -55 -40 -100t-101 -45q-66 0 -105.5 45t-39.5 100z" />
<glyph unicode="&#x124;" horiz-adv-x="1515" d="M164 0v1434h184v-625h819v625h185v-1434h-185v625h-819v-625h-184zM397 1653l361 309l360 -309l-96 -107l-264 230l-264 -230z" />
<glyph unicode="&#x125;" horiz-adv-x="1161" d="M-63 1653l360 309l360 -309l-96 -107l-264 230l-264 -230zM143 0v1434h176v-545q59 82 141.5 121t178.5 39q106 0 182 -33t124 -91.5t70.5 -141.5t22.5 -181v-602h-180v610q0 131 -59.5 203t-180.5 72q-72 0 -135 -30t-104 -91q-37 -59 -48.5 -138t-11.5 -149v-477h-176z " />
<glyph unicode="&#x126;" horiz-adv-x="1515" d="M61 991v185h103v258h184v-258h819v258h185v-258h102v-185h-102v-991h-185v625h-819v-625h-184v991h-103zM348 809h819v182h-819v-182z" />
<glyph unicode="&#x127;" horiz-adv-x="1161" d="M4 1159v158h139v117h176v-117h222v-158h-222v-270q59 82 141.5 121t178.5 39q106 0 182 -33t124 -91.5t70.5 -141.5t22.5 -181v-602h-180v610q0 131 -59.5 203t-180.5 72q-72 0 -135 -30t-104 -91q-37 -59 -48.5 -138t-11.5 -149v-477h-176v1159h-139z" />
<glyph unicode="&#x128;" horiz-adv-x="512" d="M-76 1690q20 25 46 50t53.5 44.5t57.5 33t60 13.5q37 0 71 -15.5t63.5 -33t55 -32.5t48.5 -15q29 0 57.5 24.5t57.5 55.5l98 -95q-20 -25 -46 -50t-53.5 -44.5t-57 -33t-60.5 -13.5q-37 0 -71 15.5t-63.5 33t-55 32.5t-48.5 15q-29 0 -57.5 -24.5t-56.5 -55.5zM164 0 v1434h184v-1434h-184z" />
<glyph unicode="&#x129;" horiz-adv-x="524" d="M-72 1321q20 25 46 50.5t53.5 45t57.5 32.5t60 13q37 0 71 -15t63.5 -32.5t55 -33t48.5 -15.5q29 0 57.5 24.5t57.5 55.5l98 -94q-20 -25 -46 -50.5t-53.5 -45t-57 -33t-60.5 -13.5q-37 0 -71 15.5t-63.5 33t-55 33t-48.5 15.5q-29 0 -57.5 -25t-56.5 -55zM174 0v1024 h176v-1024h-176z" />
<glyph unicode="&#x12a;" horiz-adv-x="512" d="M-51 1622v154h614v-154h-614zM164 0v1434h184v-1434h-184z" />
<glyph unicode="&#x12b;" horiz-adv-x="524" d="M-45 1253v154h614v-154h-614zM174 0v1024h176v-1024h-176z" />
<glyph unicode="&#x12c;" horiz-adv-x="512" d="M-35 1866h150q0 -82 36.5 -124t104.5 -42t104.5 42t36.5 124h150q0 -141 -77 -227.5t-214 -86.5t-214 86t-77 228zM164 0v1434h184v-1434h-184z" />
<glyph unicode="&#x12d;" horiz-adv-x="524" d="M-29 1497h150q0 -82 37 -124t104 -42q68 0 104.5 42t36.5 124h150q0 -141 -77 -227t-214 -86t-214 86t-77 227zM174 0v1024h176v-1024h-176z" />
<glyph unicode="&#x12e;" horiz-adv-x="512" d="M66 -166q0 47 20 97.5t78 111.5v1391h184v-1434h-80q-35 -47 -48 -83t-13 -64q0 -39 17.5 -54.5t45.5 -15.5q16 0 36 4t42 10v-119q-27 -10 -54.5 -15t-49.5 -5q-72 0 -125 44t-53 132z" />
<glyph unicode="&#x12f;" horiz-adv-x="524" d="M70 -166q0 49 22.5 100.5t81.5 114.5v975h176v-1024h-78q-35 -47 -48 -83t-13 -64q0 -39 17.5 -54.5t45.5 -15.5q16 0 36 4t42 10v-119q-27 -10 -54.5 -15t-49.5 -5q-72 0 -125 44t-53 132zM123 1321q0 59 40 99t99 40t99 -40t40 -99t-39.5 -99t-99.5 -40q-59 0 -99 40 t-40 99z" />
<glyph unicode="&#x130;" horiz-adv-x="512" d="M117 1690q0 59 40 99t99 40t99 -40t40 -99t-40 -99.5t-99 -40.5t-99 40.5t-40 99.5zM164 0v1434h184v-1434h-184z" />
<glyph unicode="&#x131;" horiz-adv-x="524" d="M174 0v1024h176v-1024h-176z" />
<glyph unicode="&#x132;" horiz-adv-x="1019" d="M164 0v1434h184v-1434h-184zM463 0v184q55 0 98 21.5t72 58.5t44 85t15 104v981h185v-981q0 -100 -29 -183.5t-82 -143.5t-130 -93t-173 -33z" />
<glyph unicode="&#x133;" horiz-adv-x="1067" d="M123 1321q0 59 40 99t99 40t99 -40t40 -99t-39.5 -99t-99.5 -40q-59 0 -99 40t-40 99zM174 0v1024h176v-1024h-176zM483 -246q74 0 122 13.5t75 39t37 61.5t10 83v1073h176v-1073q0 -94 -21.5 -163t-70.5 -115t-130 -68.5t-198 -22.5v172zM676 1321q0 59 40 99t99 40 t99 -40t40 -99t-40 -99t-99 -40t-99 40t-40 99z" />
<glyph unicode="&#x134;" horiz-adv-x="1007" d="M31 418l170 84q0 -66 14 -124.5t45 -101.5t78 -67.5t113 -24.5q55 0 98 21.5t71.5 58.5t44 85t15.5 104v981h184v-981q0 -100 -28.5 -183.5t-82 -143.5t-130 -93t-172.5 -33q-113 0 -193 39t-130 100.5t-73.5 135t-23.5 143.5zM399 1653l361 309l360 -309l-96 -107 l-264 230l-264 -230z" />
<glyph unicode="&#x135;" horiz-adv-x="542" d="M-88 1284l360 309l361 -309l-96 -106l-265 229l-264 -229zM-41 -246q74 0 122 13.5t74.5 39t37 61.5t10.5 83v1073h176v-1073q0 -94 -21.5 -163t-70.5 -115t-130 -68.5t-198 -22.5v172z" />
<glyph unicode="&#x136;" horiz-adv-x="1325" d="M164 0v1434h184v-715l707 715h260l-619 -625l619 -809h-234l-516 676l-217 -219v-457h-184zM530 -248q0 55 40 100.5t102 45.5q66 0 105.5 -45.5t39.5 -100.5q0 -18 -6 -35.5t-16 -33.5l-166 -297l-94 53l100 176q-47 16 -76 55t-29 82z" />
<glyph unicode="&#x137;" horiz-adv-x="1054" d="M143 0v1434h176v-891l467 481h248l-434 -453l434 -571h-229l-330 455l-156 -148v-307h-176zM383 -248q0 55 40 100.5t101 45.5q66 0 106 -45.5t40 -100.5q0 -18 -6.5 -35.5t-16.5 -33.5l-166 -297l-94 53l100 176q-47 16 -75.5 55t-28.5 82z" />
<glyph unicode="&#x138;" horiz-adv-x="1054" d="M143 0v1024h176v-481l467 481h248l-434 -453l434 -571h-229l-330 455l-156 -148v-307h-176z" />
<glyph unicode="&#x139;" horiz-adv-x="1089" d="M127 1681l434 281l82 -131l-436 -272zM164 0v1434h184v-1250h711v-184h-895z" />
<glyph unicode="&#x13a;" horiz-adv-x="466" d="M70 1681l434 281l82 -131l-436 -272zM143 0v1434h181v-1434h-181z" />
<glyph unicode="&#x13b;" horiz-adv-x="1089" d="M164 0v1434h184v-1250h711v-184h-895zM412 -248q0 55 40 100.5t101 45.5q66 0 105.5 -45.5t39.5 -100.5q0 -18 -6 -35.5t-16 -33.5l-166 -297l-94 53l100 176q-47 16 -75.5 55t-28.5 82z" />
<glyph unicode="&#x13c;" horiz-adv-x="466" d="M90 -248q0 55 40 100.5t101 45.5q66 0 106 -45.5t40 -100.5q0 -18 -6 -35.5t-17 -33.5l-166 -297l-94 53l101 176q-47 16 -76 55t-29 82zM143 0v1434h181v-1434h-181z" />
<glyph unicode="&#x13d;" horiz-adv-x="1089" d="M12 1855l97 107l264 -229l264 229l96 -107l-360 -309zM164 0v1434h184v-1250h711v-184h-895z" />
<glyph unicode="&#x13e;" horiz-adv-x="839" d="M143 0v1434h181v-1434h-181zM492 1315q0 55 39.5 100t101.5 45q66 0 105.5 -45t39.5 -100q0 -18 -6 -35.5t-16 -34.5l-166 -297l-94 53l100 177q-47 16 -75.5 55t-28.5 82z" />
<glyph unicode="&#x13f;" horiz-adv-x="1089" d="M164 0v1434h184v-1250h711v-184h-895zM608 801q0 59 40 99t100 40q59 0 99 -40t40 -99t-40 -99t-99 -40t-99.5 40t-40.5 99z" />
<glyph unicode="&#x140;" horiz-adv-x="745" d="M143 0v1434h181v-1434h-181zM416 772q0 59 40 99t99 40t99 -40t40 -99t-40 -99t-99 -40t-99 40t-40 99z" />
<glyph unicode="&#x141;" horiz-adv-x="1089" d="M-27 592l191 78v764h184v-686l387 159l64 -151l-451 -187v-385h711v-184h-895v492l-127 -52z" />
<glyph unicode="&#x142;" horiz-adv-x="466" d="M-104 674l247 102v658h181v-584l211 88l55 -129l-266 -111v-698h-181v625l-192 -80z" />
<glyph unicode="&#x143;" horiz-adv-x="1611" d="M164 0v1434h170l930 -1129v1129h184v-1434h-176l-924 1120v-1120h-184zM612 1681l435 281l81 -131l-436 -272z" />
<glyph unicode="&#x144;" horiz-adv-x="1181" d="M143 0v1024h170v-135q61 86 147.5 123t186.5 37t175 -33t122 -91.5t70.5 -141.5t23.5 -181v-602h-180v610q0 133 -60.5 204t-176.5 71q-72 0 -136.5 -29t-105.5 -92q-37 -59 -48.5 -138t-11.5 -149v-477h-176zM332 1313l434 280l82 -131l-436 -272z" />
<glyph unicode="&#x145;" horiz-adv-x="1611" d="M164 0v1434h170l930 -1129v1129h184v-1434h-176l-924 1120v-1120h-184zM674 -248q0 55 40 100.5t101 45.5q66 0 106 -45.5t40 -100.5q0 -18 -6.5 -35.5t-16.5 -33.5l-166 -297l-94 53l100 176q-47 16 -75.5 55t-28.5 82z" />
<glyph unicode="&#x146;" horiz-adv-x="1181" d="M143 0v1024h170v-135q61 86 147.5 123t186.5 37t175 -33t122 -91.5t70.5 -141.5t23.5 -181v-602h-180v610q0 133 -60.5 204t-176.5 71q-72 0 -136.5 -29t-105.5 -92q-37 -59 -48.5 -138t-11.5 -149v-477h-176zM446 -248q0 55 40 100.5t102 45.5q66 0 105.5 -45.5 t39.5 -100.5q0 -18 -6 -35.5t-16 -33.5l-166 -297l-94 53l100 176q-47 16 -76 55t-29 82z" />
<glyph unicode="&#x147;" horiz-adv-x="1611" d="M164 0v1434h170l930 -1129v1129h184v-1434h-176l-924 1120v-1120h-184zM498 1855l96 107l264 -229l264 229l97 -107l-361 -309z" />
<glyph unicode="&#x148;" horiz-adv-x="1181" d="M143 0v1024h170v-135q61 86 147.5 123t186.5 37t175 -33t122 -91.5t70.5 -141.5t23.5 -181v-602h-180v610q0 133 -60.5 204t-176.5 71q-72 0 -136.5 -29t-105.5 -92q-37 -59 -48.5 -138t-11.5 -149v-477h-176zM229 1487l97 106l264 -229l264 229l96 -106l-360 -309z" />
<glyph unicode="&#x149;" horiz-adv-x="1275" d="M-41 1315q0 55 40 100t101 45q66 0 106 -45t40 -100q0 -18 -6.5 -35.5t-16.5 -34.5l-166 -297l-94 53l100 177q-47 16 -75.5 55t-28.5 82zM238 0v1024h170v-135q61 86 147 123t186 37t175 -33t122 -91.5t71 -141.5t24 -181v-602h-181v610q0 133 -60.5 204t-176.5 71 q-72 0 -136.5 -29t-105.5 -92q-37 -59 -48 -138t-11 -149v-477h-176z" />
<glyph unicode="&#x14a;" horiz-adv-x="1611" d="M164 0v1434h170l930 -1129v1129h184v-1487q0 -197 -86 -279t-227 -82q-29 0 -61 3t-68 8v159q39 -4 58 -5t48 -1q78 0 117 41t39 156v57l-920 1116v-1120h-184z" />
<glyph unicode="&#x14b;" horiz-adv-x="1171" d="M143 0v1024h170v-135q61 86 147.5 123t186.5 37q98 0 171 -33t119 -91.5t68.5 -141.5t22.5 -181v-665q0 -96 -21.5 -163t-59.5 -108t-92 -60.5t-120 -19.5q-29 0 -60.5 3t-68.5 8v159q39 -4 58.5 -5t48.5 -1q68 0 101.5 39t33.5 148v673q0 133 -57.5 204t-169.5 71 q-72 0 -136.5 -29t-105.5 -92q-37 -59 -48.5 -138t-11.5 -149v-477h-176z" />
<glyph unicode="&#x14c;" horiz-adv-x="1634" d="M102 717q0 154 54.5 285t150.5 227t226 150.5t284 54.5t285 -54.5t226 -150.5t149.5 -227.5t54.5 -284.5q0 -154 -54.5 -285t-149.5 -227t-226 -150.5t-285 -54.5t-284 54.5t-226 150.5t-150.5 227t-54.5 285zM287 717q0 -115 40 -212t110.5 -169t167.5 -112t212 -40 t212 40t168 112t111 169t40 212t-40 212t-111 168.5t-168 111.5t-212 40t-212 -40t-167.5 -111.5t-110.5 -169t-40 -211.5zM510 1622v154h614v-154h-614z" />
<glyph unicode="&#x14d;" horiz-adv-x="1196" d="M61 512q0 111 42 209t115 171t171 115t209 42t209 -42t171 -115t115 -171t42 -209t-42 -209t-115 -171t-171 -115t-209 -42t-209 42t-171 115t-115 171t-42 209zM244 512q0 -78 26.5 -144.5t73.5 -115.5t111.5 -78t142.5 -29q76 0 141.5 29t112.5 78t73.5 115.5 t26.5 144.5q0 76 -26.5 143.5t-73.5 116.5t-112.5 78t-141.5 29q-78 0 -142.5 -29t-111.5 -78t-73.5 -116.5t-26.5 -143.5zM291 1253v154h614v-154h-614z" />
<glyph unicode="&#x14e;" horiz-adv-x="1634" d="M102 717q0 154 54.5 285t150.5 227t226 150.5t284 54.5t285 -54.5t226 -150.5t149.5 -227.5t54.5 -284.5q0 -154 -54.5 -285t-149.5 -227t-226 -150.5t-285 -54.5t-284 54.5t-226 150.5t-150.5 227t-54.5 285zM287 717q0 -115 40 -212t110.5 -169t167.5 -112t212 -40 t212 40t168 112t111 169t40 212t-40 212t-111 168.5t-168 111.5t-212 40t-212 -40t-167.5 -111.5t-110.5 -169t-40 -211.5zM526 1866h150q0 -82 37 -124t104 -42q68 0 104.5 42t36.5 124h150q0 -141 -77 -227.5t-214 -86.5t-214 86t-77 228z" />
<glyph unicode="&#x14f;" horiz-adv-x="1196" d="M61 512q0 111 42 209t115 171t171 115t209 42t209 -42t171 -115t115 -171t42 -209t-42 -209t-115 -171t-171 -115t-209 -42t-209 42t-171 115t-115 171t-42 209zM244 512q0 -78 26.5 -144.5t73.5 -115.5t111.5 -78t142.5 -29q76 0 141.5 29t112.5 78t73.5 115.5 t26.5 144.5q0 76 -26.5 143.5t-73.5 116.5t-112.5 78t-141.5 29q-78 0 -142.5 -29t-111.5 -78t-73.5 -116.5t-26.5 -143.5zM307 1497h150q0 -82 36.5 -124t104.5 -42t104.5 42t36.5 124h150q0 -141 -77 -227t-214 -86t-214 86t-77 227z" />
<glyph unicode="&#x150;" horiz-adv-x="1634" d="M102 717q0 154 54.5 285t150.5 227t226 150.5t284 54.5t285 -54.5t226 -150.5t149.5 -227.5t54.5 -284.5q0 -154 -54.5 -285t-149.5 -227t-226 -150.5t-285 -54.5t-284 54.5t-226 150.5t-150.5 227t-54.5 285zM287 717q0 -115 40 -212t110.5 -169t167.5 -112t212 -40 t212 40t168 112t111 169t40 212t-40 212t-111 168.5t-168 111.5t-212 40t-212 -40t-167.5 -111.5t-110.5 -169t-40 -211.5zM492 1624l227 338l125 -84l-232 -334zM805 1604l227 338l125 -84l-231 -334z" />
<glyph unicode="&#x151;" horiz-adv-x="1196" d="M61 512q0 111 42 209t115 171t171 115t209 42t209 -42t171 -115t115 -171t42 -209t-42 -209t-115 -171t-171 -115t-209 -42t-209 42t-171 115t-115 171t-42 209zM244 512q0 -78 26.5 -144.5t73.5 -115.5t111.5 -78t142.5 -29q76 0 141.5 29t112.5 78t73.5 115.5 t26.5 144.5q0 76 -26.5 143.5t-73.5 116.5t-112.5 78t-141.5 29q-78 0 -142.5 -29t-111.5 -78t-73.5 -116.5t-26.5 -143.5zM264 1255l228 338l124 -84l-231 -333zM578 1235l227 338l125 -84l-232 -334z" />
<glyph unicode="&#x152;" horiz-adv-x="2340" d="M102 717q0 154 54.5 285t150.5 227t226.5 150.5t283.5 54.5q162 0 297 -60.5t234 -165.5v226h880v-185h-696v-440h696v-184h-696v-441h696v-184h-880v225q-98 -106 -233.5 -165.5t-297.5 -59.5q-154 0 -284 54.5t-226 150.5t-150.5 227t-54.5 285zM287 717 q0 -115 40 -212t110.5 -169t167.5 -112t212 -40t212 40t168 112t111 169t40 212t-40 212t-111 168.5t-168 111.5t-212 40t-212 -40t-167.5 -111.5t-110.5 -169t-40 -211.5z" />
<glyph unicode="&#x153;" horiz-adv-x="1939" d="M61 512q0 117 39 215t109 170t165 112t208 40q145 0 251.5 -60.5t172.5 -165.5q59 102 159.5 164t245.5 62q111 0 199 -42t149.5 -115t95 -172t33.5 -212v-53h-784q6 -156 88 -236t219 -80q113 0 185.5 49.5t132.5 116.5l96 -143q-37 -41 -77 -75t-89 -58.5t-109.5 -39 t-138.5 -14.5q-139 0 -242.5 58.5t-162.5 163.5q-68 -102 -174.5 -162t-249.5 -60q-113 0 -208 40t-165 112t-109 170t-39 215zM238 512q0 -78 25.5 -144.5t71.5 -115.5t109.5 -78t137.5 -29q160 0 252 101.5t92 265.5t-92.5 265.5t-251.5 101.5q-160 0 -252 -101.5 t-92 -265.5zM1116 596h582q-14 131 -85 210t-202 79q-133 0 -204.5 -78t-90.5 -211z" />
<glyph unicode="&#x154;" horiz-adv-x="1378" d="M164 0v1434h551q104 0 192 -37t152.5 -101.5t101.5 -152.5t37 -193q0 -147 -68.5 -258.5t-185.5 -171.5l424 -520h-240l-380 467h-400v-467h-184zM348 651h254l-82 103l142 118l159 -202q84 33 138.5 107.5t54.5 172.5q0 66 -23.5 120t-63.5 94t-95.5 62.5t-116.5 22.5 h-367v-598zM362 1681l435 281l82 -131l-437 -272z" />
<glyph unicode="&#x155;" horiz-adv-x="765" d="M143 0v1024h170v-154q47 86 124 133.5t186 47.5q20 0 38.5 -2t32.5 -5q16 -2 31 -4l-2 -184q-12 2 -29 4q-14 2 -32.5 4t-40.5 2q-72 0 -133.5 -22.5t-102.5 -81.5q-39 -55 -52.5 -128t-13.5 -157v-477h-176zM199 1313l434 280l82 -131l-436 -272z" />
<glyph unicode="&#x156;" horiz-adv-x="1378" d="M164 0v1434h551q104 0 192 -37t152.5 -101.5t101.5 -152.5t37 -193q0 -147 -68.5 -258.5t-185.5 -171.5l424 -520h-240l-380 467h-400v-467h-184zM348 651h254l-82 103l142 118l159 -202q84 33 138.5 107.5t54.5 172.5q0 66 -23.5 120t-63.5 94t-95.5 62.5t-116.5 22.5 h-367v-598zM557 -248q0 55 40 100.5t101 45.5q66 0 106 -45.5t40 -100.5q0 -18 -6.5 -35.5t-16.5 -33.5l-166 -297l-94 53l101 176q-47 16 -76 55t-29 82z" />
<glyph unicode="&#x157;" horiz-adv-x="765" d="M141 -248q0 55 40 100.5t102 45.5q66 0 105.5 -45.5t39.5 -100.5q0 -18 -6 -35.5t-16 -33.5l-166 -297l-95 53l101 176q-47 16 -76 55t-29 82zM143 0v1024h170v-154q47 86 124 133.5t186 47.5q20 0 38.5 -2t32.5 -5q16 -2 31 -4l-2 -184q-12 2 -29 4q-14 2 -32.5 4 t-40.5 2q-72 0 -133.5 -22.5t-102.5 -81.5q-39 -55 -52.5 -128t-13.5 -157v-477h-176z" />
<glyph unicode="&#x158;" horiz-adv-x="1378" d="M164 0v1434h551q104 0 192 -37t152.5 -101.5t101.5 -152.5t37 -193q0 -147 -68.5 -258.5t-185.5 -171.5l424 -520h-240l-380 467h-400v-467h-184zM248 1855l96 107l264 -229l264 229l97 -107l-361 -309zM348 651h254l-82 103l142 118l159 -202q84 33 138.5 107.5 t54.5 172.5q0 66 -23.5 120t-63.5 94t-95.5 62.5t-116.5 22.5h-367v-598z" />
<glyph unicode="&#x159;" horiz-adv-x="765" d="M23 1487l96 106l264 -229l264 229l96 -106l-360 -309zM143 0v1024h170v-154q47 86 124 133.5t186 47.5q20 0 38.5 -2t32.5 -5q16 -2 31 -4l-2 -184q-12 2 -29 4q-14 2 -32.5 4t-40.5 2q-72 0 -133.5 -22.5t-102.5 -81.5q-39 -55 -52.5 -128t-13.5 -157v-477h-176z" />
<glyph unicode="&#x15a;" horiz-adv-x="1165" d="M133 342l162 86q35 -123 107.5 -183.5t175.5 -60.5q51 0 97 14.5t79.5 42t54 67.5t20.5 89q0 55 -25.5 95t-63.5 67t-82 43t-83 27q-59 18 -133.5 43.5t-139 72t-108.5 116t-44 173.5q0 92 35.5 166t96 126t139.5 80t163 28q80 0 150.5 -25t129 -70t101.5 -108.5 t67 -143.5l-174 -71q-35 123 -110.5 178t-167.5 55q-55 0 -100.5 -17.5t-77 -46t-50 -68.5t-18.5 -83q0 -55 26.5 -93t67.5 -63.5t90 -42t96 -28.5q76 -23 149 -54.5t128 -79.5t89 -116t34 -160q0 -98 -38 -172.5t-99.5 -124t-140.5 -75t-161 -25.5q-68 0 -134 18.5 t-126.5 58.5t-107.5 105.5t-74 159.5zM365 1681l434 281l82 -131l-437 -272z" />
<glyph unicode="&#x15b;" horiz-adv-x="956" d="M72 215l145 92q20 -47 50 -79.5t65 -52t73.5 -28t79.5 -8.5q94 0 159 39t65 107q0 37 -20.5 61.5t-53.5 40.5t-76 26.5t-86 20.5q-63 14 -131 33.5t-124 52.5t-92 85t-36 130q0 66 27.5 123t80 99t125 67t164.5 25q133 0 235.5 -54.5t162.5 -167.5l-146 -92 q-35 70 -101.5 110t-158.5 40q-100 0 -156.5 -43t-56.5 -103q0 -33 17.5 -54t49.5 -36.5t75 -27t94 -23.5q82 -18 151.5 -42t120.5 -58.5t80 -83.5t29 -121q0 -74 -31 -132.5t-84 -100.5t-126 -63.5t-159 -21.5q-133 0 -243.5 56.5t-167.5 183.5zM264 1313l434 280l82 -131 l-436 -272z" />
<glyph unicode="&#x15c;" horiz-adv-x="1165" d="M133 342l162 86q35 -123 107.5 -183.5t175.5 -60.5q51 0 97 14.5t79.5 42t54 67.5t20.5 89q0 55 -25.5 95t-63.5 67t-82 43t-83 27q-59 18 -133.5 43.5t-139 72t-108.5 116t-44 173.5q0 92 35.5 166t96 126t139.5 80t163 28q80 0 150.5 -25t129 -70t101.5 -108.5 t67 -143.5l-174 -71q-35 123 -110.5 178t-167.5 55q-55 0 -100.5 -17.5t-77 -46t-50 -68.5t-18.5 -83q0 -55 26.5 -93t67.5 -63.5t90 -42t96 -28.5q76 -23 149 -54.5t128 -79.5t89 -116t34 -160q0 -98 -38 -172.5t-99.5 -124t-140.5 -75t-161 -25.5q-68 0 -134 18.5 t-126.5 58.5t-107.5 105.5t-74 159.5zM250 1653l360 309l361 -309l-97 -107l-264 230l-264 -230z" />
<glyph unicode="&#x15d;" horiz-adv-x="956" d="M72 215l145 92q20 -47 50 -79.5t65 -52t73.5 -28t79.5 -8.5q94 0 159 39t65 107q0 37 -20.5 61.5t-53.5 40.5t-76 26.5t-86 20.5q-63 14 -131 33.5t-124 52.5t-92 85t-36 130q0 66 27.5 123t80 99t125 67t164.5 25q133 0 235.5 -54.5t162.5 -167.5l-146 -92 q-35 70 -101.5 110t-158.5 40q-100 0 -156.5 -43t-56.5 -103q0 -33 17.5 -54t49.5 -36.5t75 -27t94 -23.5q82 -18 151.5 -42t120.5 -58.5t80 -83.5t29 -121q0 -74 -31 -132.5t-84 -100.5t-126 -63.5t-159 -21.5q-133 0 -243.5 56.5t-167.5 183.5zM139 1284l361 309l360 -309 l-96 -106l-264 229l-264 -229z" />
<glyph unicode="&#x15e;" horiz-adv-x="1165" d="M133 342l162 86q35 -123 107.5 -183.5t175.5 -60.5q51 0 97 14.5t79.5 42t54 67.5t20.5 89q0 55 -25.5 95t-63.5 67t-82 43t-83 27q-59 18 -133.5 43.5t-139 72t-108.5 116t-44 173.5q0 92 35.5 166t96 126t139.5 80t163 28q80 0 150.5 -25t129 -70t101.5 -108.5 t67 -143.5l-174 -71q-35 123 -110.5 178t-167.5 55q-55 0 -100.5 -17.5t-77 -46t-50 -68.5t-18.5 -83q0 -55 26.5 -93t67.5 -63.5t90 -42t96 -28.5q76 -23 149 -54.5t128 -79.5t89 -116t34 -160q0 -80 -25.5 -144.5t-70 -112.5t-102.5 -80.5t-124 -47.5q41 -51 56.5 -94 t15.5 -84q0 -88 -53.5 -132t-124.5 -44q-23 0 -50.5 5t-54.5 15v119q23 -6 42.5 -10t35.5 -4q29 0 47.5 15.5t18.5 54.5q0 29 -13.5 64.5t-48.5 82.5q-66 2 -131 20.5t-123.5 59.5t-103.5 105.5t-72 156.5z" />
<glyph unicode="&#x15f;" horiz-adv-x="956" d="M72 215l145 92q20 -47 50 -79.5t65 -52t73.5 -28t79.5 -8.5q94 0 159 39t65 107q0 37 -20.5 61.5t-53.5 40.5t-76 26.5t-86 20.5q-63 14 -131 33.5t-124 52.5t-92 85t-36 130q0 66 27.5 123t80 99t125 67t164.5 25q133 0 235.5 -54.5t162.5 -167.5l-146 -92 q-35 70 -101.5 110t-158.5 40q-100 0 -156.5 -43t-56.5 -103q0 -33 17.5 -54t49.5 -36.5t75 -27t94 -23.5q82 -18 151.5 -42t120.5 -58.5t80 -83.5t29 -121q0 -119 -74 -197t-195 -106q31 -43 43.5 -81t12.5 -75q0 -88 -53.5 -132t-124.5 -44q-23 0 -50.5 5t-54.5 15v119 q23 -6 42.5 -10t35.5 -4q29 0 47 15.5t18 54.5q0 25 -10 55.5t-35 66.5h-2q-133 0 -243.5 56.5t-167.5 183.5z" />
<glyph unicode="&#x160;" horiz-adv-x="1165" d="M133 342l162 86q35 -123 107.5 -183.5t175.5 -60.5q51 0 97 14.5t79.5 42t54 67.5t20.5 89q0 55 -25.5 95t-63.5 67t-82 43t-83 27q-59 18 -133.5 43.5t-139 72t-108.5 116t-44 173.5q0 92 35.5 166t96 126t139.5 80t163 28q80 0 150.5 -25t129 -70t101.5 -108.5 t67 -143.5l-174 -71q-35 123 -110.5 178t-167.5 55q-55 0 -100.5 -17.5t-77 -46t-50 -68.5t-18.5 -83q0 -55 26.5 -93t67.5 -63.5t90 -42t96 -28.5q76 -23 149 -54.5t128 -79.5t89 -116t34 -160q0 -98 -38 -172.5t-99.5 -124t-140.5 -75t-161 -25.5q-68 0 -134 18.5 t-126.5 58.5t-107.5 105.5t-74 159.5zM250 1855l96 107l264 -229l264 229l97 -107l-361 -309z" />
<glyph unicode="&#x161;" horiz-adv-x="956" d="M72 215l145 92q20 -47 50 -79.5t65 -52t73.5 -28t79.5 -8.5q94 0 159 39t65 107q0 37 -20.5 61.5t-53.5 40.5t-76 26.5t-86 20.5q-63 14 -131 33.5t-124 52.5t-92 85t-36 130q0 66 27.5 123t80 99t125 67t164.5 25q133 0 235.5 -54.5t162.5 -167.5l-146 -92 q-35 70 -101.5 110t-158.5 40q-100 0 -156.5 -43t-56.5 -103q0 -33 17.5 -54t49.5 -36.5t75 -27t94 -23.5q82 -18 151.5 -42t120.5 -58.5t80 -83.5t29 -121q0 -74 -31 -132.5t-84 -100.5t-126 -63.5t-159 -21.5q-133 0 -243.5 56.5t-167.5 183.5zM117 1487l96 106l264 -229 l264 229l97 -106l-361 -309z" />
<glyph unicode="&#x162;" horiz-adv-x="1333" d="M10 1249v185h1313v-185h-565v-1249h-185v1249h-563zM522 -248q0 55 40 100.5t102 45.5q66 0 105.5 -45.5t39.5 -100.5q0 -18 -6 -35.5t-17 -33.5l-165 -297l-95 53l101 176q-47 16 -76 55t-29 82z" />
<glyph unicode="&#x163;" horiz-adv-x="772" d="M31 870v154h202v291h177v-291h280v-154h-280v-594q0 -59 25.5 -91.5t90.5 -32.5q49 0 91 4t83 8v-154q-45 -10 -90 -15t-94 -5q-141 0 -212 66.5t-71 230.5v583h-202zM315 -248q0 55 40 100.5t102 45.5q66 0 105.5 -45.5t39.5 -100.5q0 -18 -6 -35.5t-16 -33.5l-166 -297 l-95 53l101 176q-47 16 -76 55t-29 82z" />
<glyph unicode="&#x164;" horiz-adv-x="1333" d="M10 1249v185h1313v-185h-565v-1249h-185v1249h-563zM305 1855l96 107l265 -229l264 229l96 -107l-360 -309z" />
<glyph unicode="&#x165;" horiz-adv-x="1112" d="M31 870v154h202v291h177v-291h280v-154h-280v-594q0 -59 25.5 -91.5t90.5 -32.5q49 0 91 4t83 8v-154q-45 -10 -90 -15t-94 -5q-141 0 -212 66.5t-71 230.5v583h-202zM784 1315q0 55 40 100t102 45q66 0 105.5 -45t39.5 -100q0 -18 -6 -35.5t-16 -34.5l-166 -297l-95 53 l101 177q-47 16 -76 55t-29 82z" />
<glyph unicode="&#x166;" horiz-adv-x="1333" d="M10 1249v185h1313v-185h-565v-389h256v-184h-256v-676h-185v676h-256v184h256v389h-563z" />
<glyph unicode="&#x167;" horiz-adv-x="772" d="M31 870v154h202v291h177v-291h280v-154h-280v-102h202v-158h-202v-334q0 -59 25.5 -91.5t90.5 -32.5q49 0 91 4t83 8v-154q-45 -10 -90 -15t-94 -5q-141 0 -212 66.5t-71 230.5v323h-137v158h137v102h-202z" />
<glyph unicode="&#x168;" horiz-adv-x="1597" d="M143 655v779h185v-779q0 -100 35.5 -186t99 -149.5t149.5 -99.5t187 -36q100 0 186 36t149.5 99.5t99.5 149.5t36 186v779h184v-779q0 -139 -50 -259t-138 -208t-208 -138t-259 -50t-259 50t-208 138t-138.5 208t-50.5 259zM467 1690q20 25 46 50t53.5 44.5t57 33 t60.5 13.5q37 0 70.5 -15.5t63.5 -33t55.5 -32.5t48.5 -15q29 0 57.5 24.5t56.5 55.5l99 -95q-20 -25 -46 -50t-53.5 -44.5t-57.5 -33t-60 -13.5q-37 0 -71 15.5t-63.5 33t-55.5 32.5t-48 15q-29 0 -57.5 -24.5t-57.5 -55.5z" />
<glyph unicode="&#x169;" horiz-adv-x="1167" d="M143 418v606h181v-606q0 -61 10 -112.5t35.5 -88.5t68.5 -57.5t111 -20.5q78 0 140.5 31t98.5 90q37 59 48.5 138t11.5 149v477h176v-1024h-170v147q-59 -86 -139 -129t-197 -43q-104 0 -176 34t-116 92.5t-63.5 139.5t-19.5 177zM250 1321q20 25 46 50.5t53.5 45 t57 32.5t60.5 13q37 0 70.5 -15t63.5 -32.5t55.5 -33t48.5 -15.5q29 0 57.5 24.5t56.5 55.5l99 -94q-20 -25 -46 -50.5t-53.5 -45t-57.5 -33t-61 -13.5q-37 0 -70.5 15.5t-63 33t-55.5 33t-48 15.5q-29 0 -57.5 -25t-57.5 -55z" />
<glyph unicode="&#x16a;" horiz-adv-x="1597" d="M143 655v779h185v-779q0 -100 35.5 -186t99 -149.5t149.5 -99.5t187 -36q100 0 186 36t149.5 99.5t99.5 149.5t36 186v779h184v-779q0 -139 -50 -259t-138 -208t-208 -138t-259 -50t-259 50t-208 138t-138.5 208t-50.5 259zM492 1622v154h614v-154h-614z" />
<glyph unicode="&#x16b;" horiz-adv-x="1167" d="M143 418v606h181v-606q0 -61 10 -112.5t35.5 -88.5t68.5 -57.5t111 -20.5q78 0 140.5 31t98.5 90q37 59 48.5 138t11.5 149v477h176v-1024h-170v147q-59 -86 -139 -129t-197 -43q-104 0 -176 34t-116 92.5t-63.5 139.5t-19.5 177zM276 1253v154h615v-154h-615z" />
<glyph unicode="&#x16c;" horiz-adv-x="1597" d="M143 655v779h185v-779q0 -100 35.5 -186t99 -149.5t149.5 -99.5t187 -36q100 0 186 36t149.5 99.5t99.5 149.5t36 186v779h184v-779q0 -139 -50 -259t-138 -208t-208 -138t-259 -50t-259 50t-208 138t-138.5 208t-50.5 259zM508 1866h149q0 -82 37 -124t105 -42t104.5 42 t36.5 124h150q0 -141 -77 -227.5t-214 -86.5t-214 86t-77 228z" />
<glyph unicode="&#x16d;" horiz-adv-x="1167" d="M143 418v606h181v-606q0 -61 10 -112.5t35.5 -88.5t68.5 -57.5t111 -20.5q78 0 140.5 31t98.5 90q37 59 48.5 138t11.5 149v477h176v-1024h-170v147q-59 -86 -139 -129t-197 -43q-104 0 -176 34t-116 92.5t-63.5 139.5t-19.5 177zM293 1497h149q0 -82 37 -124t105 -42 t104.5 42t36.5 124h149q0 -141 -76.5 -227t-213.5 -86t-214 86t-77 227z" />
<glyph unicode="&#x16e;" horiz-adv-x="1597" d="M143 655v779h185v-779q0 -100 35.5 -186t99 -149.5t149.5 -99.5t187 -36q100 0 186 36t149.5 99.5t99.5 149.5t36 186v779h184v-779q0 -139 -50 -259t-138 -208t-208 -138t-259 -50t-259 50t-208 138t-138.5 208t-50.5 259zM573 1767q0 98 63.5 163t162.5 65 q98 0 161.5 -64.5t63.5 -163.5q0 -98 -63.5 -161.5t-161.5 -63.5t-162 63.5t-64 161.5zM690 1767q0 -49 30 -80.5t79 -31.5t78.5 31.5t29.5 80.5t-29.5 81t-78.5 32t-79 -31.5t-30 -81.5z" />
<glyph unicode="&#x16f;" horiz-adv-x="1167" d="M143 418v606h181v-606q0 -61 10 -112.5t35.5 -88.5t68.5 -57.5t111 -20.5q78 0 140.5 31t98.5 90q37 59 48.5 138t11.5 149v477h176v-1024h-170v147q-59 -86 -139 -129t-197 -43q-104 0 -176 34t-116 92.5t-63.5 139.5t-19.5 177zM358 1399q0 98 63.5 162.5t162.5 64.5 q98 0 161.5 -64.5t63.5 -162.5t-63.5 -161.5t-161.5 -63.5t-162 63t-64 162zM475 1399q0 -49 30 -81t79 -32t78.5 32t29.5 81t-29.5 80.5t-78.5 31.5t-79 -31.5t-30 -80.5z" />
<glyph unicode="&#x170;" horiz-adv-x="1597" d="M143 655v779h185v-779q0 -100 35.5 -186t99 -149.5t149.5 -99.5t187 -36q100 0 186 36t149.5 99.5t99.5 149.5t36 186v779h184v-779q0 -139 -50 -259t-138 -208t-208 -138t-259 -50t-259 50t-208 138t-138.5 208t-50.5 259zM473 1624l227 338l125 -84l-231 -334z M786 1604l228 338l125 -84l-232 -334z" />
<glyph unicode="&#x171;" horiz-adv-x="1167" d="M143 418v606h181v-606q0 -61 10 -112.5t35.5 -88.5t68.5 -57.5t111 -20.5q78 0 140.5 31t98.5 90q37 59 48.5 138t11.5 149v477h176v-1024h-170v147q-59 -86 -139 -129t-197 -43q-104 0 -176 34t-116 92.5t-63.5 139.5t-19.5 177zM250 1255l227 338l125 -84l-231 -333z M563 1235l228 338l124 -84l-231 -334z" />
<glyph unicode="&#x172;" horiz-adv-x="1597" d="M143 655v779h185v-779q0 -100 35.5 -186t99 -149.5t149.5 -99.5t187 -36q100 0 186 36t149.5 99.5t99.5 149.5t36 186v779h184v-779q0 -127 -42 -238.5t-116.5 -196.5t-177 -141t-225.5 -73q-37 -47 -51.5 -86t-14.5 -67q0 -39 17.5 -54.5t46.5 -15.5q16 0 35.5 4 t42.5 10v-119q-27 -10 -54.5 -15t-50.5 -5q-72 0 -125 44t-53 132q0 41 13.5 81t50.5 87q-129 8 -241 61.5t-192.5 140.5t-127 202.5t-46.5 248.5z" />
<glyph unicode="&#x173;" horiz-adv-x="1167" d="M143 418v606h181v-606q0 -61 10 -112.5t35.5 -88.5t68.5 -57.5t111 -20.5q78 0 140.5 31t98.5 90q37 59 48.5 138t11.5 149v477h176v-963h39q-10 -12 -20.5 -23t-18.5 -22v-16h-14q-35 -47 -48.5 -83t-13.5 -64q0 -39 17.5 -54.5t46.5 -15.5q16 0 35.5 4t42.5 10v-119 q-27 -10 -54.5 -15t-50.5 -5q-72 0 -125 44t-53 132q0 39 13.5 79t47.5 87h-14v147q-59 -86 -139 -129t-197 -43q-104 0 -176 34t-116 92.5t-63.5 139.5t-19.5 177z" />
<glyph unicode="&#x174;" horiz-adv-x="2498" d="M20 1434h199l445 -1119l497 1119h176l498 -1119l444 1119h199l-569 -1434h-135l-525 1176l-524 -1176h-135zM889 1653l360 309l361 -309l-97 -107l-264 230l-264 -230z" />
<glyph unicode="&#x175;" horiz-adv-x="1773" d="M20 1024h191l297 -760l315 760h125l316 -760l299 760h190l-422 -1024h-135l-309 735l-312 -735h-135zM526 1284l361 309l360 -309l-96 -106l-264 229l-264 -229z" />
<glyph unicode="&#x176;" horiz-adv-x="1355" d="M10 1434h226l442 -639l442 639h226l-576 -830v-604h-184v604zM317 1653l361 309l360 -309l-96 -107l-264 230l-264 -230z" />
<glyph unicode="&#x177;" horiz-adv-x="1075" d="M20 1024h213l326 -680l320 680h186l-662 -1434h-190l252 549zM176 1284l361 309l360 -309l-96 -106l-264 229l-265 -229z" />
<glyph unicode="&#x178;" horiz-adv-x="1355" d="M10 1434h226l442 -639l442 639h226l-576 -830v-604h-184v604zM301 1690q0 59 40 99t99 40t99.5 -40t40.5 -99t-40 -99.5t-100 -40.5q-59 0 -99 40.5t-40 99.5zM776 1690q0 59 40 99t99 40t99.5 -40t40.5 -99t-40 -99.5t-100 -40.5q-59 0 -99 40.5t-40 99.5z" />
<glyph unicode="&#x179;" horiz-adv-x="1355" d="M102 0v141l877 1108h-877v185h1151v-142l-876 -1108h876v-184h-1151zM459 1681l434 281l82 -131l-436 -272z" />
<glyph unicode="&#x17a;" horiz-adv-x="929" d="M61 0v158l570 702h-553v164h770v-158l-569 -702h589v-164h-807zM248 1313l434 280l82 -131l-436 -272z" />
<glyph unicode="&#x17b;" horiz-adv-x="1355" d="M102 0v141l877 1108h-877v185h1151v-142l-876 -1108h876v-184h-1151zM565 1690q0 59 40 99t100 40q59 0 99 -40t40 -99t-40 -99.5t-99 -40.5t-99.5 40.5t-40.5 99.5z" />
<glyph unicode="&#x17c;" horiz-adv-x="929" d="M61 0v158l570 702h-553v164h770v-158l-569 -702h589v-164h-807zM336 1321q0 59 40 99t99 40t99 -40t40 -99t-39.5 -99t-99.5 -40q-59 0 -99 40t-40 99z" />
<glyph unicode="&#x17d;" horiz-adv-x="1355" d="M102 0v141l877 1108h-877v185h1151v-142l-876 -1108h876v-184h-1151zM344 1855l96 107l265 -229l264 229l96 -107l-360 -309z" />
<glyph unicode="&#x17e;" horiz-adv-x="929" d="M61 0v158l570 702h-553v164h770v-158l-569 -702h589v-164h-807zM125 1487l96 106l264 -229l265 229l96 -106l-361 -309z" />
<glyph unicode="&#x17f;" horiz-adv-x="737" d="M31 870v154h188v57q0 201 89 286t241 85q29 0 73 -4t85 -10v-160q-43 6 -74 8t-62 2q-90 0 -133 -43t-43 -164v-1081h-176v870h-188z" />
<glyph unicode="&#x192;" horiz-adv-x="737" d="M-23 -246q41 -4 59.5 -5t47.5 -1q68 0 101.5 39t33.5 147v936h-188v154h188v57q0 201 89 286t241 85q29 0 73 -4t85 -10v-160q-43 6 -74 8t-62 2q-90 0 -133 -43t-43 -164v-57h297v-154h-297v-936q0 -96 -20.5 -162.5t-58 -107.5t-91 -60.5t-119.5 -19.5q-29 0 -60.5 3 t-68.5 7v160z" />
<glyph unicode="&#x1fa;" horiz-adv-x="1568" d="M20 0l668 1434h193l667 -1434h-202l-115 252h-893l-115 -252h-203zM426 436h717l-359 774zM539 2161l434 280l82 -131l-437 -272zM559 1767q0 98 63.5 163t161.5 65t162 -64.5t64 -163.5q0 -98 -64 -161.5t-162 -63.5t-161.5 63.5t-63.5 161.5zM676 1767 q0 -49 29.5 -80.5t78.5 -31.5t79 31.5t30 80.5t-29.5 81t-79.5 32q-49 0 -78.5 -31.5t-29.5 -81.5z" />
<glyph unicode="&#x1fb;" horiz-adv-x="1085" d="M92 293q0 74 24.5 130t67.5 96t99.5 63.5t119.5 29.5l297 29q35 4 55.5 24.5t20.5 51.5v22q0 66 -59.5 109t-163.5 43q-111 0 -179.5 -45t-84.5 -141l-160 86q29 113 126 185.5t282 72.5q215 0 315 -101.5t100 -281.5v-666h-176v145q-49 -76 -136 -120.5t-194 -44.5 q-86 0 -152.5 24.5t-110.5 66.5t-67.5 99t-23.5 123zM272 293q0 -66 48.5 -107t152.5 -41q63 0 118.5 24t96.5 62.5t64.5 86t23.5 96.5v75l-342 -40q-90 -10 -126 -54.5t-36 -101.5zM285 1800l434 281l82 -131l-436 -273zM317 1399q0 98 63.5 162.5t162.5 64.5 q98 0 161.5 -64.5t63.5 -162.5t-63.5 -161.5t-161.5 -63.5t-162 63t-64 162zM434 1399q0 -49 30 -81t79 -32t78.5 32t29.5 81t-29.5 80.5t-78.5 31.5t-79 -31.5t-30 -80.5z" />
<glyph unicode="&#x1fc;" horiz-adv-x="2033" d="M10 0l1039 1434h872v-185h-696v-440h696v-184h-696v-441h696v-184h-883v252h-612l-178 -252h-238zM561 436h479v664zM1276 1681l434 281l82 -131l-436 -272z" />
<glyph unicode="&#x1fd;" horiz-adv-x="1771" d="M92 295q0 74 26.5 130t70.5 96t100.5 61.5t116.5 27.5l294 29q35 4 55.5 25.5t20.5 50.5v24q0 70 -58.5 111t-166.5 41q-111 0 -179.5 -46t-84.5 -143l-160 86q14 57 45 104.5t80 82.5t118.5 54.5t161.5 19.5q131 0 222.5 -44t134.5 -120q55 74 145 119t209 45 q111 0 199 -41t149.5 -114t95 -171t33.5 -211v-53h-784q2 -76 26.5 -135.5t65.5 -100.5t95.5 -62.5t119.5 -21.5q111 0 186.5 47t133.5 119l94 -143q-35 -41 -75 -75t-89 -58.5t-110.5 -39t-139.5 -14.5q-129 0 -229.5 56.5t-163.5 156.5q-27 -37 -58.5 -73.5t-76.5 -66.5 t-108.5 -49t-153.5 -19q-82 0 -148.5 23.5t-114 65.5t-73 100t-25.5 126zM272 295q0 -68 54.5 -109t156.5 -41q63 0 116.5 22.5t92.5 59.5t61.5 85t22.5 102v73l-340 -38q-86 -10 -125 -55.5t-39 -98.5zM645 1313l434 280l82 -131l-436 -272zM950 600h580q-10 129 -84 207 t-203 78t-201.5 -78t-91.5 -207z" />
<glyph unicode="&#x1fe;" horiz-adv-x="1634" d="M102 717q0 154 54.5 285t150.5 227t226.5 150.5t283.5 54.5q117 0 221.5 -32t190.5 -91l131 155l108 -94l-131 -153q92 -96 143.5 -224.5t51.5 -277.5q0 -154 -54.5 -285t-149.5 -227t-226 -150.5t-285 -54.5q-117 0 -220 30.5t-189 90.5l-132 -154l-110 92l131 154 q-92 96 -143.5 224t-51.5 280zM287 717q0 -109 34.5 -200t96.5 -161l690 813q-127 80 -291 80q-115 0 -212 -40t-167.5 -111.5t-110.5 -168.5t-40 -212zM528 264q127 -80 289 -80q115 0 212 40t168 112t111 169t40 212q0 106 -35 197.5t-96 160.5zM571 1681l435 281l81 -131 l-436 -272z" />
<glyph unicode="&#x1ff;" horiz-adv-x="1196" d="M61 514q0 111 42 209t115 171t171 115t209 42q80 0 153.5 -22.5t137.5 -63.5l78 92l108 -94l-78 -93q66 -72 102 -162t36 -194q0 -111 -42 -209t-115 -171t-171 -115t-209 -42q-80 0 -153.5 21.5t-135.5 62.5l-80 -94l-110 92l80 95q-66 72 -102 164t-36 196zM244 514 q0 -131 69 -225l463 545q-39 23 -84 35t-94 12q-78 0 -142.5 -29t-111.5 -78t-73.5 -116.5t-26.5 -143.5zM340 1313l434 280l82 -131l-436 -272zM420 193q80 -46 178 -46q76 0 141.5 29t112.5 78t73.5 115.5t26.5 144.5q0 63 -18.5 118.5t-50.5 102.5z" />
<glyph unicode="&#x218;" horiz-adv-x="1165" d="M133 342l162 86q35 -123 107.5 -183.5t175.5 -60.5q51 0 97 14.5t79.5 42t54 67.5t20.5 89q0 55 -25.5 95t-63.5 67t-82 43t-83 27q-59 18 -133.5 43.5t-139 72t-108.5 116t-44 173.5q0 92 35.5 166t96 126t139.5 80t163 28q80 0 150.5 -25t129 -70t101.5 -108.5 t67 -143.5l-174 -71q-35 123 -110.5 178t-167.5 55q-55 0 -100.5 -17.5t-77 -46t-50 -68.5t-18.5 -83q0 -55 26.5 -93t67.5 -63.5t90 -42t96 -28.5q76 -23 149 -54.5t128 -79.5t89 -116t34 -160q0 -98 -38 -172.5t-99.5 -124t-140.5 -75t-161 -25.5q-68 0 -134 18.5 t-126.5 58.5t-107.5 105.5t-74 159.5zM420 -248q0 55 40 100.5t101 45.5q66 0 106 -45.5t40 -100.5q0 -18 -6.5 -35.5t-16.5 -33.5l-166 -297l-94 53l100 176q-47 16 -75.5 55t-28.5 82z" />
<glyph unicode="&#x219;" horiz-adv-x="956" d="M72 215l145 92q20 -47 50 -79.5t65 -52t73.5 -28t79.5 -8.5q94 0 159 39t65 107q0 37 -20.5 61.5t-53.5 40.5t-76 26.5t-86 20.5q-63 14 -131 33.5t-124 52.5t-92 85t-36 130q0 66 27.5 123t80 99t125 67t164.5 25q133 0 235.5 -54.5t162.5 -167.5l-146 -92 q-35 70 -101.5 110t-158.5 40q-100 0 -156.5 -43t-56.5 -103q0 -33 17.5 -54t49.5 -36.5t75 -27t94 -23.5q82 -18 151.5 -42t120.5 -58.5t80 -83.5t29 -121q0 -74 -31 -132.5t-84 -100.5t-126 -63.5t-159 -21.5q-133 0 -243.5 56.5t-167.5 183.5zM334 -248q0 55 40 100.5 t101 45.5q66 0 106 -45.5t40 -100.5q0 -18 -6.5 -35.5t-16.5 -33.5l-166 -297l-94 53l100 176q-47 16 -75.5 55t-28.5 82z" />
<glyph unicode="&#x21a;" horiz-adv-x="1333" d="M10 1249v185h1313v-185h-565v-1235q41 -51 57 -95t16 -85q0 -88 -53 -132t-125 -44q-23 0 -50.5 5t-53.5 15v119q23 -6 42 -10t36 -4q29 0 47 15.5t18 54.5q0 29 -13 64.5t-48 82.5h-58v1249h-563z" />
<glyph unicode="&#x21b;" horiz-adv-x="772" d="M31 870v154h202v291h177v-291h280v-154h-280v-594q0 -59 25.5 -91.5t90.5 -32.5q49 0 91 4t83 8v-154q-45 -10 -90 -15t-94 -5q-141 0 -212 66.5t-71 230.5v583h-202zM287 -248q0 55 40 100.5t101 45.5q66 0 105.5 -45.5t39.5 -100.5q0 -18 -6 -35.5t-16 -33.5l-166 -297 l-94 53l100 176q-47 16 -75.5 55t-28.5 82z" />
<glyph unicode="&#x2bc;" horiz-adv-x="438" d="M61 911l140 246q-51 16 -82 58t-31 90q0 29 11.5 57.5t32 50t49 34.5t61.5 13q76 0 115.5 -48t39.5 -107q0 -20 -7 -39t-17 -37l-209 -375z" />
<glyph unicode="&#x2c6;" horiz-adv-x="761" d="M20 1284l361 309l360 -309l-96 -106l-264 229l-264 -229z" />
<glyph unicode="&#x2c7;" horiz-adv-x="761" d="M20 1487l97 106l264 -229l264 229l96 -106l-360 -309z" />
<glyph unicode="&#x2d8;" horiz-adv-x="622" d="M20 1497h150q0 -82 37 -124t104 -42q68 0 105 42t37 124h149q0 -141 -77 -227t-214 -86t-214 86t-77 227z" />
<glyph unicode="&#x2d9;" horiz-adv-x="319" d="M20 1321q0 59 40 99t100 40q59 0 99 -40t40 -99t-40 -99t-99 -40t-99.5 40t-40.5 99z" />
<glyph unicode="&#x2da;" horiz-adv-x="491" d="M20 1399q0 98 63.5 162.5t162.5 64.5q98 0 161.5 -64.5t63.5 -162.5t-63.5 -161.5t-161.5 -63.5t-162 63t-64 162zM137 1399q0 -49 30 -81t79 -32t78.5 32t29.5 81t-29.5 80.5t-78.5 31.5t-79 -31.5t-30 -80.5z" />
<glyph unicode="&#x2db;" horiz-adv-x="323" d="M20 -166q0 51 25 104.5t90 122.5h141q-66 -70 -90 -121t-24 -87q0 -39 17.5 -54.5t45.5 -15.5q16 0 36 4t42 10v-119q-27 -10 -54.5 -15t-49.5 -5q-72 0 -125.5 44t-53.5 132z" />
<glyph unicode="&#x2dc;" horiz-adv-x="708" d="M20 1321q20 25 46 50.5t53.5 45t57.5 32.5t61 13q37 0 70.5 -15t63 -32.5t55 -33t48.5 -15.5q29 0 57.5 24.5t57.5 55.5l98 -94q-20 -25 -46 -50.5t-53.5 -45t-57 -33t-60.5 -13.5q-37 0 -70.5 15.5t-63.5 33t-55.5 33t-48.5 15.5q-29 0 -57.5 -25t-56.5 -55z" />
<glyph unicode="&#x2dd;" horiz-adv-x="706" d="M20 1255l228 338l125 -84l-232 -333zM334 1235l227 338l125 -84l-231 -334z" />
<glyph unicode="&#x394;" d="M33 0l633 1526h102l633 -1526h-1368zM293 133h852l-426 1059z" />
<glyph unicode="&#x3a9;" horiz-adv-x="1515" d="M41 745q0 158 54.5 289t150.5 225.5t227 146.5t285 52t285 -52t227 -146.5t150.5 -225.5t54.5 -289q0 -102 -24 -188t-63.5 -157.5t-94 -130t-115.5 -105.5h268v-164h-586v164q88 47 164 104.5t133 128t90 157.5t33 191q0 115 -39 212.5t-108.5 168t-165.5 109.5t-209 39 t-209 -39t-166 -109.5t-108.5 -168t-38.5 -212.5q0 -104 32.5 -191t89 -157.5t133 -128t164.5 -104.5v-164h-585v164h266q-61 47 -115.5 105.5t-94.5 130t-62.5 157.5t-22.5 188z" />
<glyph unicode="&#x3bc;" d="M276 -410v1434h181v-606q0 -61 10 -112.5t35.5 -88.5t68.5 -57.5t111 -20.5q78 0 140.5 31t99.5 90t48 138t11 149v477h176v-1024h-170v147q-59 -86 -139 -129t-197 -43q-121 0 -200 45v-430h-175z" />
<glyph unicode="&#x3c0;" d="M150 811v152q39 20 111.5 40.5t174.5 20.5h846v-184h-182v-840h-180v840h-306l-178 -840h-188l178 840q-106 0 -172 -9.5t-104 -19.5z" />
<glyph unicode="&#x1e80;" horiz-adv-x="2498" d="M20 1434h199l445 -1119l497 1119h176l498 -1119l444 1119h199l-569 -1434h-135l-525 1176l-524 -1176h-135zM997 1831l82 131l434 -281l-79 -122z" />
<glyph unicode="&#x1e81;" horiz-adv-x="1773" d="M20 1024h191l297 -760l315 760h125l316 -760l299 760h190l-422 -1024h-135l-309 735l-312 -735h-135zM629 1462l82 131l434 -280l-80 -123z" />
<glyph unicode="&#x1e82;" horiz-adv-x="2498" d="M20 1434h199l445 -1119l497 1119h176l498 -1119l444 1119h199l-569 -1434h-135l-525 1176l-524 -1176h-135zM1004 1681l434 281l82 -131l-437 -272z" />
<glyph unicode="&#x1e83;" horiz-adv-x="1773" d="M20 1024h191l297 -760l315 760h125l316 -760l299 760h190l-422 -1024h-135l-309 735l-312 -735h-135zM629 1313l434 280l82 -131l-436 -272z" />
<glyph unicode="&#x1e84;" horiz-adv-x="2498" d="M20 1434h199l445 -1119l497 1119h176l498 -1119l444 1119h199l-569 -1434h-135l-525 1176l-524 -1176h-135zM872 1690q0 59 40 99t100 40q59 0 99 -40t40 -99t-40 -99.5t-99 -40.5t-99.5 40.5t-40.5 99.5zM1348 1690q0 59 39.5 99t99.5 40q59 0 99 -40t40 -99t-40 -99.5 t-99 -40.5t-99 40.5t-40 99.5z" />
<glyph unicode="&#x1e85;" horiz-adv-x="1773" d="M20 1024h191l297 -760l315 760h125l316 -760l299 760h190l-422 -1024h-135l-309 735l-312 -735h-135zM510 1321q0 59 40 99t99 40t99 -40t40 -99t-39.5 -99t-99.5 -40q-59 0 -99 40t-40 99zM985 1321q0 59 40 99t99 40t99.5 -40t40.5 -99t-40 -99t-100 -40q-59 0 -99 40 t-40 99z" />
<glyph unicode="&#x1ef2;" horiz-adv-x="1355" d="M10 1434h226l442 -639l442 639h226l-576 -830v-604h-184v604zM426 1831l82 131l434 -281l-80 -122z" />
<glyph unicode="&#x1ef3;" horiz-adv-x="1075" d="M20 1024h213l326 -680l320 680h186l-662 -1434h-190l252 549zM279 1462l81 131l435 -280l-80 -123z" />
<glyph unicode="&#x2013;" horiz-adv-x="1900" d="M143 541v184h1614v-184h-1614z" />
<glyph unicode="&#x2014;" horiz-adv-x="2822" d="M143 541v184h2536v-184h-2536z" />
<glyph unicode="&#x2018;" horiz-adv-x="438" d="M61 1010q0 20 7.5 38.5t17.5 36.5l209 375l102 -57l-139 -246q51 -16 82 -58t31 -89q0 -29 -11.5 -57.5t-32 -50t-49 -35t-61.5 -13.5q-76 0 -116 48t-40 108z" />
<glyph unicode="&#x2019;" horiz-adv-x="438" d="M61 911l140 246q-51 16 -82 58t-31 90q0 29 11.5 57.5t32 50t49 34.5t61.5 13q76 0 115.5 -48t39.5 -107q0 -20 -7 -39t-17 -37l-209 -375z" />
<glyph unicode="&#x201a;" horiz-adv-x="602" d="M143 -246l140 246q-51 16 -82 58t-31 89q0 29 11.5 57.5t31.5 50t49 35t62 13.5q29 0 57.5 -13.5t50 -35t34.5 -50t13 -57.5q0 -20 -7 -38.5t-17 -36.5l-209 -375z" />
<glyph unicode="&#x201c;" horiz-adv-x="1032" d="M143 1010q0 20 7.5 38.5t17.5 36.5l209 375l102 -57l-139 -246q51 -16 82 -58t31 -89q0 -29 -11.5 -57.5t-32 -50t-49 -35t-61.5 -13.5q-29 0 -57.5 13.5t-50 35t-35 50t-13.5 57.5zM573 1010q0 20 7.5 38.5t17.5 36.5l209 375l102 -57l-139 -246q51 -16 82 -58t31 -89 q0 -29 -11.5 -57.5t-32 -50t-49 -35t-61.5 -13.5q-29 0 -57.5 13.5t-50 35t-35 50t-13.5 57.5z" />
<glyph unicode="&#x201d;" horiz-adv-x="1032" d="M123 911l139 246q-51 16 -81.5 58t-30.5 90q0 29 11 57.5t31.5 50t49 34.5t61.5 13q29 0 57.5 -13t50 -34.5t35 -50.5t13.5 -57q0 -20 -7.5 -39t-17.5 -37l-209 -375zM553 911l139 246q-51 16 -81.5 58t-30.5 90q0 29 11 57.5t31.5 50t49 34.5t61.5 13q29 0 57.5 -13 t50 -34.5t35 -50.5t13.5 -57q0 -20 -7.5 -39t-17.5 -37l-209 -375z" />
<glyph unicode="&#x201e;" horiz-adv-x="1032" d="M143 -246l140 246q-51 16 -82 58t-31 89q0 29 11.5 57.5t31.5 50t49 35t62 13.5q29 0 57.5 -13.5t50 -35t34.5 -50t13 -57.5q0 -20 -7 -38.5t-17 -36.5l-209 -375zM573 -246l140 246q-51 16 -82 58t-31 89q0 29 11.5 57.5t32 50t49 35t61.5 13.5q29 0 57.5 -13.5t50 -35 t34.5 -50t13 -57.5q0 -20 -7 -38.5t-17 -36.5l-209 -375z" />
<glyph unicode="&#x2020;" horiz-adv-x="997" d="M31 860v164h389v494h158v-494h389v-164h-389v-1053h-158v1053h-389z" />
<glyph unicode="&#x2021;" horiz-adv-x="997" d="M31 301v164h389v457h-389v163h389v433h158v-433h389v-163h-389v-457h389v-164h-389v-494h-158v494h-389z" />
<glyph unicode="&#x2022;" horiz-adv-x="892" d="M193 655q0 111 71.5 182.5t181.5 71.5q111 0 182.5 -71.5t71.5 -182.5t-71.5 -182.5t-182.5 -71.5t-182 71.5t-71 182.5z" />
<glyph unicode="&#x2026;" horiz-adv-x="1984" d="M205 160q0 68 46 115t114 47t114.5 -47.5t46.5 -114.5q0 -68 -47 -114t-114 -46q-68 0 -114 46t-46 114zM831 160q0 68 46.5 115t113.5 47q68 0 115 -47.5t47 -114.5q0 -68 -47 -114t-115 -46t-114 46t-46 114zM1458 160q0 68 46 115t114 47t115 -47.5t47 -114.5 q0 -68 -47 -114t-115 -46t-114 46t-46 114z" />
<glyph unicode="&#x2030;" horiz-adv-x="2240" d="M72 1143q0 66 24.5 123t67.5 100t100.5 68.5t122.5 25.5q66 0 123 -25.5t100 -68.5t69 -100.5t26 -122.5q0 -66 -26 -123t-69 -100t-100 -68t-123 -25t-123 25t-100 68t-67.5 100t-24.5 123zM150 84l1071 1350l102 -82l-1071 -1352zM207 1143q0 -76 52 -128t128 -52 t128 52t52 128t-52 128t-128 52t-128 -52t-52 -128zM764 289q0 66 24.5 123t67.5 100t100.5 68.5t122.5 25.5q66 0 123.5 -25.5t100.5 -68.5t68.5 -100.5t25.5 -122.5q0 -66 -25.5 -123t-68.5 -100t-100.5 -68t-123.5 -25t-123 25t-100 68t-67.5 100t-24.5 123zM899 289 q0 -76 52.5 -128t127.5 -52q76 0 128.5 52t52.5 128t-52.5 128t-128.5 52t-128 -52t-52 -128zM1536 289q0 66 24.5 123t67.5 100t100.5 68.5t122.5 25.5q66 0 123.5 -25.5t100.5 -68.5t68.5 -100.5t25.5 -122.5q0 -66 -25.5 -123t-68.5 -100t-100.5 -68t-123.5 -25t-123 25 t-100 68t-67.5 100t-24.5 123zM1671 289q0 -76 52.5 -128t127.5 -52q76 0 128.5 52t52.5 128t-52.5 128t-128.5 52t-128 -52t-52 -128z" />
<glyph unicode="&#x2039;" horiz-adv-x="761" d="M82 512l379 430l117 -106l-293 -324l293 -326l-117 -104z" />
<glyph unicode="&#x203a;" horiz-adv-x="761" d="M184 186l293 326l-293 324l117 106l379 -430l-379 -430z" />
<glyph unicode="&#x2044;" horiz-adv-x="272" d="M-451 84l1072 1350l102 -82l-1071 -1352z" />
<glyph unicode="&#x20ac;" horiz-adv-x="1462" d="M102 496l66 143h127q-2 18 -3 37.5t-1 40.5v32.5t2 32.5h-170l65 144h129q29 113 88.5 207t141.5 161.5t184.5 104.5t216.5 37q127 0 237.5 -40t215.5 -124l-78 -174q-76 74 -173 113.5t-202 39.5q-164 0 -278.5 -88t-163.5 -237h741l-65 -144h-705q-2 -16 -2 -32.5 v-32.5v-40t4 -38h633l-65 -143h-535q51 -141 163.5 -226.5t272.5 -85.5q104 0 232 64l30 -189q-68 -27 -134 -43t-128 -16q-115 0 -215 36t-182 101.5t-141.5 156.5t-90.5 202h-217z" />
<glyph unicode="&#x2113;" horiz-adv-x="985" d="M33 401q43 35 89 74t93 82v563q0 127 23.5 214t63.5 140.5t93.5 76t110.5 22.5q123 0 188.5 -86t65.5 -225q0 -98 -31 -197.5t-84 -198t-123.5 -190.5t-152.5 -174v-127q0 -111 41 -177.5t129 -66.5q39 0 67.5 13.5t53 38t44 58t39.5 72.5l119 -73q-59 -117 -136 -191 t-196 -74q-68 0 -125 24t-99 69t-66.5 110.5t-24.5 149.5v39q-27 -20 -52.5 -40t-51.5 -38zM369 723q100 123 167.5 260t67.5 279q0 168 -100 168q-59 0 -97 -68t-38 -229v-410z" />
<glyph unicode="&#x2116;" horiz-adv-x="2889" d="M164 0v1434h170l930 -1129v1129h184v-1434h-176l-924 1120v-1120h-184zM1651 838q0 98 36.5 185t101 151.5t152 101.5t185.5 37t185 -37t151.5 -101.5t101.5 -151.5t37 -185t-37 -184.5t-101.5 -151t-151.5 -101t-185 -36.5t-185.5 36.5t-152 101t-101 150.5t-36.5 185z M1704 0v164h846v-164h-846zM1827 838q0 -66 22.5 -122.5t62.5 -97t94 -65.5t120 -25t120 25t94 65.5t62.5 97t22.5 122.5t-22.5 122t-62.5 98t-94.5 66.5t-119.5 24.5q-66 0 -120 -24.5t-94 -66.5t-62.5 -98.5t-22.5 -121.5z" />
<glyph unicode="&#x2122;" horiz-adv-x="1968" d="M61 1290v144h734v-144h-295v-653h-144v653h-295zM883 637v797h137l346 -605l340 605h139v-797h-143v498l-283 -498h-110l-283 498v-498h-143z" />
<glyph unicode="&#x2126;" horiz-adv-x="1515" d="M41 745q0 158 54.5 289t150.5 225.5t227 146.5t285 52t285 -52t227 -146.5t150.5 -225.5t54.5 -289q0 -102 -24 -188t-63.5 -157.5t-94 -130t-115.5 -105.5h268v-164h-586v164q88 47 164 104.5t133 128t90 157.5t33 191q0 115 -39 212.5t-108.5 168t-165.5 109.5t-209 39 t-209 -39t-166 -109.5t-108.5 -168t-38.5 -212.5q0 -104 32.5 -191t89 -157.5t133 -128t164.5 -104.5v-164h-585v164h266q-61 47 -115.5 105.5t-94.5 130t-62.5 157.5t-22.5 188z" />
<glyph unicode="&#x212e;" horiz-adv-x="1572" d="M72 621q0 135 56 252.5t153.5 204.5t228.5 138.5t281 51.5t280.5 -51.5t229 -138.5t154.5 -204.5t56 -252.5v-19h-1175v-287q0 -41 11 -71.5t27.5 -53t35 -38t32.5 -25.5q76 -47 166 -69.5t187 -22.5q139 0 261 50t206 140h100q-98 -115 -246.5 -183.5t-324.5 -68.5 q-150 0 -281 51.5t-228.5 138.5t-153.5 204.5t-56 253.5zM336 659h911v291q0 68 -31.5 102.5t-58.5 53.5q-76 53 -168 77.5t-194 24.5q-98 0 -187.5 -23.5t-165.5 -70.5q-14 -10 -32.5 -23.5t-35 -32t-27.5 -42t-11 -53.5v-304z" />
<glyph unicode="&#x2190;" horiz-adv-x="1921" d="M205 723l669 580l111 -121l-424 -373h1155v-172h-1155l424 -373l-111 -121z" />
<glyph unicode="&#x2191;" horiz-adv-x="1568" d="M205 801l579 669l580 -669l-121 -111l-373 424v-1114h-172v1114l-372 -424z" />
<glyph unicode="&#x2192;" horiz-adv-x="1921" d="M205 637v172h1155l-424 373l111 121l669 -580l-669 -580l-111 121l424 373h-1155z" />
<glyph unicode="&#x2193;" horiz-adv-x="1568" d="M205 627l121 110l372 -424v1114h172v-1114l373 424l121 -110l-580 -670z" />
<glyph unicode="&#x2196;" horiz-adv-x="1540" d="M205 1260l882 -64l-6 -164l-563 37l817 -817l-123 -123l-817 817l37 -563l-164 -6z" />
<glyph unicode="&#x2197;" horiz-adv-x="1540" d="M205 252l817 817l-563 -37l-6 164l882 64l-63 -883l-164 6l37 563l-817 -817z" />
<glyph unicode="&#x2198;" horiz-adv-x="1540" d="M205 1159l123 123l817 -817l-37 563l164 6l63 -882l-882 63l6 164l563 -37z" />
<glyph unicode="&#x2199;" horiz-adv-x="1540" d="M205 152l63 882l164 -6l-37 -563l817 817l123 -123l-817 -817l563 37l6 -164z" />
<glyph unicode="&#x2202;" d="M225 444q0 106 38 195.5t102.5 154t148.5 100.5t176 36q117 0 199 -43t129 -86v18q0 113 -30 205t-81 158.5t-121.5 102.5t-150.5 36q-86 0 -164 -35t-129 -69l-84 155q63 47 163.5 85t221.5 38q117 0 219.5 -44t179 -136t121.5 -232.5t45 -330.5q0 -162 -34.5 -303.5 t-103.5 -247t-170 -166t-232 -60.5q-111 0 -194 38t-138 102.5t-83 149.5t-28 179zM416 438q0 -127 71.5 -207.5t186.5 -80.5q70 0 127 33.5t99 92t68.5 137.5t37.5 167q-16 29 -47 59.5t-71 57t-86 43t-93 16.5q-61 0 -115.5 -25.5t-93.5 -69t-61.5 -100.5t-22.5 -123z" />
<glyph unicode="&#x2206;" d="M33 0l633 1526h102l633 -1526h-1368zM293 133h852l-426 1059z" />
<glyph unicode="&#x220f;" d="M57 1286v174h1317v-174h-227v-1468h-184v1468h-494v-1468h-184v1468h-228z" />
<glyph unicode="&#x2211;" d="M217 -82l504 717l-479 682v117h944v-181h-664l428 -618l-456 -660h720v-180h-997v123z" />
<glyph unicode="&#x2212;" d="M248 559v184h938v-184h-938z" />
<glyph unicode="&#x221a;" d="M145 930l312 131l360 -899l322 1722l149 -18l-377 -1981h-147l-406 981l-155 -67z" />
<glyph unicode="&#x221e;" horiz-adv-x="1515" d="M47 612q0 74 27.5 135.5t75 105.5t110 69.5t131.5 25.5q57 0 108.5 -17.5t96.5 -48t85 -70.5t77 -83q37 43 76.5 83t85 70.5t95.5 48t109 17.5q70 0 132.5 -25.5t109.5 -69.5t74.5 -105.5t27.5 -135.5q0 -72 -27.5 -133t-74.5 -106t-109.5 -69.5t-132.5 -24.5 q-59 0 -109 17t-95.5 48t-85 70t-76.5 82q-37 -43 -77 -82t-85 -70t-96 -48t-109 -17q-70 0 -132 24.5t-109.5 69.5t-75 106.5t-27.5 132.5zM203 612q0 -86 56 -140t132 -54q39 0 75 15.5t68.5 42t64.5 62t65 74.5q-66 80 -130.5 138.5t-142.5 58.5q-37 0 -71.5 -14.5 t-60.5 -41t-41 -62.5t-15 -79zM852 612q63 -78 128.5 -136t143.5 -58q76 0 132.5 54t56.5 140q0 43 -15.5 79t-41 62.5t-60.5 41t-72 14.5q-78 0 -142 -58.5t-130 -138.5z" />
<glyph unicode="&#x222b;" d="M430 -223q35 -6 58.5 -9.5t56.5 -3.5q80 0 80 93v1644q0 127 63.5 190.5t153.5 63.5q39 0 80 -5t82 -15v-172q-35 6 -58.5 9t-56.5 3q-80 0 -80 -92v-1645q0 -63 -17.5 -111.5t-47 -80t-68.5 -47t-84 -15.5q-39 0 -80 5t-82 16v172z" />
<glyph unicode="&#x2248;" d="M166 397q66 66 148.5 114t174.5 48q70 0 130.5 -24.5t116 -55t106.5 -55.5t102 -25q57 0 114.5 35t110.5 84l99 -141q-35 -33 -72 -63.5t-78 -55.5t-85 -39t-89 -14q-72 0 -134 25.5t-117.5 55t-104.5 55.5t-99 26q-59 0 -116.5 -36t-110.5 -85zM166 834 q66 66 148.5 113.5t174.5 47.5q70 0 130.5 -24.5t116 -55t106.5 -55t102 -24.5q57 0 114.5 34.5t110.5 83.5l99 -141q-35 -33 -72 -63.5t-78 -55t-85 -39t-89 -14.5q-72 0 -134 25.5t-117.5 55.5t-104.5 55.5t-99 25.5q-59 0 -116.5 -36t-110.5 -85z" />
<glyph unicode="&#x2260;" d="M219 283v184h342l135 256h-477v184h576l120 226l138 -72l-82 -154h243v-184h-342l-137 -256h479v-184h-577l-121 -226l-137 68l84 158h-244z" />
<glyph unicode="&#x2264;" d="M233 760v143l889 283l49 -170l-612 -185l612 -184l-49 -170zM248 193v180h938v-180h-938z" />
<glyph unicode="&#x2265;" d="M238 193v180h938v-180h-938zM252 647l612 184l-612 185l49 170l889 -283v-143l-889 -283z" />
<glyph unicode="&#x25ca;" d="M221 678l424 864h143l424 -864l-424 -862h-143zM395 678l322 -680l321 680l-321 682z" />
<glyph unicode="&#xe000;" horiz-adv-x="1024" d="M0 0v1024h1024v-1024h-1024z" />
<glyph unicode="&#xf8ff;" horiz-adv-x="1812" d="M143 1391q0 33 21.5 53t54.5 20q31 0 53.5 -20.5t22.5 -52.5q0 -20 -9.5 -40t-27.5 -30v-49q37 14 82 29.5t93 27.5t95 20.5t90 8.5q39 0 77 -10.5t69 -31t49 -53t18 -75.5v-51q35 8 92.5 16t116.5 8q51 0 101.5 -7t90.5 -26.5t65.5 -52.5t25.5 -84v-98q37 10 77 17.5 t81 7.5q127 0 178 -46.5t51 -115.5v-492q-63 39 -119.5 52.5t-109.5 13.5q-59 0 -117.5 -20.5t-124.5 -20.5q-98 0 -98 94v176q-47 10 -101 10q-72 0 -144.5 -18.5t-150.5 -18.5q-47 0 -72.5 26t-25.5 69v139h-29q-43 0 -91 -9t-97 -22.5t-94 -30t-78 -28.5v-676h-80v1323 q-35 23 -35 68zM258 737q92 35 183 60.5t177 25.5q35 0 77 -6t77 -22v393q0 31 -14.5 52.5t-36 34.5t-49 19t-54.5 6q-41 0 -88 -9t-96 -22.5t-94 -29.5t-82 -31v-471zM352 1194h70l94 -131l92 131h70l-131 -195v-139h-62v139zM700 623q0 -33 45 -33q72 0 144.5 17.5 t150.5 17.5q61 0 121 -13.5t105 -38.5v404q0 16 -4.5 37.5t-26 42t-67.5 34t-130 13.5q-82 0 -207 -25v-350q0 -25 -20 -38t-45 -21t-45.5 -18.5t-20.5 -28.5zM705 694q18 10 41.5 15.5t23.5 17.5q0 10 -18.5 19.5t-46.5 13.5v-66zM860 854q0 72 45 118t117 46q74 0 120 -46 t46 -118t-46 -119t-120 -47q-72 0 -117 47t-45 119zM918 854q0 -47 29.5 -76.5t74.5 -29.5q47 0 77.5 29.5t30.5 76.5t-30.5 75.5t-77.5 28.5q-45 0 -74.5 -28.5t-29.5 -75.5zM1196 377q0 -33 43 -33q59 0 119.5 21.5t124.5 21.5q47 0 90 -8t82 -23v398q0 63 -48 83.5 t-126 20.5q-59 0 -158 -24v-342q0 -29 -19.5 -42.5t-44 -22.5t-44 -19.5t-19.5 -30.5zM1196 451q23 16 46.5 22.5t23.5 20.5q0 23 -20.5 33t-49.5 20v-96zM1415 479q0 39 41 39q39 0 39 -39q0 -41 -39 -41q-41 0 -41 41zM1425 565v205h60v-205h-60z" />
<glyph unicode="&#xfb00;" horiz-adv-x="1390" d="M31 870v154h188v57q0 201 89 286t241 85q29 0 73 -4t85 -10v-160q-43 6 -74 8t-62 2q-90 0 -133 -43t-43 -164v-57h477v57q0 201 89.5 286t240.5 85q29 0 73 -4t85 -10v-160q-43 6 -74 8t-61 2q-90 0 -133 -43t-43 -164v-57h297v-154h-297v-870h-177v870h-477v-870h-176 v870h-188z" />
<glyph unicode="&#xfb01;" horiz-adv-x="1247" d="M31 870v154h188v57q0 201 89 286t241 85q29 0 73 -4t85 -10v-160q-43 6 -74 8t-62 2q-90 0 -133 -43t-43 -164v-57h678v-1024h-176v870h-502v-870h-176v870h-188zM846 1321q0 59 40 99t99 40t99 -40t40 -99t-40 -99t-99 -40t-99 40t-40 99z" />
<glyph unicode="&#xfb02;" horiz-adv-x="1189" d="M31 870v154h188v57q0 201 89 286t241 85q29 0 73 -4t85 -10v-160q-43 6 -74 8t-62 2q-90 0 -133 -43t-43 -164v-57h297v-154h-297v-870h-176v870h-188zM866 0v1434h181v-1434h-181z" />
<glyph unicode="&#xfb03;" horiz-adv-x="1900" d="M31 870v154h188v57q0 201 89 286t241 85q29 0 73 -4t85 -10v-160q-43 6 -74 8t-62 2q-90 0 -133 -43t-43 -164v-57h477v57q0 201 89.5 286t240.5 85q29 0 73 -4t85 -10v-160q-43 6 -74 8t-61 2q-90 0 -133 -43t-43 -164v-57h677v-1024h-176v870h-501v-870h-177v870h-477 v-870h-176v870h-188zM1499 1321q0 59 40 99t99 40t99.5 -40t40.5 -99t-40 -99t-100 -40q-59 0 -99 40t-40 99z" />
<glyph unicode="&#xfb04;" horiz-adv-x="1828" d="M31 870v154h188v57q0 201 89 286t241 85q29 0 73 -4t85 -10v-160q-43 6 -74 8t-62 2q-90 0 -133 -43t-43 -164v-57h477v57q0 201 89.5 286t240.5 85q29 0 73 -4t85 -10v-160q-43 6 -74 8t-61 2q-90 0 -133 -43t-43 -164v-57h297v-154h-297v-870h-177v870h-477v-870h-176 v870h-188zM1505 0v1434h181v-1434h-181z" />
<glyph horiz-adv-x="327" d="M20 -248q0 55 40 100.5t102 45.5q66 0 105.5 -45.5t39.5 -100.5q0 -18 -6 -35.5t-16 -33.5l-166 -297l-94 53l100 176q-47 16 -76 55t-29 82z" />
<glyph horiz-adv-x="350" d="M33 1235q0 18 6 35.5t16 34.5l166 297l94 -54l-100 -176q47 -16 75.5 -55t28.5 -82q0 -55 -39.5 -100t-101.5 -45q-66 0 -105.5 45t-39.5 100z" />
</font>
</defs>
</svg>
