<?xml version="1.0" standalone="no"?>
<!DOCTYPE svg PUBLIC "-//W3C//DTD SVG 1.1//EN" "http://www.w3.org/Graphics/SVG/1.1/DTD/svg11.dtd" >
<svg xmlns="http://www.w3.org/2000/svg">
<metadata></metadata>
<defs>
<font id="gt_haptikmedium" horiz-adv-x="1433" >
<font-face units-per-em="2048" ascent="1638" descent="-410" />
<missing-glyph horiz-adv-x="593" />
<glyph unicode=" "  horiz-adv-x="593" />
<glyph unicode="&#x09;" horiz-adv-x="593" />
<glyph unicode="&#xa0;" horiz-adv-x="593" />
<glyph unicode="!" horiz-adv-x="708" d="M184 143q0 72 49.5 121t120.5 49q72 0 121 -49t49 -121t-49 -120t-121 -48t-121 48t-49 120zM238 424v1010h233v-1010h-233z" />
<glyph unicode="&#x22;" horiz-adv-x="757" d="M143 862v549h195v-549h-195zM418 862v549h196v-549h-196z" />
<glyph unicode="#" horiz-adv-x="1183" d="M61 428l19 184h209l33 228h-209l28 184h203l59 410h189l-55 -410h192l57 410h191l-55 -410h200l-18 -184h-211l-33 -228h209l-27 -184h-206l-62 -428h-186l61 428h-196l-60 -428h-190l61 428h-203zM477 612h195l30 228h-190z" />
<glyph unicode="$" horiz-adv-x="1198" d="M133 371l207 110q16 -100 65.5 -157.5t114.5 -79.5v374q-66 20 -130 48t-116.5 73t-85 114t-32.5 173q0 82 27.5 150.5t76.5 121t115.5 85t144.5 44.5v140h164v-140q135 -23 238.5 -119t142.5 -251l-219 -90q-18 88 -62.5 141t-99.5 76v-377q63 -20 126.5 -48t115 -72 t82 -111.5t30.5 -169.5q0 -90 -27.5 -160t-75.5 -119t-112.5 -80t-138.5 -41v-162h-164v162q-63 8 -125.5 32.5t-115 70t-90 110t-56.5 152.5zM389 1026q0 -66 36 -102.5t95 -61.5v328q-68 -20 -99.5 -65.5t-31.5 -98.5zM684 244q121 37 121 162q0 59 -34 95t-87 60v-317z " />
<glyph unicode="%" horiz-adv-x="1697" d="M72 1092q0 70 26.5 132t72.5 109t108.5 74t132.5 27t132 -27t108 -74t73 -109t27 -132q0 -72 -27 -133.5t-73 -107.5t-108.5 -72.5t-131.5 -26.5q-70 0 -132.5 26.5t-108.5 72.5t-72.5 107.5t-26.5 133.5zM242 106l1101 1328l134 -107l-1102 -1327zM254 1092 q0 -33 12.5 -63t34 -51.5t50 -33.5t61.5 -12q66 0 112.5 47t46.5 113t-47 112.5t-112 46.5q-33 0 -61.5 -12t-50 -33.5t-34 -51.5t-12.5 -62zM946 338q0 70 26.5 132t73 109.5t107.5 74t133 26.5q70 0 132.5 -26.5t108.5 -74t72.5 -109.5t26.5 -132t-26.5 -131.5 t-72.5 -107.5t-108.5 -72.5t-132.5 -26.5q-72 0 -133 26.5t-107.5 72.5t-73 107.5t-26.5 131.5zM1126 338q0 -33 12.5 -61.5t34 -50t51 -34t62.5 -12.5q66 0 112 46t46 112q0 33 -12.5 62.5t-34 51t-50 34t-61.5 12.5q-66 0 -113 -47t-47 -113z" />
<glyph unicode="&#x26;" horiz-adv-x="1396" d="M154 391q0 76 22.5 137.5t59 110.5t84 89t98.5 75l-33 39q-53 59 -90 124.5t-37 168.5q0 63 24.5 121.5t70.5 103.5t110.5 71.5t144.5 26.5t145.5 -26.5t110.5 -71.5t69.5 -104.5t24.5 -122.5t-17 -115.5t-48 -98t-71 -83t-85 -70.5l221 -248q12 45 20.5 91t14.5 87 l203 -37q-12 -90 -31.5 -169.5t-48.5 -151.5l178 -201l-161 -147l-136 153q-72 -80 -171 -124t-230 -44q-109 0 -190.5 34t-138 91.5t-85 132t-28.5 158.5zM387 391q0 -37 14.5 -71.5t42 -62.5t68.5 -45t94 -17q86 0 146.5 29.5t101.5 80.5l-295 336q-72 -53 -123 -112.5 t-49 -137.5zM487 1126q0 -41 18.5 -78.5t47.5 -70.5l47 -53q55 41 92 89t37 111q0 53 -36 86t-87 33q-47 0 -83 -34.5t-36 -82.5z" />
<glyph unicode="'" horiz-adv-x="481" d="M143 862v549h195v-549h-195z" />
<glyph unicode="(" horiz-adv-x="696" d="M82 635q0 274 102.5 521t290.5 439l150 -135q-160 -178 -243 -376.5t-83 -448.5t83 -448.5t243 -379.5l-150 -135q-188 193 -290.5 441t-102.5 522z" />
<glyph unicode=")" horiz-adv-x="696" d="M72 -193q160 180 242.5 379t82.5 449t-83 448.5t-242 376.5l149 135q188 -193 290.5 -439.5t102.5 -520.5t-102 -522t-291 -441z" />
<glyph unicode="*" horiz-adv-x="724" d="M0 1108l61 172l211 -72v226h179v-224l213 70l61 -172l-219 -70l131 -178l-137 -108l-138 184l-137 -184l-139 108l131 180z" />
<glyph unicode="+" d="M190 535v233h410v410h234v-410h409v-233h-409v-410h-234v410h-410z" />
<glyph unicode="," horiz-adv-x="673" d="M41 -348l387 702l184 -104l-387 -699z" />
<glyph unicode="-" horiz-adv-x="1284" d="M164 512v233h956v-233h-956z" />
<glyph unicode="." horiz-adv-x="768" d="M205 178q0 76 51 128t127 52q78 0 129 -52t51 -128t-51 -127t-129 -51q-76 0 -127 51t-51 127z" />
<glyph unicode="/" horiz-adv-x="1513" d="M123 150l1087 1284l181 -150l-1088 -1284z" />
<glyph unicode="0" horiz-adv-x="1574" d="M123 717q0 158 52 289t142.5 226t211 148.5t259.5 53.5t260 -53.5t211.5 -148.5t141.5 -226.5t51 -288.5q0 -158 -51 -289t-141.5 -226.5t-211 -148.5t-260.5 -53q-139 0 -259.5 53t-211 148.5t-142.5 226.5t-52 289zM356 717q0 -109 33 -197t90.5 -152.5t137 -99.5 t171.5 -35t171 35t137.5 99.5t91.5 152.5t33 197q0 106 -33 195t-91.5 153.5t-137 99.5t-171.5 35q-92 0 -171.5 -35t-137 -99.5t-90.5 -153.5t-33 -195zM614 717q0 72 51.5 123t122.5 51q72 0 123.5 -51t51.5 -123t-51.5 -122t-123.5 -50t-123 50t-51 122z" />
<glyph unicode="1" horiz-adv-x="978" d="M82 954l483 480h209v-1434h-233v1083l-295 -295z" />
<glyph unicode="2" horiz-adv-x="1273" d="M143 1128q33 61 79 116.5t106.5 97.5t134.5 67t160 25q96 0 178 -32t141 -89.5t93 -138t34 -177.5q0 -109 -39 -192.5t-104 -153.5l-383 -418h512v-233h-873v193l578 620q35 35 55.5 80t20.5 100q0 49 -17.5 87t-46.5 64.5t-66.5 41t-80.5 14.5q-100 0 -178 -63.5 t-121 -165.5z" />
<glyph unicode="3" horiz-adv-x="1187" d="M143 317l207 158q31 -111 92.5 -176.5t155.5 -65.5q80 0 136.5 49.5t56.5 135.5q0 88 -57.5 137t-149.5 49h-80v234h80q90 0 148.5 46t58.5 134q0 86 -54.5 134t-134.5 48q-84 0 -154.5 -55t-107.5 -170l-188 158q25 59 64.5 113t96 96t127 67t154.5 25q92 0 171 -31 t136 -85t90 -129t33 -161q0 -106 -42 -182t-93 -123q66 -53 100.5 -131t34.5 -180q0 -96 -30.5 -172t-86 -129.5t-133.5 -82t-172 -28.5q-172 0 -288.5 88t-170.5 229z" />
<glyph unicode="4" horiz-adv-x="1423" d="M61 279v202l805 953h191v-922h284v-233h-284v-279h-234v279h-762zM395 512h428v510z" />
<glyph unicode="5" horiz-adv-x="1230" d="M143 154l119 206q78 -66 158 -96.5t151 -30.5q53 0 100.5 16.5t83.5 48.5t57.5 80t21.5 114q0 117 -71 183t-200 66q-72 0 -160 -21.5t-172 -62.5v777h836v-234h-602v-235q23 4 51.5 7t67.5 3q109 0 197.5 -36t152 -101.5t98.5 -155.5t35 -197q0 -121 -42 -212 t-112.5 -151.5t-163 -91t-190.5 -30.5q-119 0 -225.5 41t-190.5 113z" />
<glyph unicode="6" horiz-adv-x="1228" d="M143 629q0 211 42 360.5t108 239.5q68 94 165 149.5t232 55.5q121 0 202 -38t146 -89l-127 -191q-47 35 -101 59.5t-120 24.5q-119 0 -196 -90q-35 -43 -56.5 -98.5t-29.5 -108.5q57 29 114.5 42t104.5 13q106 0 194 -33.5t151.5 -96t98.5 -150.5t35 -195 q0 -104 -36 -193t-100.5 -153.5t-151.5 -100.5t-191 -36q-129 0 -226.5 53t-160.5 148q-55 78 -76 190.5t-21 237.5zM383 481q0 -61 19.5 -107t53 -77t78 -47.5t93.5 -16.5q111 0 178 69t67 179q0 113 -64.5 178.5t-180.5 65.5q-53 0 -97.5 -17.5t-77 -50t-51 -77 t-18.5 -99.5z" />
<glyph unicode="7" horiz-adv-x="1130" d="M82 1200v234h967v-201l-635 -1233h-262l616 1200h-686z" />
<glyph unicode="8" horiz-adv-x="1167" d="M143 416q0 100 36 173t106 130q-70 57 -106 129t-36 172q0 96 33 173t91.5 130t139 82t177.5 29q96 0 177 -29t139 -82t91 -130t33 -173q0 -100 -36 -172t-105 -129q70 -57 105.5 -130t35.5 -173q0 -96 -33 -174t-91 -131.5t-139 -82t-177 -28.5t-177 28.5t-139.5 82 t-91.5 131.5t-33 174zM377 416q0 -84 57.5 -133.5t149.5 -49.5t149.5 49.5t57.5 133.5q0 90 -60.5 138t-146.5 48t-146.5 -48t-60.5 -138zM377 1020q0 -90 60.5 -137t146.5 -47t146.5 47t60.5 137q0 84 -57.5 132t-149.5 48t-149.5 -48t-57.5 -132z" />
<glyph unicode="9" horiz-adv-x="1218" d="M123 950q0 104 37 192.5t101.5 153t152.5 101.5t190 37q129 0 224.5 -53.5t160.5 -145.5q53 -80 74.5 -192.5t21.5 -237.5q0 -213 -36.5 -367.5t-102.5 -244.5q-66 -92 -164 -142.5t-233 -50.5q-59 0 -108.5 6t-92.5 19.5t-84 32t-84 42.5l96 213q74 -41 140.5 -60.5 t132.5 -19.5q61 0 110.5 18.5t90.5 65.5q37 45 53 100.5t20 114.5q-57 -33 -113.5 -45t-105.5 -12q-106 0 -194 34t-151.5 96.5t-99.5 150.5t-36 194zM356 952q0 -113 65.5 -178t182.5 -65q106 0 176 66t70 177q0 61 -20.5 107.5t-54.5 77t-78 47t-93 16.5 q-111 0 -179.5 -68.5t-68.5 -179.5z" />
<glyph unicode=":" horiz-adv-x="686" d="M164 178q0 76 51 128t127 52t128 -52t52 -128t-52 -127t-128 -51t-127 51t-51 127zM164 868q0 76 51 128.5t127 52.5t128 -52.5t52 -128.5t-52 -127t-128 -51t-127 51t-51 127z" />
<glyph unicode=";" horiz-adv-x="847" d="M61 -348l388 702l184 -104l-387 -699zM326 868q0 76 51 128.5t127 52.5t128 -52.5t52 -128.5t-52 -127t-128 -51t-127 51t-51 127z" />
<glyph unicode="&#x3c;" d="M242 526v193l868 383l82 -191l-651 -288l651 -289l-82 -191z" />
<glyph unicode="=" d="M217 287v219h997v-219h-997zM217 694v219h997v-219h-997z" />
<glyph unicode="&#x3e;" d="M242 334l651 289l-651 288l82 191l868 -383v-193l-868 -383z" />
<glyph unicode="?" horiz-adv-x="1134" d="M102 954q0 109 31 197t88.5 151.5t139 97.5t186.5 34q94 0 173 -28t134 -79t86 -126t31 -169q0 -76 -22.5 -130t-56.5 -98t-74 -79t-73.5 -72t-56 -77.5t-22.5 -96.5v-55h-230v55q0 82 22.5 141.5t55.5 103.5t73 78t72.5 67.5t55 72.5t22.5 90q0 66 -46 117t-144 51 q-104 0 -157.5 -59.5t-53.5 -186.5h-234zM381 143q0 72 49 121t121 49t121 -49t49 -121t-49 -120t-121 -48t-121 48t-49 120z" />
<glyph unicode="@" horiz-adv-x="1914" d="M164 625q0 180 63.5 333.5t174 264t260 173t323.5 62.5t318.5 -52t249 -148.5t162 -232.5t57.5 -304q0 -246 -98.5 -389.5t-276.5 -143.5q-150 0 -213 109q-47 -53 -110.5 -82t-149.5 -29q-72 0 -127.5 21.5t-93 58.5t-58 88.5t-20.5 110.5q0 102 65.5 167.5t196.5 80.5 l229 24q4 0 6 7.5t2 11.5q0 47 -33.5 81.5t-111.5 34.5q-53 0 -103.5 -29.5t-78.5 -94.5l-174 86q43 106 130 169.5t216 63.5q96 0 165.5 -24.5t113.5 -68.5t64.5 -104.5t20.5 -134.5v-254q0 -47 19.5 -71.5t52.5 -24.5q31 0 58.5 17.5t48 57.5t31.5 103.5t11 153.5 q0 119 -40.5 217t-114.5 167.5t-179.5 107.5t-234.5 38q-133 0 -243.5 -45t-190.5 -128t-125 -197.5t-45 -251.5t43 -254t122 -203t186.5 -134t236.5 -48q141 0 257.5 30.5t207.5 71.5l39 -207q-111 -45 -229 -74.5t-275 -29.5q-174 0 -321.5 65.5t-255 180t-168 269 t-60.5 333.5zM831 465q0 -31 26 -55.5t81 -24.5q43 0 77 14.5t58.5 38t37.5 53t13 60.5v18l-215 -26q-41 -4 -59.5 -26.5t-18.5 -51.5z" />
<glyph unicode="A" horiz-adv-x="1601" d="M20 0l668 1434h225l668 -1434h-260l-111 242h-821l-110 -242h-259zM500 475h602l-301 647z" />
<glyph unicode="B" horiz-adv-x="1261" d="M164 0v1434h606q84 0 159 -30t130 -84t88 -130t33 -168t-41 -172t-107 -133q66 -53 107 -132t41 -173q0 -92 -33 -168t-88 -130.5t-130 -84t-159 -29.5h-606zM397 233h373q78 0 127 48.5t49 130.5t-47 135t-119 53h-383v-367zM397 834h383q72 0 119 53t47 135t-49 130 t-127 48h-373v-366z" />
<glyph unicode="C" horiz-adv-x="1363" d="M102 717q0 154 54.5 285t150.5 227t227.5 150.5t284.5 54.5q154 0 282 -57.5t232 -162.5l-108 -223q-78 98 -182.5 153.5t-223.5 55.5q-106 0 -195 -35t-152.5 -98t-99.5 -152.5t-36 -197.5q0 -109 36 -198t99.5 -152.5t152.5 -98.5t195 -35q53 0 122 16.5t142 57.5 l41 -239q-80 -37 -156.5 -52.5t-148.5 -15.5q-154 0 -285 54.5t-227 150.5t-150.5 227t-54.5 285z" />
<glyph unicode="D" horiz-adv-x="1482" d="M164 0v1434h502q152 0 282.5 -54.5t227 -149.5t150.5 -226.5t54 -286.5q0 -156 -54 -287t-150.5 -226t-227.5 -149.5t-282 -54.5h-502zM397 233h269q104 0 192 36t152.5 100.5t100.5 152.5t36 195q0 106 -36 194t-100.5 152.5t-152.5 100.5t-192 36h-269v-967z" />
<glyph unicode="E" horiz-adv-x="1179" d="M164 0v1434h903v-234h-670v-366h670v-234h-670v-367h670v-233h-903z" />
<glyph unicode="F" horiz-adv-x="1148" d="M164 0v1434h903v-234h-670v-366h670v-234h-670v-600h-233z" />
<glyph unicode="G" horiz-adv-x="1363" d="M102 717q0 154 54.5 285t150.5 227t227.5 150.5t284.5 54.5q154 0 282 -57.5t232 -162.5l-108 -223q-78 98 -182.5 153.5t-223.5 55.5q-106 0 -195 -35t-152.5 -98t-99.5 -152.5t-36 -197.5q0 -109 36 -198t99.5 -152.5t152.5 -98.5t195 -35q20 0 42 3.5t46 7.5v305h-317 v233h551v-708q-82 -35 -169 -54.5t-153 -19.5q-154 0 -285 54.5t-227 150.5t-150.5 227t-54.5 285z" />
<glyph unicode="H" horiz-adv-x="1523" d="M164 0v1434h233v-600h729v600h234v-1434h-234v600h-729v-600h-233z" />
<glyph unicode="I" horiz-adv-x="561" d="M164 0v1434h233v-1434h-233z" />
<glyph unicode="J" horiz-adv-x="1021" d="M31 453l209 102q0 -70 11 -128t36.5 -101t65.5 -68t96 -25q92 0 144 68t52 162v971h234v-971q0 -102 -30 -187.5t-85 -146.5t-135 -95t-180 -34q-117 0 -197 42t-129 107.5t-70.5 145.5t-21.5 158z" />
<glyph unicode="K" horiz-adv-x="1376" d="M164 0v1434h233v-648l641 648h328l-627 -633l615 -801h-293l-486 633l-178 -178v-455h-233z" />
<glyph unicode="L" horiz-adv-x="1110" d="M164 0v1434h233v-1201h682v-233h-915z" />
<glyph unicode="M" horiz-adv-x="2060" d="M164 0v1434h223l643 -1127l643 1127h223v-1434h-233v946l-539 -946h-188l-539 946v-946h-233z" />
<glyph unicode="N" horiz-adv-x="1619" d="M164 0v1434h207l852 -1041v1041h233v-1434h-211l-848 1030v-1030h-233z" />
<glyph unicode="O" horiz-adv-x="1634" d="M102 717q0 154 54.5 285t149.5 227t226 150.5t285 54.5t285 -54.5t226 -150.5t149.5 -227.5t54.5 -284.5q0 -154 -54.5 -285t-149.5 -227t-226 -150.5t-285 -54.5t-285 54.5t-226 150.5t-149.5 227t-54.5 285zM336 717q0 -104 36 -193.5t100.5 -154t152.5 -100.5t192 -36 t192.5 36t153 100.5t100 153.5t35.5 194q0 104 -35.5 192t-100 152.5t-152.5 101.5t-193 37q-104 0 -192 -37t-152.5 -101.5t-100.5 -152.5t-36 -192z" />
<glyph unicode="P" horiz-adv-x="1236" d="M164 0v1434h520q106 0 196.5 -37t156 -102.5t102.5 -155.5t37 -197q0 -106 -37 -196.5t-102.5 -157t-155.5 -103t-197 -36.5h-287v-449h-233zM397 682h287q53 0 100 19.5t82 54.5t55.5 82t20.5 104t-20.5 104.5t-55.5 81t-82 53t-100 19.5h-287v-518z" />
<glyph unicode="Q" horiz-adv-x="1714" d="M102 717q0 154 54.5 285t149.5 227t226 150.5t285 54.5t285 -54.5t226 -150.5t149.5 -227.5t54.5 -284.5q0 -123 -34 -230.5t-97 -195.5l354 -354l-164 -166l-356 356q-88 -61 -193.5 -94t-224.5 -33q-154 0 -285 54.5t-226 150.5t-149.5 227t-54.5 285zM336 717 q0 -104 36 -193.5t100.5 -154t152.5 -100.5t192 -36q137 0 248 64l-379 381l164 166l381 -383q33 53 50 118.5t17 137.5q0 104 -35.5 192t-100 152.5t-152.5 101.5t-193 37q-104 0 -192 -37t-152.5 -101.5t-100.5 -152.5t-36 -192z" />
<glyph unicode="R" horiz-adv-x="1419" d="M164 0v1434h559q106 0 196.5 -37t156 -102.5t102 -155.5t36.5 -197q0 -139 -61 -248.5t-166 -173.5l422 -520h-301l-365 449h-346v-449h-233zM397 682h158l-59 74l180 149l158 -200q66 31 107.5 93t41.5 144q0 57 -20.5 104.5t-56.5 81t-83 53t-100 19.5h-326v-518z" />
<glyph unicode="S" horiz-adv-x="1167" d="M133 371l207 110q20 -125 91 -186.5t173 -61.5q92 0 146.5 43t54.5 119q0 72 -48 113t-120 69.5t-157 56.5t-156.5 73t-119.5 118.5t-48 194.5q0 100 35.5 178t96 130t140.5 79t168 27q168 0 296 -97.5t173 -279.5l-219 -90q-25 117 -90.5 175t-161.5 58t-150.5 -47 t-54.5 -121q0 -72 48 -110.5t120 -66.5t157 -54.5t156.5 -72.5t119.5 -122t48 -200q0 -104 -35.5 -181.5t-96 -127.5t-138.5 -73.5t-164 -23.5q-74 0 -149.5 19.5t-140 63.5t-112.5 114.5t-69 173.5z" />
<glyph unicode="T" horiz-adv-x="1339" d="M10 1200v234h1319v-234h-545v-1200h-233v1200h-541z" />
<glyph unicode="U" horiz-adv-x="1603" d="M143 657v777h234v-777q0 -90 32.5 -167.5t89 -135t134.5 -90.5t168 -33q92 0 170 33t134 90.5t89 135t33 167.5v777h233v-777q0 -141 -50 -261t-139 -208t-209 -138t-261 -50q-139 0 -259 50t-209 138t-139.5 208t-50.5 261z" />
<glyph unicode="V" horiz-adv-x="1556" d="M10 1434h260l510 -1072l506 1072h260l-684 -1434h-170z" />
<glyph unicode="W" horiz-adv-x="2486" d="M20 1434h250l412 -1031l459 1031h205l458 -1031l412 1031h250l-570 -1434h-165l-488 1087l-485 -1087h-166z" />
<glyph unicode="X" horiz-adv-x="1523" d="M31 0l581 715l-579 719h299l430 -533l432 533h299l-582 -719l582 -715h-301l-430 530l-428 -530h-303z" />
<glyph unicode="Y" horiz-adv-x="1413" d="M10 1434h285l412 -596l411 596h285l-580 -836v-598h-233v598z" />
<glyph unicode="Z" horiz-adv-x="1366" d="M102 0v174l813 1028h-813v232h1162v-174l-813 -1029h813v-231h-1162z" />
<glyph unicode="[" horiz-adv-x="729" d="M225 -260v1790h443v-195h-238v-1401h238v-194h-443z" />
<glyph unicode="\" horiz-adv-x="1390" d="M61 1284l181 150l1087 -1284l-180 -150z" />
<glyph unicode="]" horiz-adv-x="729" d="M61 -66h238v1401h-238v195h443v-1790h-443v194z" />
<glyph unicode="^" horiz-adv-x="741" d="M20 1243l351 330l350 -330l-141 -145l-209 202l-211 -202z" />
<glyph unicode="_" horiz-adv-x="1220" d="M61 74h1098v-189h-1098v189z" />
<glyph unicode="`" horiz-adv-x="606" d="M20 1405l107 170l459 -297l-105 -162z" />
<glyph unicode="a" horiz-adv-x="1107" d="M92 309q0 76 27.5 132.5t72 93t102.5 57t120 26.5l293 27q47 4 47 45v39q0 51 -52.5 83t-142.5 32q-92 0 -153.5 -34t-90.5 -128l-198 102q20 61 55 109.5t87 83.5t123 53.5t165 18.5q221 0 324.5 -104.5t103.5 -285.5v-659h-221v113q-45 -53 -114 -93t-179 -40 q-84 0 -151.5 24.5t-116 69.5t-75 104.5t-26.5 130.5zM317 309q0 -53 44.5 -84.5t127.5 -31.5q53 0 101.5 18t84.5 50t57.5 73t21.5 86v41l-305 -37q-68 -8 -100 -41t-32 -74z" />
<glyph unicode="b" horiz-adv-x="1230" d="M143 0v1434h217v-510q53 57 132.5 91t169.5 34q113 0 206 -38t160.5 -107.5t104 -169t36.5 -222.5t-37.5 -222.5t-106.5 -169t-164 -107.5t-208 -38q-82 0 -159.5 34t-133.5 93v-102h-217zM350 512q0 -147 77 -235.5t218 -88.5q68 0 122 24t93 67t59.5 102t20.5 131 t-20.5 131t-59.5 102t-93 67t-122 24q-141 0 -218 -88.5t-77 -235.5z" />
<glyph unicode="c" horiz-adv-x="1028" d="M61 512q0 119 41 218t112 170t167 110t209 39q123 0 219 -45.5t168 -120.5l-139 -170q-35 47 -100.5 85t-151.5 38q-59 0 -113.5 -21.5t-94.5 -62.5t-63.5 -101.5t-23.5 -138.5t23.5 -138.5t63.5 -101.5t94 -62.5t114 -21.5q86 0 151.5 37t110.5 88l129 -176 q-27 -29 -65 -57.5t-86 -52t-107.5 -38t-128.5 -14.5q-113 0 -209 39t-167 110t-112 170t-41 218z" />
<glyph unicode="d" horiz-adv-x="1228" d="M61 512q0 123 37 222.5t104.5 169t160.5 107.5t206 38q96 0 174 -35t125 -82v502h217v-1434h-217v113q-43 -51 -120.5 -94.5t-178.5 -43.5q-113 0 -206 38t-160.5 107.5t-104.5 169t-37 222.5zM291 512q0 -72 20.5 -131t59.5 -102t93 -67t122 -24q141 0 218 90.5 t77 237.5t-77 233.5t-218 86.5q-68 0 -122 -24t-93 -67t-59.5 -102t-20.5 -131z" />
<glyph unicode="e" horiz-adv-x="1112" d="M61 514q0 106 35 203.5t101.5 171.5t161 117t212.5 43q111 0 202 -41t154.5 -113t98.5 -170t35 -211v-80h-776q16 -119 97 -182.5t189 -63.5q111 0 185.5 42t134.5 110l117 -172q-35 -39 -77 -74t-95.5 -61.5t-118 -42t-146.5 -15.5q-111 0 -204 40t-160.5 111 t-106.5 170t-39 218zM301 623h518q-18 102 -80.5 157.5t-167.5 55.5q-104 0 -174.5 -57.5t-95.5 -155.5z" />
<glyph unicode="f" horiz-adv-x="751" d="M31 823v201h178v49q0 205 89 292t247 87q35 0 81 -4t95 -14v-205q-43 6 -81 10t-75 4q-72 0 -105.5 -36t-33.5 -134v-49h281v-201h-281v-823h-217v823h-178z" />
<glyph unicode="g" horiz-adv-x="1253" d="M82 512q0 123 38 222.5t105.5 170t160.5 108.5t206 38q98 0 176 -36t125 -89v98h217v-944q0 -90 -21.5 -181.5t-77 -166t-149.5 -121.5t-241 -47q-96 0 -171 19.5t-133.5 53t-101.5 80.5t-76 101l166 129q53 -96 134 -138t192 -42q80 0 132 29.5t83 74.5t42 100.5 t11 108.5v33q-47 -59 -128 -98.5t-179 -39.5q-113 0 -206 38t-160.5 107.5t-105.5 169t-38 222.5zM311 512q0 -72 21.5 -131t60.5 -102t94.5 -67t122.5 -24q141 0 218 90.5t77 237.5t-77 234.5t-218 87.5q-68 0 -123 -25t-94 -68t-60.5 -102t-21.5 -131z" />
<glyph unicode="h" horiz-adv-x="1159" d="M143 0v1434h217v-514q18 20 46 43.5t64 42t82 31t103 12.5q96 0 168 -33t119 -91.5t70.5 -140.5t23.5 -180v-604h-221v612q0 113 -53 168.5t-146 55.5q-61 0 -115 -25t-89 -78q-33 -53 -42.5 -122.5t-9.5 -133.5v-477h-217z" />
<glyph unicode="i" horiz-adv-x="565" d="M123 1298q0 68 46 114t114 46t113.5 -46t45.5 -114t-46 -113.5t-113 -45.5q-68 0 -114 45.5t-46 113.5zM172 0v1024h221v-1024h-221z" />
<glyph unicode="j" horiz-adv-x="573" d="M-41 -197q70 0 115 11.5t71.5 33t35.5 52t9 67.5v1057h222v-1057q0 -96 -23.5 -166.5t-77 -118t-139.5 -70t-213 -22.5v213zM141 1298q0 68 46 114t114 46t114 -46t46 -114t-46 -113.5t-114 -45.5t-114 45.5t-46 113.5z" />
<glyph unicode="k" horiz-adv-x="1093" d="M143 0v1434h217v-840l416 430h297l-440 -459l432 -565h-281l-303 420l-121 -113v-307h-217z" />
<glyph unicode="l" horiz-adv-x="507" d="M143 0v1434h222v-1434h-222z" />
<glyph unicode="m" horiz-adv-x="1867" d="M143 0v1024h217v-104q51 59 126 94t161 35q125 0 200 -48.5t120 -119.5q66 78 145.5 123t202.5 45q111 0 188.5 -33t126.5 -93.5t71.5 -145.5t22.5 -191v-586h-223v606q0 100 -46 165t-159 65q-119 0 -184 -78t-65 -266v-492h-224v606q0 100 -46 165t-159 65 q-123 0 -190.5 -82t-67.5 -277v-477h-217z" />
<glyph unicode="n" horiz-adv-x="1185" d="M143 0v1024h217v-104q53 59 128 94t167 35q104 0 177 -34t120 -94.5t68.5 -143.5t21.5 -179v-598h-221v598q0 109 -46 173.5t-157 64.5q-53 0 -99 -16.5t-82 -58.5t-56.5 -110.5t-20.5 -173.5v-477h-217z" />
<glyph unicode="o" horiz-adv-x="1191" d="M61 512q0 111 42 209t114 171t170 115t209 42t209 -42t170 -115t113.5 -171t41.5 -209t-41.5 -209t-113.5 -171t-170 -115t-209 -42t-209 42t-170 115t-114 171t-42 209zM291 512q0 -68 22.5 -126t63.5 -102t96 -70t123 -26t123 26t96 70t63.5 102t22.5 126t-22.5 126 t-63.5 102t-96 70t-123 26t-123 -26t-96 -70t-63.5 -102t-22.5 -126z" />
<glyph unicode="p" horiz-adv-x="1230" d="M143 -410v1434h217v-94q53 49 128 84t174 35q113 0 206 -38t160.5 -107.5t104 -169t36.5 -222.5t-36.5 -222.5t-104 -169t-161 -107.5t-205.5 -38q-98 0 -172 36t-130 89v-510h-217zM350 512q0 -147 77 -235.5t218 -88.5q68 0 122 24t93 67t59.5 102t20.5 131t-20.5 131 t-59.5 102t-93 67t-122 24q-141 0 -218 -88.5t-77 -235.5z" />
<glyph unicode="q" horiz-adv-x="1228" d="M61 512q0 123 37 222.5t104.5 169t161 107.5t205.5 38q96 0 174 -34t125 -85v94h217v-1434h-217v519q-43 -51 -120.5 -92.5t-178.5 -41.5q-113 0 -206 38t-160.5 107.5t-104.5 169t-37 222.5zM291 512q0 -72 20.5 -131t59.5 -102t93 -67t122 -24q141 0 218 88.5t77 235.5 t-77 235.5t-218 88.5q-68 0 -122 -24t-93 -67t-59.5 -102t-20.5 -131z" />
<glyph unicode="r" horiz-adv-x="788" d="M143 0v1024h215v-115q45 66 112 104t151 38q66 0 127 -17v-241q-57 20 -127 20q-66 0 -118 -22.5t-83 -67.5q-35 -47 -45 -110.5t-10 -139.5v-473h-222z" />
<glyph unicode="s" horiz-adv-x="980" d="M72 215l174 127q41 -72 111.5 -113t146.5 -41q86 0 134 30t48 75q0 47 -42 70.5t-105.5 40t-137 34t-137 51t-105.5 93t-42 157.5q0 61 26.5 116.5t76.5 98.5t124 69t168 26q141 0 242.5 -62.5t154.5 -155.5l-166 -124q-35 55 -94 92t-137 37q-84 0 -129 -32t-45 -75 t42 -65.5t105.5 -38t136 -31.5t136 -50t105.5 -93.5t42 -157.5q0 -70 -28.5 -128.5t-82 -100t-127 -65.5t-163.5 -24q-74 0 -140.5 18.5t-123 50.5t-99.5 76t-69 95z" />
<glyph unicode="t" horiz-adv-x="786" d="M31 823v201h190v274h217v-274h267v-201h-267v-534q0 -88 74 -90q17 -1 36 -1q74 0 167 13v-199q-102 -22 -195 -22h-8q-145 0 -218 69.5t-73 239.5v524h-190z" />
<glyph unicode="u" horiz-adv-x="1171" d="M143 426v598h222v-598q0 -109 42.5 -173.5t151.5 -64.5q68 0 115 26t77.5 72t45 108.5t14.5 133.5v496h217v-1024h-217v115q-51 -59 -122 -99.5t-167 -40.5q-104 0 -176 34t-117 94.5t-65.5 143.5t-20.5 179z" />
<glyph unicode="v" horiz-adv-x="1110" d="M20 1024h242l293 -707l293 707h242l-451 -1024h-168z" />
<glyph unicode="w" horiz-adv-x="1763" d="M20 1024h240l262 -674l283 674h151l283 -674l264 674h240l-422 -1024h-164l-274 651q-68 -160 -140.5 -326.5t-138.5 -324.5h-162z" />
<glyph unicode="x" horiz-adv-x="1122" d="M20 0l406 512q-47 59 -99.5 124.5t-104.5 132.5t-103 131.5t-99 123.5h275l266 -344l266 344h275l-406 -512l406 -512h-275l-266 344l-266 -344h-275z" />
<glyph unicode="y" horiz-adv-x="1105" d="M20 1024h263l292 -606l285 606h236l-664 -1434h-239l262 570z" />
<glyph unicode="z" horiz-adv-x="931" d="M61 0v186l498 629h-481v209h772v-186l-498 -629h518v-209h-809z" />
<glyph unicode="{" horiz-adv-x="796" d="M123 541v194q98 6 153.5 46t55.5 110v309q0 178 95 254t249 76h80v-191h-90q-53 0 -93.5 -31.5t-40.5 -97.5v-323q0 -84 -25.5 -143.5t-94.5 -100.5q68 -37 94 -94t26 -139v-351q0 -66 40 -97.5t94 -31.5h90v-190h-80q-154 0 -249 77t-95 253v319q0 68 -55.5 107 t-153.5 45z" />
<glyph unicode="|" horiz-adv-x="610" d="M205 -274v1833h201v-1833h-201z" />
<glyph unicode="}" horiz-adv-x="796" d="M41 -70h90q53 0 93 32t40 97v351q0 82 26.5 139t94.5 94q-70 41 -95.5 100.5t-25.5 143.5v323q0 66 -40 97.5t-93 31.5h-90v191h80q154 0 249 -76t95 -254v-309q0 -70 55 -110t154 -46v-194q-98 -6 -153.5 -45t-55.5 -107v-319q0 -176 -95.5 -253t-248.5 -77h-80v190z " />
<glyph unicode="~" horiz-adv-x="1413" d="M154 627q72 70 157.5 125t188.5 55q76 0 140.5 -26.5t104.5 -49.5q45 -23 89.5 -40t80.5 -17q53 0 109.5 35.5t110.5 89.5l125 -164q-37 -35 -76 -69t-82 -60.5t-90.5 -43t-98.5 -16.5q-72 0 -135 27t-108 49q-45 23 -89 40.5t-81 17.5q-53 0 -110.5 -37t-110.5 -90z" />
<glyph unicode="&#xa1;" horiz-adv-x="460" d="M82 891q0 70 44 114t116 44q70 0 113.5 -44t43.5 -114q0 -72 -44 -116t-113 -44q-72 0 -116 44t-44 116zM127 -387v1044h229v-1044h-229z" />
<glyph unicode="&#xa2;" horiz-adv-x="1058" d="M82 512q0 102 29.5 189t84 155t128 114t163.5 64v193h175v-180q104 -10 188 -53.5t147 -110.5l-139 -170q-29 41 -80 73.5t-116 42.5v-636q66 12 117.5 44.5t88.5 75.5l129 -176q-49 -53 -132 -101t-203 -59v-176h-175v189q-90 18 -163.5 64t-128 114t-84 155t-29.5 189z M311 512q0 -117 49.5 -191.5t126.5 -109.5v600q-78 -33 -127 -108.5t-49 -190.5z" />
<glyph unicode="&#xa3;" horiz-adv-x="1193" d="M82 627v184h190v211q0 88 25 164t74 132t123.5 88t177.5 32q74 0 134 -22.5t107.5 -57.5t81 -81t56.5 -91l-189 -135q-33 74 -82 121t-108 47q-80 0 -125 -49.5t-45 -147.5v-211h377v-184h-377v-242q0 -59 -14.5 -99t-34.5 -67h309q92 0 173 49t130 121l109 -188 q-61 -84 -158.5 -142.5t-253.5 -58.5h-660v211q82 10 126 53t44 121v242h-190z" />
<glyph unicode="&#xa4;" horiz-adv-x="1114" d="M35 301l164 166q-74 109 -74 242q0 135 74 243l-152 150l119 115l147 -150q53 35 114.5 55.5t131.5 20.5q68 0 129.5 -20.5t114.5 -55.5l149 150l119 -115l-153 -152q74 -109 73 -241q0 -68 -19.5 -128.5t-53.5 -111.5l165 -168l-114 -115l-168 164q-53 -35 -114.5 -53 t-127.5 -18q-68 0 -129 18t-115 53l-165 -164zM332 709q0 -47 18.5 -87t49 -71t71.5 -48.5t88 -17.5q45 0 86 17.5t72 48.5t49 71t18 87t-18 88t-49 71.5t-72 49t-86 18.5q-47 0 -88 -18.5t-71.5 -49t-49 -71.5t-18.5 -88z" />
<glyph unicode="&#xa5;" horiz-adv-x="1413" d="M10 1434h285l412 -596l411 596h285l-471 -678h233v-185h-342v-98h342v-184h-342v-289h-233v289h-342v184h342v98h-342v185h231z" />
<glyph unicode="&#xa6;" horiz-adv-x="610" d="M205 -274v866h201v-866h-201zM205 795v764h201v-764h-201z" />
<glyph unicode="&#xa7;" horiz-adv-x="1064" d="M102 563q0 96 44 172t128 127q-43 41 -68.5 96.5t-25.5 133.5q0 74 25.5 138t75 111.5t118 74t154.5 26.5q123 0 220 -58.5t157 -181.5l-172 -108q-33 72 -86.5 111.5t-122.5 39.5q-78 0 -119 -45t-41 -102q0 -72 62.5 -111t158.5 -76q51 -20 113.5 -46.5t115 -67.5 t88.5 -102.5t36 -149.5q0 -98 -46.5 -174t-128.5 -125q43 -41 70 -96.5t27 -133.5q0 -74 -25.5 -138t-75 -111.5t-118 -74t-154.5 -26.5q-123 0 -220 57.5t-157 180.5l172 110q31 -72 85 -111.5t124 -39.5q78 0 119 44t41 101q0 70 -58.5 108t-164.5 79q-57 23 -119 50 t-113 69t-85 102.5t-34 146.5zM309 575q0 -39 20.5 -67.5t54.5 -51t76 -41t83 -34.5q16 -6 30.5 -12.5t30.5 -14.5q61 31 106.5 75t45.5 103q0 39 -20.5 68t-54.5 51.5t-76 41t-83 34.5l-61 25q-61 -29 -106.5 -73.5t-45.5 -103.5z" />
<glyph unicode="&#xa8;" horiz-adv-x="808" d="M20 1298q0 68 46.5 114t113.5 46q68 0 114 -46t46 -114t-46 -113.5t-114 -45.5t-114 45.5t-46 113.5zM471 1298q0 68 46 114t114 46q66 0 111.5 -46t45.5 -114t-46 -113.5t-111 -45.5q-68 0 -114 45.5t-46 113.5z" />
<glyph unicode="&#xa9;" horiz-adv-x="1597" d="M82 705q0 156 55.5 288.5t152.5 231t230 154t289 55.5t290 -55.5t230 -154t151.5 -231.5t55.5 -288q0 -158 -55.5 -291t-151.5 -230.5t-230 -153t-290 -55.5t-289 55.5t-230 153t-152.5 230.5t-55.5 291zM266 705q0 -117 41 -217.5t113 -173t172 -113.5t217 -41t217 41 t172 113.5t113 173t41 217.5t-41 217t-113 172.5t-172 113.5t-217 41t-217 -41t-172 -113.5t-113 -173t-41 -216.5zM416 715q0 86 29.5 158.5t83 126t126 84t158.5 30.5q168 0 293 -129l-70 -145q-53 63 -108.5 94t-120.5 31q-104 0 -173 -68t-69 -182q0 -113 68.5 -182.5 t173.5 -69.5q35 0 74 9t84 38l28 -154q-45 -23 -92 -32t-88 -9q-86 0 -158.5 31t-126 84t-83 126t-29.5 159z" />
<glyph unicode="&#xaa;" horiz-adv-x="946" d="M123 922q0 61 22.5 105t59.5 72.5t83 44t95 19.5l233 23q33 2 33 31v18q0 47 -47 71.5t-119 24.5q-61 0 -112.5 -24.5t-73.5 -102.5l-160 84q35 90 116 149.5t232 59.5q176 0 259 -81t83 -224v-512h-178v78q-35 -37 -90 -65.5t-135 -28.5q-141 0 -221 71.5t-80 186.5z M305 920q0 -82 125 -82q98 0 158.5 54t60.5 142l-239 -28q-55 -6 -80 -30t-25 -56z" />
<glyph unicode="&#xab;" horiz-adv-x="1075" d="M82 512l391 446l152 -137l-279 -309l279 -311l-152 -135zM512 512l391 446l152 -137l-277 -309l277 -311l-152 -135z" />
<glyph unicode="&#xac;" d="M209 645v225h1014v-571h-224v346h-790z" />
<glyph unicode="&#xad;" horiz-adv-x="1083" d="M164 512v233h756v-233h-756z" />
<glyph unicode="&#xae;" horiz-adv-x="1597" d="M82 705q0 156 55.5 288.5t152.5 231t230 154t289 55.5t290 -55.5t230 -154t151.5 -231.5t55.5 -288q0 -158 -55.5 -291t-151.5 -230.5t-230 -153t-290 -55.5t-289 55.5t-230 153t-152.5 230.5t-55.5 291zM266 705q0 -117 41 -217.5t113 -173t172 -113.5t217 -41t217 41 t172 113.5t113 173t41 217.5t-41 217t-113 172.5t-172 113.5t-217 41t-217 -41t-172 -113.5t-113 -173t-41 -216.5zM528 354v731h287q111 0 180.5 -71.5t69.5 -182.5q0 -68 -28.5 -124t-80.5 -89l215 -264h-165l-183 226h-166v-226h-129zM657 709h62l-27 32l99 80l77 -100 q29 16 49.5 45t20.5 65q0 55 -37 89t-86 34h-158v-245z" />
<glyph unicode="&#xaf;" horiz-adv-x="634" d="M20 1233v184h594v-184h-594z" />
<glyph unicode="&#xb0;" d="M442 1196q0 59 20.5 109.5t57.5 87.5t87 57t110 20q57 0 107 -20t87 -57t58.5 -87.5t21.5 -109.5t-21.5 -108.5t-58.5 -86t-87 -57t-107 -20.5q-59 0 -109.5 20.5t-87.5 57t-57.5 86t-20.5 108.5zM590 1196q0 -57 33.5 -96t93.5 -39q59 0 93 39t34 96q0 59 -34 98t-93 39 t-93 -39t-34 -98z" />
<glyph unicode="&#xb1;" d="M203 174v217h1028v-217h-1028zM203 766v225h399v266h229v-266h400v-225h-400v-266h-229v266h-399z" />
<glyph unicode="&#xb2;" horiz-adv-x="876" d="M123 1434q41 76 115.5 130t189.5 54q63 0 116.5 -18.5t92.5 -53.5t60.5 -83t21.5 -105q0 -78 -33 -136.5t-74 -99.5l-209 -200h316v-164h-576v131l351 344q23 23 39 54.5t16 62.5q0 41 -32 72.5t-91 31.5q-63 0 -104 -38t-70 -91z" />
<glyph unicode="&#xb3;" horiz-adv-x="833" d="M123 950l137 105q27 -59 64.5 -96t95.5 -37q49 0 82 23.5t33 66.5q0 41 -32 67.5t-102 26.5h-49v162h49q68 0 101 24.5t33 67.5q0 41 -32 67.5t-83 26.5q-47 0 -90 -25.5t-74 -87.5l-125 103q16 33 42 63.5t61.5 55t80.5 40t101 15.5q125 0 203.5 -68.5t78.5 -179.5 q0 -72 -34.5 -115t-77.5 -65q47 -23 79.5 -71t32.5 -120q0 -104 -73.5 -172.5t-202.5 -68.5q-111 0 -185.5 52t-113.5 140z" />
<glyph unicode="&#xb4;" horiz-adv-x="606" d="M20 1278l459 297l107 -170l-461 -289z" />
<glyph unicode="&#xb5;" d="M274 -410v1434h222v-598q0 -109 42.5 -173.5t151.5 -64.5q68 0 115 26t77.5 72t45 108.5t14.5 133.5v496h217v-1024h-217v115q-51 -59 -121.5 -99.5t-167.5 -40.5q-49 0 -91 8.5t-77 22.5v-416h-211z" />
<glyph unicode="&#xb6;" horiz-adv-x="1060" d="M82 1024q0 82 29.5 152.5t81 123t122 82t154.5 29.5h530v-1671h-204v1472h-148v-1472h-205v897q-78 4 -144.5 36t-114.5 84t-74.5 120.5t-26.5 146.5z" />
<glyph unicode="&#xb7;" horiz-adv-x="700" d="M186 655q0 76 51.5 128.5t127.5 52.5t128 -52.5t52 -128.5t-52.5 -127t-127.5 -51q-76 0 -127.5 51t-51.5 127z" />
<glyph unicode="&#xb8;" horiz-adv-x="399" d="M20 -199q39 -14 67 -21t54 -7q16 0 32.5 12t16.5 41q0 39 -32.5 99.5t-122.5 152.5h201q78 -86 110.5 -155.5t32.5 -129.5q0 -98 -61.5 -150.5t-143.5 -52.5q-43 0 -81 10.5t-73 26.5v174z" />
<glyph unicode="&#xb9;" horiz-adv-x="702" d="M84 1321l309 297h146v-860h-164v614l-172 -166z" />
<glyph unicode="&#xba;" horiz-adv-x="1015" d="M80 1075q0 86 33.5 163t91 133t135.5 89t168 33q88 0 167 -33t136 -89t91 -133t34 -163t-34 -162.5t-91 -133t-136 -89.5t-167 -33q-90 0 -168 33t-135.5 89.5t-91 133t-33.5 162.5zM276 1075q0 -49 18.5 -92t49.5 -73.5t73 -49t91 -18.5t91 18.5t72.5 49t49 73.5 t18.5 92t-18.5 92t-49 74t-72.5 49.5t-91 18.5t-91 -18.5t-73 -49.5t-49.5 -74t-18.5 -92z" />
<glyph unicode="&#xbb;" horiz-adv-x="1077" d="M41 201l278 311l-278 309l152 137l391 -446l-391 -446zM473 201l279 311l-279 309l152 137l391 -446l-391 -446z" />
<glyph unicode="&#xbc;" horiz-adv-x="1843" d="M98 1137l310 297h145v-861h-164v615l-172 -166zM317 88l1072 1350l110 -90l-1071 -1352zM926 166v137l510 557h131v-530h178v-164h-178v-166h-164v166h-477zM1155 330h248v264z" />
<glyph unicode="&#xbd;" horiz-adv-x="1843" d="M88 1137l309 297h146v-861h-164v615l-172 -166zM322 88l1071 1350l110 -90l-1071 -1352zM1159 676q41 76 116 130t189 54q63 0 116.5 -18.5t92.5 -53t60.5 -83t21.5 -105.5q0 -78 -32.5 -136t-73.5 -99l-209 -201h315v-164h-575v131l350 344q23 23 39 54.5t16 62.5 q0 41 -31.5 72.5t-91.5 31.5q-63 0 -104 -37.5t-70 -91.5z" />
<glyph unicode="&#xbe;" horiz-adv-x="1843" d="M92 766l137 104q27 -59 65 -96t95 -37q49 0 82 23.5t33 66.5q0 41 -32 68t-101 27h-49v161h49q68 0 100.5 25t32.5 68q0 41 -32 67.5t-83 26.5q-47 0 -90 -25.5t-74 -87.5l-125 103q16 33 42 63.5t62 55t81 40t100 15.5q125 0 204 -69t79 -179q0 -72 -35 -115t-78 -65 q47 -23 80 -71t33 -120q0 -104 -74 -173t-203 -69q-111 0 -185.5 52.5t-113.5 140.5zM332 88l1071 1350l110 -90l-1071 -1352zM909 166v137l510 557h131v-530h179v-164h-179v-166h-164v166h-477zM1139 330h247v264z" />
<glyph unicode="&#xbf;" horiz-adv-x="1013" d="M82 -8q0 76 22.5 130t56.5 98t73.5 79t73.5 72t56.5 77.5t22.5 96.5v55h229v-55q0 -82 -22.5 -141.5t-55 -103.5t-72.5 -78t-73 -67.5t-55.5 -72.5t-22.5 -90q0 -66 46.5 -117t144.5 -51q104 0 157.5 59.5t53.5 186.5h233q0 -109 -30.5 -197t-88 -151.5t-139.5 -97.5 t-186 -34q-96 0 -174 28t-133.5 79t-86 126t-30.5 169zM332 881q0 72 49 120t121 48t121 -48t49 -120t-49.5 -121t-120.5 -49q-72 0 -121 49t-49 121z" />
<glyph unicode="&#xc0;" horiz-adv-x="1601" d="M20 0l668 1434h225l668 -1434h-260l-111 242h-821l-110 -242h-259zM500 475h602l-301 647zM524 1815l107 170l459 -297l-105 -162z" />
<glyph unicode="&#xc1;" horiz-adv-x="1601" d="M20 0l668 1434h225l668 -1434h-260l-111 242h-821l-110 -242h-259zM500 475h602l-301 647zM528 1688l459 297l107 -170l-461 -289z" />
<glyph unicode="&#xc2;" horiz-adv-x="1601" d="M20 0l668 1434h225l668 -1434h-260l-111 242h-821l-110 -242h-259zM420 1657l381 325l381 -325l-129 -144l-252 220l-252 -217zM500 475h602l-301 647z" />
<glyph unicode="&#xc3;" horiz-adv-x="1601" d="M20 0l668 1434h225l668 -1434h-260l-111 242h-821l-110 -242h-259zM420 1733q25 25 53.5 48t60 42.5t65.5 32t69 12.5q39 0 71.5 -12.5t59 -28t50 -27.5t46.5 -12q29 0 67.5 23.5t75.5 58.5l107 -133q-25 -25 -53.5 -48.5t-60.5 -43t-66.5 -31.5t-69.5 -12q-45 0 -78 12 t-58.5 27.5t-47 27.5t-43.5 12q-29 0 -68 -23.5t-74 -58.5zM500 475h602l-301 647z" />
<glyph unicode="&#xc4;" horiz-adv-x="1601" d="M20 0l668 1434h225l668 -1434h-260l-111 242h-821l-110 -242h-259zM287 1483q0 68 46 113.5t113 45.5q68 0 114 -46t46 -113q0 -68 -46 -114t-114 -46t-113.5 46t-45.5 114zM500 475h602l-301 647zM995 1483q0 68 46 113.5t114 45.5q66 0 112 -46t46 -113q0 -68 -46 -114 t-112 -46q-68 0 -114 46t-46 114z" />
<glyph unicode="&#xc5;" horiz-adv-x="1601" d="M20 0l668 1434h225l668 -1434h-260l-111 242h-821l-110 -242h-259zM500 475h602l-301 647zM532 1802q0 57 20.5 106.5t56.5 85.5t85 56.5t107 20.5q57 0 106 -20.5t85 -56.5t56.5 -85t20.5 -107q0 -57 -20.5 -106t-56.5 -85t-85 -56.5t-106 -20.5t-106.5 20.5t-85.5 56.5 t-56.5 85t-20.5 106zM705 1802q0 -45 26.5 -70.5t69.5 -25.5q45 0 70.5 25.5t25.5 70.5t-25.5 70.5t-70.5 25.5q-43 0 -69.5 -25.5t-26.5 -70.5z" />
<glyph unicode="&#xc6;" horiz-adv-x="2004" d="M-25 0l1039 1434h880v-232h-669v-368h669v-234h-669v-369h669v-231h-905v242h-549l-170 -242h-295zM610 475h381v524z" />
<glyph unicode="&#xc7;" horiz-adv-x="1363" d="M102 717q0 154 54.5 285t150.5 227t227.5 150.5t284.5 54.5q154 0 282 -57.5t232 -162.5l-108 -223q-78 98 -182.5 153.5t-223.5 55.5q-106 0 -195 -35t-152.5 -98t-99.5 -152.5t-36 -197.5q0 -109 36 -198t99.5 -152.5t152.5 -98.5t195 -35q53 0 122 16.5t142 57.5 l41 -239q-111 -51 -221 -64q43 -59 62.5 -111.5t19.5 -99.5q0 -98 -61.5 -150.5t-143.5 -52.5q-43 0 -80.5 10.5t-72.5 26.5v174q39 -14 66.5 -21t54.5 -7q16 0 32.5 12t16.5 41q0 31 -20.5 76t-74.5 106q-131 20 -240.5 82t-189 155t-125 213t-45.5 259z" />
<glyph unicode="&#xc8;" horiz-adv-x="1179" d="M164 0v1434h903v-234h-670v-366h670v-234h-670v-367h670v-233h-903zM330 1815l106 170l459 -297l-104 -162z" />
<glyph unicode="&#xc9;" horiz-adv-x="1179" d="M164 0v1434h903v-234h-670v-366h670v-234h-670v-367h670v-233h-903zM334 1688l459 297l106 -170l-461 -289z" />
<glyph unicode="&#xca;" horiz-adv-x="1179" d="M164 0v1434h903v-234h-670v-366h670v-234h-670v-367h670v-233h-903zM225 1657l381 325l381 -325l-129 -144l-252 220l-252 -217z" />
<glyph unicode="&#xcb;" horiz-adv-x="1179" d="M164 0v1434h903v-234h-670v-366h670v-234h-670v-367h670v-233h-903zM221 1708q0 68 46 114t114 46t114 -46t46 -114t-46 -114t-114 -46t-114 46t-46 114zM672 1708q0 68 46 114t113 46q66 0 112 -46t46 -114t-46 -114t-112 -46q-68 0 -113.5 46t-45.5 114z" />
<glyph unicode="&#xcc;" horiz-adv-x="561" d="M4 1815l107 170l458 -297l-104 -162zM164 0v1434h233v-1434h-233z" />
<glyph unicode="&#xcd;" horiz-adv-x="561" d="M8 1688l459 297l106 -170l-460 -289zM164 0v1434h233v-1434h-233z" />
<glyph unicode="&#xce;" horiz-adv-x="561" d="M-100 1657l381 325l381 -325l-130 -144l-251 220l-252 -217zM164 0v1434h233v-1434h-233z" />
<glyph unicode="&#xcf;" horiz-adv-x="561" d="M-199 1491q0 68 46.5 114t113.5 46q68 0 114 -46t46 -114t-46 -114t-114 -46t-114 46t-46 114zM164 0v1434h233v-1434h-233zM444 1491q0 68 46.5 114t113.5 46q66 0 112 -46t46 -114t-46 -114t-112 -46q-68 0 -114 46t-46 114z" />
<glyph unicode="&#xd0;" horiz-adv-x="1482" d="M0 616v213h164v605h502q152 0 282.5 -54.5t227 -149.5t150.5 -226.5t54 -286.5q0 -156 -54 -287t-150.5 -226t-227.5 -149.5t-282 -54.5h-502v616h-164zM397 233h269q104 0 192 36t152.5 100.5t100.5 152.5t36 195q0 106 -36 194t-100.5 152.5t-152.5 100.5t-192 36h-269 v-371h297v-213h-297v-383z" />
<glyph unicode="&#xd1;" horiz-adv-x="1619" d="M164 0v1434h207l852 -1041v1041h233v-1434h-211l-848 1030v-1030h-233zM459 1733q25 25 53.5 48t60 42.5t65.5 32t69 12.5q39 0 71.5 -12.5t59 -28t50 -27.5t46.5 -12q29 0 67.5 23.5t75.5 58.5l107 -133q-25 -25 -53.5 -48.5t-60.5 -43t-66.5 -31.5t-69.5 -12 q-45 0 -78 12t-58.5 27.5t-47 27.5t-43.5 12q-29 0 -68 -23.5t-74 -58.5z" />
<glyph unicode="&#xd2;" horiz-adv-x="1634" d="M102 717q0 154 54.5 285t149.5 227t226 150.5t285 54.5t285 -54.5t226 -150.5t149.5 -227.5t54.5 -284.5q0 -154 -54.5 -285t-149.5 -227t-226 -150.5t-285 -54.5t-285 54.5t-226 150.5t-149.5 227t-54.5 285zM336 717q0 -104 36 -193.5t100.5 -154t152.5 -100.5t192 -36 t192.5 36t153 100.5t100 153.5t35.5 194q0 104 -35.5 192t-100 152.5t-152.5 101.5t-193 37q-104 0 -192 -37t-152.5 -101.5t-100.5 -152.5t-36 -192zM541 1815l106 170l459 -297l-105 -162z" />
<glyph unicode="&#xd3;" horiz-adv-x="1634" d="M102 717q0 154 54.5 285t149.5 227t226 150.5t285 54.5t285 -54.5t226 -150.5t149.5 -227.5t54.5 -284.5q0 -154 -54.5 -285t-149.5 -227t-226 -150.5t-285 -54.5t-285 54.5t-226 150.5t-149.5 227t-54.5 285zM336 717q0 -104 36 -193.5t100.5 -154t152.5 -100.5t192 -36 t192.5 36t153 100.5t100 153.5t35.5 194q0 104 -35.5 192t-100 152.5t-152.5 101.5t-193 37q-104 0 -192 -37t-152.5 -101.5t-100.5 -152.5t-36 -192zM545 1688l459 297l106 -170l-461 -289z" />
<glyph unicode="&#xd4;" horiz-adv-x="1634" d="M102 717q0 154 54.5 285t149.5 227t226 150.5t285 54.5t285 -54.5t226 -150.5t149.5 -227.5t54.5 -284.5q0 -154 -54.5 -285t-149.5 -227t-226 -150.5t-285 -54.5t-285 54.5t-226 150.5t-149.5 227t-54.5 285zM336 717q0 -104 36 -193.5t100.5 -154t152.5 -100.5t192 -36 t192.5 36t153 100.5t100 153.5t35.5 194q0 104 -35.5 192t-100 152.5t-152.5 101.5t-193 37q-104 0 -192 -37t-152.5 -101.5t-100.5 -152.5t-36 -192zM436 1657l381 325l381 -325l-129 -144l-252 220l-252 -217z" />
<glyph unicode="&#xd5;" horiz-adv-x="1634" d="M102 717q0 154 54.5 285t149.5 227t226 150.5t285 54.5t285 -54.5t226 -150.5t149.5 -227.5t54.5 -284.5q0 -154 -54.5 -285t-149.5 -227t-226 -150.5t-285 -54.5t-285 54.5t-226 150.5t-149.5 227t-54.5 285zM336 717q0 -104 36 -193.5t100.5 -154t152.5 -100.5t192 -36 t192.5 36t153 100.5t100 153.5t35.5 194q0 104 -35.5 192t-100 152.5t-152.5 101.5t-193 37q-104 0 -192 -37t-152.5 -101.5t-100.5 -152.5t-36 -192zM436 1733q25 25 53.5 48t60.5 42.5t65.5 32t68.5 12.5q39 0 71.5 -12.5t59.5 -28t50.5 -27.5t45.5 -12q29 0 68 23.5 t76 58.5l106 -133q-25 -25 -53.5 -48.5t-60 -43t-66.5 -31.5t-70 -12q-45 0 -77.5 12t-58 27.5t-47 27.5t-44.5 12q-29 0 -67.5 -23.5t-73.5 -58.5z" />
<glyph unicode="&#xd6;" horiz-adv-x="1634" d="M84 1483q0 68 46 113.5t114 45.5t113.5 -46t45.5 -113q0 -68 -46 -114t-113 -46q-68 0 -114 46t-46 114zM102 717q0 154 54.5 285t149.5 227t226 150.5t285 54.5t285 -54.5t226 -150.5t149.5 -227.5t54.5 -284.5q0 -154 -54.5 -285t-149.5 -227t-226 -150.5t-285 -54.5 t-285 54.5t-226 150.5t-149.5 227t-54.5 285zM336 717q0 -104 36 -193.5t100.5 -154t152.5 -100.5t192 -36t192.5 36t153 100.5t100 153.5t35.5 194q0 104 -35.5 192t-100 152.5t-152.5 101.5t-193 37q-104 0 -192 -37t-152.5 -101.5t-100.5 -152.5t-36 -192zM1231 1483 q0 68 46 113.5t114 45.5q66 0 111.5 -46t45.5 -113q0 -68 -46 -114t-111 -46q-68 0 -114 46t-46 114z" />
<glyph unicode="&#xd7;" d="M219 311l340 340l-340 344l154 156l342 -342l344 344l155 -158l-342 -344l342 -340l-155 -157l-344 344l-342 -342z" />
<glyph unicode="&#xd8;" horiz-adv-x="1634" d="M102 717q0 154 54.5 285t149.5 227t226 150.5t285 54.5q106 0 201.5 -28t177.5 -75l123 146l145 -127l-118 -140q88 -96 137 -221t49 -272q0 -154 -54.5 -285t-149.5 -227t-226 -150.5t-285 -54.5q-115 0 -214 29.5t-185 85.5l-133 -158l-150 123l137 162 q-80 94 -125 213.5t-45 261.5zM336 717q0 -86 23.5 -160t66.5 -133l614 725q-102 51 -223 51q-104 0 -192 -37t-152.5 -101.5t-100.5 -152.5t-36 -192zM571 295q53 -29 114.5 -45.5t131.5 -16.5q104 0 192.5 36t153 100.5t100 153.5t35.5 194q0 92 -27.5 171t-78.5 140z" />
<glyph unicode="&#xd9;" horiz-adv-x="1603" d="M143 657v777h234v-777q0 -90 32.5 -167.5t89 -135t134.5 -90.5t168 -33q92 0 170 33t134 90.5t89 135t33 167.5v777h233v-777q0 -141 -50 -261t-139 -208t-209 -138t-261 -50q-139 0 -259 50t-209 138t-139.5 208t-50.5 261zM524 1815l107 170l459 -297l-105 -162z" />
<glyph unicode="&#xda;" horiz-adv-x="1603" d="M143 657v777h234v-777q0 -90 32.5 -167.5t89 -135t134.5 -90.5t168 -33q92 0 170 33t134 90.5t89 135t33 167.5v777h233v-777q0 -141 -50 -261t-139 -208t-209 -138t-261 -50q-139 0 -259 50t-209 138t-139.5 208t-50.5 261zM528 1688l459 297l107 -170l-461 -289z" />
<glyph unicode="&#xdb;" horiz-adv-x="1603" d="M143 657v777h234v-777q0 -90 32.5 -167.5t89 -135t134.5 -90.5t168 -33q92 0 170 33t134 90.5t89 135t33 167.5v777h233v-777q0 -141 -50 -261t-139 -208t-209 -138t-261 -50q-139 0 -259 50t-209 138t-139.5 208t-50.5 261zM420 1657l381 325l381 -325l-129 -144 l-252 220l-252 -217z" />
<glyph unicode="&#xdc;" horiz-adv-x="1603" d="M143 657v777h234v-777q0 -90 32.5 -167.5t89 -135t134.5 -90.5t168 -33q92 0 170 33t134 90.5t89 135t33 167.5v777h233v-777q0 -141 -50 -261t-139 -208t-209 -138t-261 -50q-139 0 -259 50t-209 138t-139.5 208t-50.5 261zM418 1483q0 68 46 113.5t114 45.5t113.5 -46 t45.5 -113q0 -68 -46 -114t-113 -46q-68 0 -114 46t-46 114zM868 1483q0 68 46.5 113.5t113.5 45.5q66 0 112 -46t46 -113q0 -68 -46 -114t-112 -46q-68 0 -114 46t-46 114z" />
<glyph unicode="&#xdd;" horiz-adv-x="1413" d="M10 1434h285l412 -596l411 596h285l-580 -836v-598h-233v598zM475 1688l459 297l106 -170l-460 -289z" />
<glyph unicode="&#xde;" horiz-adv-x="1267" d="M164 0v1434h233v-254h275q102 0 189 -35t149.5 -96.5t98.5 -146.5t36 -185t-36 -185.5t-98.5 -146.5t-149.5 -96t-189 -35h-273v-254h-235zM399 487h248q106 0 180 59.5t74 170.5t-73.5 170t-180.5 59h-248v-459z" />
<glyph unicode="&#xdf;" horiz-adv-x="1173" d="M125 -145v1108q0 104 25.5 191t80 149.5t138.5 98.5t198 36q109 0 189 -30t132 -81t76.5 -117.5t24.5 -142.5q0 -86 -34.5 -157.5t-98.5 -116.5q104 -37 173 -129.5t69 -241.5q0 -104 -35 -186t-99.5 -137.5t-153.5 -84t-198 -28.5q-33 0 -70.5 2t-78.5 6v207 q25 -2 47 -2q20 -2 41.5 -2h42.5q61 0 112.5 13t89.5 41t59.5 71t21.5 100q0 61 -28 107t-76 77t-113.5 46.5t-141.5 17.5v198q123 10 187.5 58.5t64.5 140.5q0 72 -56.5 116t-154.5 44t-155.5 -66.5t-57.5 -197.5v-1108h-221z" />
<glyph unicode="&#xe0;" horiz-adv-x="1067" d="M92 309q0 76 27.5 132.5t72 93t102.5 57t120 26.5l293 27q47 4 47 45v39q0 51 -52.5 83t-142.5 32q-92 0 -153.5 -34t-90.5 -128l-198 102q20 61 55 109.5t87 83.5t123 53.5t165 18.5q221 0 324.5 -104.5t103.5 -285.5v-659h-221v113q-45 -53 -114 -93t-179 -40 q-84 0 -151.5 24.5t-116 69.5t-75 104.5t-26.5 130.5zM274 1405l107 170l459 -297l-105 -162zM317 309q0 -53 44.5 -84.5t127.5 -31.5q53 0 101.5 18t84.5 50t57.5 73t21.5 86v41l-305 -37q-68 -8 -100 -41t-32 -74z" />
<glyph unicode="&#xe1;" horiz-adv-x="1067" d="M92 309q0 76 27.5 132.5t72 93t102.5 57t120 26.5l293 27q47 4 47 45v39q0 51 -52.5 83t-142.5 32q-92 0 -153.5 -34t-90.5 -128l-198 102q20 61 55 109.5t87 83.5t123 53.5t165 18.5q221 0 324.5 -104.5t103.5 -285.5v-659h-221v113q-45 -53 -114 -93t-179 -40 q-84 0 -151.5 24.5t-116 69.5t-75 104.5t-26.5 130.5zM274 1278l459 297l107 -170l-461 -289zM317 309q0 -53 44.5 -84.5t127.5 -31.5q53 0 101.5 18t84.5 50t57.5 73t21.5 86v41l-305 -37q-68 -8 -100 -41t-32 -74z" />
<glyph unicode="&#xe2;" horiz-adv-x="1067" d="M92 309q0 76 27.5 132.5t72 93t102.5 57t120 26.5l293 27q47 4 47 45v39q0 51 -52.5 83t-142.5 32q-92 0 -153.5 -34t-90.5 -128l-198 102q20 61 55 109.5t87 83.5t123 53.5t165 18.5q221 0 324.5 -104.5t103.5 -285.5v-659h-221v113q-45 -53 -114 -93t-179 -40 q-84 0 -151.5 24.5t-116 69.5t-75 104.5t-26.5 130.5zM176 1247l381 326l381 -326l-129 -143l-252 219l-252 -217zM317 309q0 -53 44.5 -84.5t127.5 -31.5q53 0 101.5 18t84.5 50t57.5 73t21.5 86v41l-305 -37q-68 -8 -100 -41t-32 -74z" />
<glyph unicode="&#xe3;" horiz-adv-x="1067" d="M92 309q0 76 27.5 132.5t72 93t102.5 57t120 26.5l293 27q47 4 47 45v39q0 51 -52.5 83t-142.5 32q-92 0 -153.5 -34t-90.5 -128l-198 102q20 61 55 109.5t87 83.5t123 53.5t165 18.5q221 0 324.5 -104.5t103.5 -285.5v-659h-221v113q-45 -53 -114 -93t-179 -40 q-84 0 -151.5 24.5t-116 69.5t-75 104.5t-26.5 130.5zM195 1323q25 25 53 48.5t60 43t65.5 31.5t68.5 12q39 0 72 -12t59.5 -27.5t50 -28t46.5 -12.5q29 0 67.5 23.5t75.5 58.5l107 -133q-25 -25 -53.5 -48.5t-60.5 -42.5t-66.5 -31.5t-69.5 -12.5q-45 0 -78 12.5 t-58.5 27.5t-47 27.5t-44.5 12.5q-29 0 -67.5 -23.5t-73.5 -58.5zM317 309q0 -53 44.5 -84.5t127.5 -31.5q53 0 101.5 18t84.5 50t57.5 73t21.5 86v41l-305 -37q-68 -8 -100 -41t-32 -74z" />
<glyph unicode="&#xe4;" horiz-adv-x="1067" d="M92 309q0 76 27.5 132.5t72 93t102.5 57t120 26.5l293 27q47 4 47 45v39q0 51 -52.5 83t-142.5 32q-92 0 -153.5 -34t-90.5 -128l-198 102q20 61 55 109.5t87 83.5t123 53.5t165 18.5q221 0 324.5 -104.5t103.5 -285.5v-659h-221v113q-45 -53 -114 -93t-179 -40 q-84 0 -151.5 24.5t-116 69.5t-75 104.5t-26.5 130.5zM172 1298q0 68 46 114t114 46t114 -46t46 -114t-46.5 -113.5t-113.5 -45.5q-68 0 -114 45.5t-46 113.5zM317 309q0 -53 44.5 -84.5t127.5 -31.5q53 0 101.5 18t84.5 50t57.5 73t21.5 86v41l-305 -37q-68 -8 -100 -41 t-32 -74zM623 1298q0 68 46 114t113 46q66 0 112 -46t46 -114t-46 -113.5t-112 -45.5q-68 0 -113.5 45.5t-45.5 113.5z" />
<glyph unicode="&#xe5;" horiz-adv-x="1067" d="M92 309q0 76 27.5 132.5t72 93t102.5 57t120 26.5l293 27q47 4 47 45v39q0 51 -52.5 83t-142.5 32q-92 0 -153.5 -34t-90.5 -128l-198 102q20 61 55 109.5t87 83.5t123 53.5t165 18.5q221 0 324.5 -104.5t103.5 -285.5v-659h-221v113q-45 -53 -114 -93t-179 -40 q-84 0 -151.5 24.5t-116 69.5t-75 104.5t-26.5 130.5zM287 1393q0 57 20.5 106t56 85t85 56.5t106.5 20.5t106.5 -20.5t85 -56.5t56 -85t20.5 -106t-20.5 -106.5t-56 -85.5t-85 -56.5t-106.5 -20.5t-106.5 20.5t-85 56.5t-56 85.5t-20.5 106.5zM317 309q0 -53 44.5 -84.5 t127.5 -31.5q53 0 101.5 18t84.5 50t57.5 73t21.5 86v41l-305 -37q-68 -8 -100 -41t-32 -74zM459 1393q0 -45 26.5 -71t69.5 -26q45 0 70.5 26t25.5 71t-25.5 70.5t-70.5 25.5q-43 0 -69.5 -25.5t-26.5 -70.5z" />
<glyph unicode="&#xe6;" horiz-adv-x="1753" d="M92 309q0 76 27.5 132.5t72 93t102.5 57t120 26.5l295 27q23 2 34 15.5t11 29.5v39q0 51 -52.5 83t-142.5 32q-92 0 -153.5 -34t-90.5 -128l-198 102q43 121 143 193t291 72q117 0 203 -38t137 -100q59 66 145 102t197 36t197 -41t146 -113t93 -170t33 -211v-80h-739 q12 -117 80.5 -181.5t175.5 -64.5q111 0 183.5 41t131.5 107l115 -168q-35 -39 -76 -74t-91 -61.5t-113.5 -42t-145.5 -15.5q-119 0 -214.5 50.5t-156.5 136.5q-25 -35 -59.5 -67t-80.5 -58.5t-108.5 -41.5t-142.5 -15q-84 0 -151.5 24.5t-116 69.5t-75 104.5t-26.5 130.5z M317 309q0 -53 44.5 -84.5t127.5 -31.5q53 0 101.5 18t84.5 50t57.5 73t21.5 86v41l-305 -37q-66 -8 -99 -41t-33 -74zM979 625l481 -2q-18 100 -76.5 156.5t-162.5 56.5q-96 0 -159 -54.5t-83 -156.5z" />
<glyph unicode="&#xe7;" horiz-adv-x="1028" d="M61 512q0 119 41 218t112 170t167 110t209 39q123 0 219 -45.5t168 -120.5l-139 -170q-35 47 -100.5 85t-151.5 38q-59 0 -113.5 -21.5t-94.5 -62.5t-63.5 -101.5t-23.5 -138.5t23.5 -138.5t63.5 -101.5t94 -62.5t114 -21.5q86 0 151.5 37t110.5 88l129 -176 q-43 -47 -113.5 -91t-169.5 -60q37 -53 53.5 -101.5t16.5 -91.5q0 -98 -61.5 -150.5t-143.5 -52.5q-43 0 -81 10.5t-72 26.5v174q39 -14 66.5 -21t53.5 -7q16 0 32.5 12t16.5 41t-15 65.5t-56 90.5q-96 14 -177 58t-140.5 112.5t-92.5 159.5t-33 200z" />
<glyph unicode="&#xe8;" horiz-adv-x="1112" d="M61 514q0 106 35 203.5t101.5 171.5t161 117t212.5 43q111 0 202 -41t154.5 -113t98.5 -170t35 -211v-80h-776q16 -119 97 -182.5t189 -63.5q111 0 185.5 42t134.5 110l117 -172q-35 -39 -77 -74t-95.5 -61.5t-118 -42t-146.5 -15.5q-111 0 -204 40t-160.5 111 t-106.5 170t-39 218zM301 623h518q-18 102 -80.5 157.5t-167.5 55.5q-104 0 -174.5 -57.5t-95.5 -155.5zM334 1405l106 170l459 -297l-104 -162z" />
<glyph unicode="&#xe9;" horiz-adv-x="1112" d="M61 514q0 106 35 203.5t101.5 171.5t161 117t212.5 43q111 0 202 -41t154.5 -113t98.5 -170t35 -211v-80h-776q16 -119 97 -182.5t189 -63.5q111 0 185.5 42t134.5 110l117 -172q-35 -39 -77 -74t-95.5 -61.5t-118 -42t-146.5 -15.5q-111 0 -204 40t-160.5 111 t-106.5 170t-39 218zM293 1278l459 297l106 -170l-461 -289zM301 623h518q-18 102 -80.5 157.5t-167.5 55.5q-104 0 -174.5 -57.5t-95.5 -155.5z" />
<glyph unicode="&#xea;" horiz-adv-x="1112" d="M61 514q0 106 35 203.5t101.5 171.5t161 117t212.5 43q111 0 202 -41t154.5 -113t98.5 -170t35 -211v-80h-776q16 -119 97 -182.5t189 -63.5q111 0 185.5 42t134.5 110l117 -172q-35 -39 -77 -74t-95.5 -61.5t-118 -42t-146.5 -15.5q-111 0 -204 40t-160.5 111 t-106.5 170t-39 218zM188 1247l381 326l381 -326l-129 -143l-252 219l-252 -217zM301 623h518q-18 102 -80.5 157.5t-167.5 55.5q-104 0 -174.5 -57.5t-95.5 -155.5z" />
<glyph unicode="&#xeb;" horiz-adv-x="1112" d="M61 514q0 106 35 203.5t101.5 171.5t161 117t212.5 43q111 0 202 -41t154.5 -113t98.5 -170t35 -211v-80h-776q16 -119 97 -182.5t189 -63.5q111 0 185.5 42t134.5 110l117 -172q-35 -39 -77 -74t-95.5 -61.5t-118 -42t-146.5 -15.5q-111 0 -204 40t-160.5 111 t-106.5 170t-39 218zM182 1298q0 68 46 114t114 46t114 -46t46 -114t-46 -113.5t-114 -45.5t-114 45.5t-46 113.5zM301 623h518q-18 102 -80.5 157.5t-167.5 55.5q-104 0 -174.5 -57.5t-95.5 -155.5zM633 1298q0 68 46 114t114 46q66 0 111.5 -46t45.5 -114t-46 -113.5 t-111 -45.5q-68 0 -114 45.5t-46 113.5z" />
<glyph unicode="&#xec;" horiz-adv-x="524" d="M-20 1405l106 170l459 -297l-105 -162zM145 0v1024h222v-1024h-222z" />
<glyph unicode="&#xed;" horiz-adv-x="524" d="M-20 1278l458 297l107 -170l-461 -289zM145 0v1024h222v-1024h-222z" />
<glyph unicode="&#xee;" horiz-adv-x="524" d="M-119 1247l381 326l381 -326l-129 -143l-252 219l-252 -217zM145 0v1024h222v-1024h-222z" />
<glyph unicode="&#xef;" horiz-adv-x="524" d="M-121 1298q0 68 46 114t114 46t114 -46t46 -114t-46.5 -113.5t-113.5 -45.5q-68 0 -114 45.5t-46 113.5zM145 0v1024h222v-1024h-222zM330 1298q0 68 46 114t113 46q66 0 112 -46t46 -114t-46 -113.5t-112 -45.5q-68 0 -113.5 45.5t-45.5 113.5z" />
<glyph unicode="&#xf0;" horiz-adv-x="1183" d="M61 512q0 119 40 218t110 170t162 110t196 39q31 0 70 -6.5t80 -19.5t81 -36.5t77 -56.5q-27 94 -74 171t-113 138l-201 -137l-102 141l156 107q-86 51 -185 90l72 166q84 -29 154.5 -63t132.5 -75l180 123l102 -143l-141 -96q147 -152 205.5 -337.5t58.5 -373.5 q0 -170 -40 -295t-112.5 -208t-173 -123t-218.5 -40q-111 0 -206.5 39t-164 110t-107.5 170t-39 218zM291 514q0 -72 21.5 -132t61.5 -103t94 -67t120 -24q63 0 119.5 22.5t98.5 64.5t66.5 102.5t24.5 136.5q0 68 -20.5 126t-60.5 101t-97 69t-131 26q-135 0 -216 -88.5 t-81 -233.5z" />
<glyph unicode="&#xf1;" horiz-adv-x="1185" d="M143 0v1024h217v-104q53 59 128 94t167 35q104 0 177 -34t120 -94.5t68.5 -143.5t21.5 -179v-598h-221v598q0 109 -46 173.5t-157 64.5q-53 0 -99 -16.5t-82 -58.5t-56.5 -110.5t-20.5 -173.5v-477h-217zM250 1323q25 25 53.5 48.5t60 43t65.5 31.5t69 12q39 0 71.5 -12 t59 -27.5t50 -28t46.5 -12.5q29 0 67.5 23.5t75.5 58.5l107 -133q-25 -25 -53.5 -48.5t-60.5 -42.5t-66.5 -31.5t-69.5 -12.5q-45 0 -78 12.5t-58.5 27.5t-47 27.5t-43.5 12.5q-29 0 -68 -23.5t-74 -58.5z" />
<glyph unicode="&#xf2;" horiz-adv-x="1191" d="M61 512q0 111 42 209t114 171t170 115t209 42t209 -42t170 -115t113.5 -171t41.5 -209t-41.5 -209t-113.5 -171t-170 -115t-209 -42t-209 42t-170 115t-114 171t-42 209zM291 512q0 -68 22.5 -126t63.5 -102t96 -70t123 -26t123 26t96 70t63.5 102t22.5 126t-22.5 126 t-63.5 102t-96 70t-123 26t-123 -26t-96 -70t-63.5 -102t-22.5 -126zM313 1405l107 170l459 -297l-105 -162z" />
<glyph unicode="&#xf3;" horiz-adv-x="1191" d="M61 512q0 111 42 209t114 171t170 115t209 42t209 -42t170 -115t113.5 -171t41.5 -209t-41.5 -209t-113.5 -171t-170 -115t-209 -42t-209 42t-170 115t-114 171t-42 209zM291 512q0 -68 22.5 -126t63.5 -102t96 -70t123 -26t123 26t96 70t63.5 102t22.5 126t-22.5 126 t-63.5 102t-96 70t-123 26t-123 -26t-96 -70t-63.5 -102t-22.5 -126zM334 1278l459 297l106 -170l-461 -289z" />
<glyph unicode="&#xf4;" horiz-adv-x="1191" d="M61 512q0 111 42 209t114 171t170 115t209 42t209 -42t170 -115t113.5 -171t41.5 -209t-41.5 -209t-113.5 -171t-170 -115t-209 -42t-209 42t-170 115t-114 171t-42 209zM215 1247l381 326l381 -326l-129 -143l-252 219l-252 -217zM291 512q0 -68 22.5 -126t63.5 -102 t96 -70t123 -26t123 26t96 70t63.5 102t22.5 126t-22.5 126t-63.5 102t-96 70t-123 26t-123 -26t-96 -70t-63.5 -102t-22.5 -126z" />
<glyph unicode="&#xf5;" horiz-adv-x="1191" d="M61 512q0 111 42 209t114 171t170 115t209 42t209 -42t170 -115t113.5 -171t41.5 -209t-41.5 -209t-113.5 -171t-170 -115t-209 -42t-209 42t-170 115t-114 171t-42 209zM233 1323q25 25 53.5 48.5t60.5 43t65.5 31.5t68.5 12q39 0 72 -12t59.5 -27.5t50 -28t46.5 -12.5 q29 0 67.5 23.5t75.5 58.5l106 -133q-25 -25 -53 -48.5t-60 -42.5t-67 -31.5t-69 -12.5q-45 0 -78 12.5t-58.5 27.5t-47 27.5t-44.5 12.5q-29 0 -67.5 -23.5t-73.5 -58.5zM291 512q0 -68 22.5 -126t63.5 -102t96 -70t123 -26t123 26t96 70t63.5 102t22.5 126t-22.5 126 t-63.5 102t-96 70t-123 26t-123 -26t-96 -70t-63.5 -102t-22.5 -126z" />
<glyph unicode="&#xf6;" horiz-adv-x="1191" d="M61 512q0 111 42 209t114 171t170 115t209 42t209 -42t170 -115t113.5 -171t41.5 -209t-41.5 -209t-113.5 -171t-170 -115t-209 -42t-209 42t-170 115t-114 171t-42 209zM211 1298q0 68 46 114t114 46t113.5 -46t45.5 -114t-46 -113.5t-113 -45.5q-68 0 -114 45.5 t-46 113.5zM291 512q0 -68 22.5 -126t63.5 -102t96 -70t123 -26t123 26t96 70t63.5 102t22.5 126t-22.5 126t-63.5 102t-96 70t-123 26t-123 -26t-96 -70t-63.5 -102t-22.5 -126zM662 1298q0 68 46 114t113 46q66 0 112 -46t46 -114t-46 -113.5t-112 -45.5 q-68 0 -113.5 45.5t-45.5 113.5z" />
<glyph unicode="&#xf7;" d="M158 543v225h1116v-225h-1116zM518 270q0 78 51.5 129.5t126.5 51.5q76 0 128.5 -51.5t52.5 -129.5q0 -76 -52.5 -127t-128.5 -51t-127 51t-51 127zM518 1038q0 76 51.5 128.5t126.5 52.5q76 0 128.5 -52.5t52.5 -128.5t-52.5 -127t-128.5 -51t-127 51t-51 127z" />
<glyph unicode="&#xf8;" horiz-adv-x="1193" d="M61 512q0 111 42 209t114 171t170 115t209 42q78 0 147.5 -20.5t130.5 -57.5l82 96l144 -127l-82 -98q53 -68 82.5 -152t29.5 -178q0 -111 -41.5 -209t-113.5 -171t-170 -115t-209 -42q-72 0 -136.5 17.5t-121.5 48.5l-72 -84l-147 123l69 82q-59 72 -93 160t-34 190z M291 512q0 -96 45 -176l397 467q-66 33 -137 33q-68 0 -123 -26t-96 -70t-63.5 -102t-22.5 -126zM481 209q49 -21 115 -21q68 0 123 26t96 70t63.5 102t22.5 126q0 80 -35 154z" />
<glyph unicode="&#xf9;" horiz-adv-x="1171" d="M143 426v598h222v-598q0 -109 42.5 -173.5t151.5 -64.5q68 0 115 26t77.5 72t45 108.5t14.5 133.5v496h217v-1024h-217v115q-51 -59 -122 -99.5t-167 -40.5q-104 0 -176 34t-117 94.5t-65.5 143.5t-20.5 179zM221 1405l107 170l458 -297l-104 -162z" />
<glyph unicode="&#xfa;" horiz-adv-x="1171" d="M143 426v598h222v-598q0 -109 42.5 -173.5t151.5 -64.5q68 0 115 26t77.5 72t45 108.5t14.5 133.5v496h217v-1024h-217v115q-51 -59 -122 -99.5t-167 -40.5q-104 0 -176 34t-117 94.5t-65.5 143.5t-20.5 179zM385 1278l459 297l106 -170l-461 -289z" />
<glyph unicode="&#xfb;" horiz-adv-x="1171" d="M143 426v598h222v-598q0 -109 42.5 -173.5t151.5 -64.5q68 0 115 26t77.5 72t45 108.5t14.5 133.5v496h217v-1024h-217v115q-51 -59 -122 -99.5t-167 -40.5q-104 0 -176 34t-117 94.5t-65.5 143.5t-20.5 179zM205 1247l381 326l381 -326l-129 -143l-252 219l-252 -217z " />
<glyph unicode="&#xfc;" horiz-adv-x="1171" d="M143 426v598h222v-598q0 -109 42.5 -173.5t151.5 -64.5q68 0 115 26t77.5 72t45 108.5t14.5 133.5v496h217v-1024h-217v115q-51 -59 -122 -99.5t-167 -40.5q-104 0 -176 34t-117 94.5t-65.5 143.5t-20.5 179zM201 1298q0 68 46 114t113 46q68 0 114 -46t46 -114 t-46 -113.5t-114 -45.5t-113.5 45.5t-45.5 113.5zM651 1298q0 68 46 114t114 46q66 0 112 -46t46 -114t-46 -113.5t-112 -45.5q-68 0 -114 45.5t-46 113.5z" />
<glyph unicode="&#xfd;" horiz-adv-x="1105" d="M20 1024h263l292 -606l285 606h236l-664 -1434h-239l262 570zM270 1278l459 297l107 -170l-461 -289z" />
<glyph unicode="&#xfe;" horiz-adv-x="1230" d="M143 -410v1844h217v-535q59 53 136 89t176 36q111 0 202 -36t157.5 -102.5t102 -160.5t35.5 -213t-36.5 -213t-102 -160.5t-157 -102.5t-199.5 -36q-190 0 -314 123v-533h-217zM350 512q0 -139 80 -219t225 -80q131 0 208 82t77 217t-77 217t-208 82q-145 0 -225 -80 t-80 -219z" />
<glyph unicode="&#xff;" horiz-adv-x="1105" d="M20 1024h263l292 -606l285 606h236l-664 -1434h-239l262 570zM168 1298q0 68 46 114t114 46t113.5 -46t45.5 -114t-46 -113.5t-113 -45.5q-68 0 -114 45.5t-46 113.5zM618 1298q0 68 46.5 114t113.5 46q66 0 112 -46t46 -114t-46 -113.5t-112 -45.5q-68 0 -114 45.5 t-46 113.5z" />
<glyph unicode="&#x100;" horiz-adv-x="1601" d="M20 0l668 1434h225l668 -1434h-260l-111 242h-821l-110 -242h-259zM494 1642v185h593v-185h-593zM500 475h602l-301 647z" />
<glyph unicode="&#x101;" horiz-adv-x="1067" d="M92 309q0 76 27.5 132.5t72 93t102.5 57t120 26.5l293 27q47 4 47 45v39q0 51 -52.5 83t-142.5 32q-92 0 -153.5 -34t-90.5 -128l-198 102q20 61 55 109.5t87 83.5t123 53.5t165 18.5q221 0 324.5 -104.5t103.5 -285.5v-659h-221v113q-45 -53 -114 -93t-179 -40 q-84 0 -151.5 24.5t-116 69.5t-75 104.5t-26.5 130.5zM260 1233v184h594v-184h-594zM317 309q0 -53 44.5 -84.5t127.5 -31.5q53 0 101.5 18t84.5 50t57.5 73t21.5 86v41l-305 -37q-68 -8 -100 -41t-32 -74z" />
<glyph unicode="&#x102;" horiz-adv-x="1601" d="M20 0l668 1434h225l668 -1434h-260l-111 242h-821l-110 -242h-259zM494 1919h182q0 -72 32.5 -109.5t92.5 -37.5q59 0 92 37.5t33 109.5h182q0 -147 -81 -238.5t-226 -91.5q-143 0 -225 91.5t-82 238.5zM500 475h602l-301 647z" />
<glyph unicode="&#x103;" horiz-adv-x="1067" d="M92 309q0 76 27.5 132.5t72 93t102.5 57t120 26.5l293 27q47 4 47 45v39q0 51 -52.5 83t-142.5 32q-92 0 -153.5 -34t-90.5 -128l-198 102q20 61 55 109.5t87 83.5t123 53.5t165 18.5q221 0 324.5 -104.5t103.5 -285.5v-659h-221v113q-45 -53 -114 -93t-179 -40 q-84 0 -151.5 24.5t-116 69.5t-75 104.5t-26.5 130.5zM250 1509h182q0 -72 33 -109.5t92 -37.5t92 38t33 109h182q0 -147 -81 -238t-226 -91q-143 0 -225 91t-82 238zM317 309q0 -53 44.5 -84.5t127.5 -31.5q53 0 101.5 18t84.5 50t57.5 73t21.5 86v41l-305 -37 q-68 -8 -100 -41t-32 -74z" />
<glyph unicode="&#x104;" horiz-adv-x="1601" d="M20 0l668 1434h225l668 -1434h-141q-49 -59 -67.5 -101t-18.5 -73q0 -29 16 -41t33 -12q27 0 54.5 7t66.5 21v-174q-35 -16 -73 -26.5t-81 -10.5q-82 0 -143.5 52.5t-61.5 150.5q0 57 29 124t98 144l-82 181h-821l-110 -242h-259zM500 475h602l-301 647z" />
<glyph unicode="&#x105;" horiz-adv-x="1067" d="M92 309q0 76 27.5 132.5t72 93t102.5 57t120 26.5l293 27q47 4 47 45v39q0 51 -52.5 83t-142.5 32q-92 0 -153.5 -34t-90.5 -128l-198 102q20 61 55 109.5t87 83.5t123 53.5t165 18.5q221 0 324.5 -104.5t103.5 -285.5v-659h-86q-49 -59 -67.5 -101t-18.5 -73 q0 -29 16.5 -41t32.5 -12q27 0 54.5 7t66.5 21v-174q-35 -16 -73 -26.5t-81 -10.5q-82 0 -143.5 52.5t-61.5 150.5q0 59 31 128t109 153v39q-45 -53 -114 -93t-179 -40q-84 0 -151.5 24.5t-116 69.5t-75 104.5t-26.5 130.5zM317 309q0 -53 44.5 -84.5t127.5 -31.5 q53 0 101.5 18t84.5 50t57.5 73t21.5 86v41l-305 -37q-68 -8 -100 -41t-32 -74z" />
<glyph unicode="&#x106;" horiz-adv-x="1363" d="M102 717q0 154 54.5 285t150.5 227t227.5 150.5t284.5 54.5q154 0 282 -57.5t232 -162.5l-108 -223q-78 98 -182.5 153.5t-223.5 55.5q-106 0 -195 -35t-152.5 -98t-99.5 -152.5t-36 -197.5q0 -109 36 -198t99.5 -152.5t152.5 -98.5t195 -35q53 0 122 16.5t142 57.5 l41 -239q-80 -37 -156.5 -52.5t-148.5 -15.5q-154 0 -285 54.5t-227 150.5t-150.5 227t-54.5 285zM522 1688l459 297l106 -170l-460 -289z" />
<glyph unicode="&#x107;" horiz-adv-x="1028" d="M61 512q0 119 41 218t112 170t167 110t209 39q123 0 219 -45.5t168 -120.5l-139 -170q-35 47 -100.5 85t-151.5 38q-59 0 -113.5 -21.5t-94.5 -62.5t-63.5 -101.5t-23.5 -138.5t23.5 -138.5t63.5 -101.5t94 -62.5t114 -21.5q86 0 151.5 37t110.5 88l129 -176 q-27 -29 -65 -57.5t-86 -52t-107.5 -38t-128.5 -14.5q-113 0 -209 39t-167 110t-112 170t-41 218zM295 1278l459 297l106 -170l-461 -289z" />
<glyph unicode="&#x108;" horiz-adv-x="1363" d="M102 717q0 154 54.5 285t150.5 227t227.5 150.5t284.5 54.5q154 0 282 -57.5t232 -162.5l-108 -223q-78 98 -182.5 153.5t-223.5 55.5q-106 0 -195 -35t-152.5 -98t-99.5 -152.5t-36 -197.5q0 -109 36 -198t99.5 -152.5t152.5 -98.5t195 -35q53 0 122 16.5t142 57.5 l41 -239q-80 -37 -156.5 -52.5t-148.5 -15.5q-154 0 -285 54.5t-227 150.5t-150.5 227t-54.5 285zM414 1657l381 325l381 -325l-129 -144l-252 220l-252 -217z" />
<glyph unicode="&#x109;" horiz-adv-x="1028" d="M61 512q0 119 41 218t112 170t167 110t209 39q123 0 219 -45.5t168 -120.5l-139 -170q-35 47 -100.5 85t-151.5 38q-59 0 -113.5 -21.5t-94.5 -62.5t-63.5 -101.5t-23.5 -138.5t23.5 -138.5t63.5 -101.5t94 -62.5t114 -21.5q86 0 151.5 37t110.5 88l129 -176 q-27 -29 -65 -57.5t-86 -52t-107.5 -38t-128.5 -14.5q-113 0 -209 39t-167 110t-112 170t-41 218zM188 1247l381 326l381 -326l-129 -143l-252 219l-252 -217z" />
<glyph unicode="&#x10a;" horiz-adv-x="1363" d="M102 717q0 154 54.5 285t150.5 227t227.5 150.5t284.5 54.5q154 0 282 -57.5t232 -162.5l-108 -223q-78 98 -182.5 153.5t-223.5 55.5q-106 0 -195 -35t-152.5 -98t-99.5 -152.5t-36 -197.5q0 -109 36 -198t99.5 -152.5t152.5 -98.5t195 -35q53 0 122 16.5t142 57.5 l41 -239q-80 -37 -156.5 -52.5t-148.5 -15.5q-154 0 -285 54.5t-227 150.5t-150.5 227t-54.5 285zM629 1722q0 70 48 118t118 48t118 -48t48 -118t-48.5 -118t-117.5 -48q-70 0 -118 48t-48 118z" />
<glyph unicode="&#x10b;" horiz-adv-x="1028" d="M61 512q0 119 41 218t112 170t167 110t209 39q123 0 219 -45.5t168 -120.5l-139 -170q-35 47 -100.5 85t-151.5 38q-59 0 -113.5 -21.5t-94.5 -62.5t-63.5 -101.5t-23.5 -138.5t23.5 -138.5t63.5 -101.5t94 -62.5t114 -21.5q86 0 151.5 37t110.5 88l129 -176 q-27 -29 -65 -57.5t-86 -52t-107.5 -38t-128.5 -14.5q-113 0 -209 39t-167 110t-112 170t-41 218zM389 1313q0 70 48 118t118 48t118 -48.5t48 -117.5q0 -70 -48 -118t-118 -48t-118 48t-48 118z" />
<glyph unicode="&#x10c;" horiz-adv-x="1363" d="M102 717q0 154 54.5 285t150.5 227t227.5 150.5t284.5 54.5q154 0 282 -57.5t232 -162.5l-108 -223q-78 98 -182.5 153.5t-223.5 55.5q-106 0 -195 -35t-152.5 -98t-99.5 -152.5t-36 -197.5q0 -109 36 -198t99.5 -152.5t152.5 -98.5t195 -35q53 0 122 16.5t142 57.5 l41 -239q-80 -37 -156.5 -52.5t-148.5 -15.5q-154 0 -285 54.5t-227 150.5t-150.5 227t-54.5 285zM414 1862l129 141l252 -219l252 219l129 -141l-381 -326z" />
<glyph unicode="&#x10d;" horiz-adv-x="1028" d="M61 512q0 119 41 218t112 170t167 110t209 39q123 0 219 -45.5t168 -120.5l-139 -170q-35 47 -100.5 85t-151.5 38q-59 0 -113.5 -21.5t-94.5 -62.5t-63.5 -101.5t-23.5 -138.5t23.5 -138.5t63.5 -101.5t94 -62.5t114 -21.5q86 0 151.5 37t110.5 88l129 -176 q-27 -29 -65 -57.5t-86 -52t-107.5 -38t-128.5 -14.5q-113 0 -209 39t-167 110t-112 170t-41 218zM174 1452l129 141l252 -219l252 219l129 -141l-381 -326z" />
<glyph unicode="&#x10e;" horiz-adv-x="1482" d="M164 0v1434h502q152 0 282.5 -54.5t227 -149.5t150.5 -226.5t54 -286.5q0 -156 -54 -287t-150.5 -226t-227.5 -149.5t-282 -54.5h-502zM229 1862l129 141l252 -219l252 219l129 -141l-381 -326zM397 233h269q104 0 192 36t152.5 100.5t100.5 152.5t36 195q0 106 -36 194 t-100.5 152.5t-152.5 100.5t-192 36h-269v-967z" />
<glyph unicode="&#x10f;" horiz-adv-x="1560" d="M61 512q0 123 37 222.5t104.5 169t160.5 107.5t206 38q96 0 174 -35t125 -82v502h217v-1434h-217v113q-43 -51 -120.5 -94.5t-178.5 -43.5q-113 0 -206 38t-160.5 107.5t-104.5 169t-37 222.5zM291 512q0 -72 20.5 -131t59.5 -102t93 -67t122 -24q141 0 218 90.5 t77 237.5t-77 233.5t-218 86.5q-68 0 -122 -24t-93 -67t-59.5 -102t-20.5 -131zM1182 973l102 178q-43 20 -67.5 59t-24.5 82q0 31 12.5 60.5t34 53.5t51 38t64.5 14q37 0 67.5 -14t52 -38t34 -52.5t12.5 -57.5q0 -25 -8.5 -47t-18.5 -39l-178 -315z" />
<glyph unicode="&#x110;" horiz-adv-x="1482" d="M0 616v213h164v605h502q152 0 282.5 -54.5t227 -149.5t150.5 -226.5t54 -286.5q0 -156 -54 -287t-150.5 -226t-227.5 -149.5t-282 -54.5h-502v616h-164zM397 233h269q104 0 192 36t152.5 100.5t100.5 152.5t36 195q0 106 -36 194t-100.5 152.5t-152.5 100.5t-192 36h-269 v-371h297v-213h-297v-383z" />
<glyph unicode="&#x111;" horiz-adv-x="1228" d="M61 512q0 123 37 222.5t104.5 169t161 107.5t205.5 38q96 0 174 -35t125 -82v225h-198v162h198v115h217v-115h121v-162h-121v-1157h-217v113q-43 -51 -120.5 -94.5t-178.5 -43.5q-113 0 -206 38t-160.5 107.5t-104.5 169t-37 222.5zM291 512q0 -72 20.5 -131t59.5 -102 t93 -67t122 -24q141 0 218 90.5t77 237.5t-77 233.5t-218 86.5q-68 0 -122 -24t-93 -67t-59.5 -102t-20.5 -131z" />
<glyph unicode="&#x112;" horiz-adv-x="1179" d="M164 0v1434h903v-234h-670v-366h670v-234h-670v-367h670v-233h-903zM299 1642v185h594v-185h-594z" />
<glyph unicode="&#x113;" horiz-adv-x="1112" d="M61 514q0 106 35 203.5t101.5 171.5t161 117t212.5 43q111 0 202 -41t154.5 -113t98.5 -170t35 -211v-80h-776q16 -119 97 -182.5t189 -63.5q111 0 185.5 42t134.5 110l117 -172q-35 -39 -77 -74t-95.5 -61.5t-118 -42t-146.5 -15.5q-111 0 -204 40t-160.5 111 t-106.5 170t-39 218zM279 1233v184h593v-184h-593zM301 623h518q-18 102 -80.5 157.5t-167.5 55.5q-104 0 -174.5 -57.5t-95.5 -155.5z" />
<glyph unicode="&#x114;" horiz-adv-x="1179" d="M164 0v1434h903v-234h-670v-366h670v-234h-670v-367h670v-233h-903zM299 1919h182q0 -72 33 -109.5t92 -37.5t92 37.5t33 109.5h182q0 -147 -80.5 -238.5t-226.5 -91.5q-143 0 -225 91.5t-82 238.5z" />
<glyph unicode="&#x115;" horiz-adv-x="1112" d="M61 514q0 106 35 203.5t101.5 171.5t161 117t212.5 43q111 0 202 -41t154.5 -113t98.5 -170t35 -211v-80h-776q16 -119 97 -182.5t189 -63.5q111 0 185.5 42t134.5 110l117 -172q-35 -39 -77 -74t-95.5 -61.5t-118 -42t-146.5 -15.5q-111 0 -204 40t-160.5 111 t-106.5 170t-39 218zM260 1509h182q0 -72 33 -109.5t92 -37.5t92 38t33 109h182q0 -147 -80.5 -238t-226.5 -91q-143 0 -225 91t-82 238zM301 623h518q-18 102 -80.5 157.5t-167.5 55.5q-104 0 -174.5 -57.5t-95.5 -155.5z" />
<glyph unicode="&#x116;" horiz-adv-x="1179" d="M164 0v1434h903v-234h-670v-366h670v-234h-670v-367h670v-233h-903zM440 1722q0 70 48.5 118t117.5 48q70 0 118 -48t48 -118t-48 -118t-118 -48t-118 48t-48 118z" />
<glyph unicode="&#x117;" horiz-adv-x="1112" d="M61 514q0 106 35 203.5t101.5 171.5t161 117t212.5 43q111 0 202 -41t154.5 -113t98.5 -170t35 -211v-80h-776q16 -119 97 -182.5t189 -63.5q111 0 185.5 42t134.5 110l117 -172q-35 -39 -77 -74t-95.5 -61.5t-118 -42t-146.5 -15.5q-111 0 -204 40t-160.5 111 t-106.5 170t-39 218zM301 623h518q-18 102 -80.5 157.5t-167.5 55.5q-104 0 -174.5 -57.5t-95.5 -155.5zM401 1313q0 70 48.5 118t117.5 48q70 0 118 -48.5t48 -117.5q0 -70 -48 -118t-118 -48t-118 48t-48 118z" />
<glyph unicode="&#x118;" horiz-adv-x="1179" d="M164 0v1434h903v-234h-670v-366h670v-234h-670v-367h670v-233h-92q-49 -59 -67.5 -101t-18.5 -73q0 -29 16.5 -41t32.5 -12q27 0 54.5 7t66.5 21v-174q-35 -16 -73 -26.5t-81 -10.5q-82 0 -143.5 52.5t-61.5 150.5q0 47 18.5 97.5t59.5 109.5h-614z" />
<glyph unicode="&#x119;" horiz-adv-x="1112" d="M61 514q0 106 35 203.5t101.5 171.5t161 117t212.5 43q111 0 202 -41t154.5 -113t98.5 -170t35 -211v-80h-776q16 -119 97 -182.5t189 -63.5q111 0 185.5 42t134.5 110l117 -172q-66 -72 -158 -127t-234 -64q-39 -51 -53 -87.5t-14 -63.5q0 -29 16.5 -41t32.5 -12 q27 0 54.5 7t66.5 21v-174q-35 -16 -73 -26.5t-81 -10.5q-82 0 -143.5 52.5t-61.5 150.5q0 45 16.5 94.5t57.5 106.5q-84 20 -152.5 66t-117.5 114t-76 154t-27 186zM301 623h518q-18 102 -80.5 157.5t-167.5 55.5q-104 0 -174.5 -57.5t-95.5 -155.5z" />
<glyph unicode="&#x11a;" horiz-adv-x="1179" d="M164 0v1434h903v-234h-670v-366h670v-234h-670v-367h670v-233h-903zM225 1862l129 141l252 -219l252 219l129 -141l-381 -326z" />
<glyph unicode="&#x11b;" horiz-adv-x="1112" d="M61 514q0 106 35 203.5t101.5 171.5t161 117t212.5 43q111 0 202 -41t154.5 -113t98.5 -170t35 -211v-80h-776q16 -119 97 -182.5t189 -63.5q111 0 185.5 42t134.5 110l117 -172q-35 -39 -77 -74t-95.5 -61.5t-118 -42t-146.5 -15.5q-111 0 -204 40t-160.5 111 t-106.5 170t-39 218zM178 1452l129 141l252 -219l252 219l129 -141l-381 -326zM301 623h518q-18 102 -80.5 157.5t-167.5 55.5q-104 0 -174.5 -57.5t-95.5 -155.5z" />
<glyph unicode="&#x11c;" horiz-adv-x="1363" d="M102 717q0 154 54.5 285t150.5 227t227.5 150.5t284.5 54.5q154 0 282 -57.5t232 -162.5l-108 -223q-78 98 -182.5 153.5t-223.5 55.5q-106 0 -195 -35t-152.5 -98t-99.5 -152.5t-36 -197.5q0 -109 36 -198t99.5 -152.5t152.5 -98.5t195 -35q20 0 42 3.5t46 7.5v305h-317 v233h551v-708q-82 -35 -169 -54.5t-153 -19.5q-154 0 -285 54.5t-227 150.5t-150.5 227t-54.5 285zM393 1657l381 325l381 -325l-129 -144l-252 220l-252 -217z" />
<glyph unicode="&#x11d;" horiz-adv-x="1253" d="M82 512q0 123 38 222.5t105.5 170t160.5 108.5t206 38q98 0 176 -36t125 -89v98h217v-944q0 -90 -21.5 -181.5t-77 -166t-149.5 -121.5t-241 -47q-96 0 -171 19.5t-133.5 53t-101.5 80.5t-76 101l166 129q53 -96 134 -138t192 -42q80 0 132 29.5t83 74.5t42 100.5 t11 108.5v33q-47 -59 -128 -98.5t-179 -39.5q-113 0 -206 38t-160.5 107.5t-105.5 169t-38 222.5zM246 1247l381 326l381 -326l-129 -143l-252 219l-252 -217zM311 512q0 -72 21.5 -131t60.5 -102t94.5 -67t122.5 -24q141 0 218 90.5t77 237.5t-77 234.5t-218 87.5 q-68 0 -123 -25t-94 -68t-60.5 -102t-21.5 -131z" />
<glyph unicode="&#x11e;" horiz-adv-x="1363" d="M102 717q0 154 54.5 285t150.5 227t227.5 150.5t284.5 54.5q154 0 282 -57.5t232 -162.5l-108 -223q-78 98 -182.5 153.5t-223.5 55.5q-106 0 -195 -35t-152.5 -98t-99.5 -152.5t-36 -197.5q0 -109 36 -198t99.5 -152.5t152.5 -98.5t195 -35q20 0 42 3.5t46 7.5v305h-317 v233h551v-708q-82 -35 -169 -54.5t-153 -19.5q-154 0 -285 54.5t-227 150.5t-150.5 227t-54.5 285zM471 1919h182q0 -72 33 -109.5t92 -37.5t92 37.5t33 109.5h182q0 -147 -80.5 -238.5t-226.5 -91.5q-143 0 -225 91.5t-82 238.5z" />
<glyph unicode="&#x11f;" horiz-adv-x="1253" d="M82 512q0 123 38 222.5t105.5 170t160.5 108.5t206 38q98 0 176 -36t125 -89v98h217v-944q0 -90 -21.5 -181.5t-77 -166t-149.5 -121.5t-241 -47q-96 0 -171 19.5t-133.5 53t-101.5 80.5t-76 101l166 129q53 -96 134 -138t192 -42q80 0 132 29.5t83 74.5t42 100.5 t11 108.5v33q-47 -59 -128 -98.5t-179 -39.5q-113 0 -206 38t-160.5 107.5t-105.5 169t-38 222.5zM311 512q0 -72 21.5 -131t60.5 -102t94.5 -67t122.5 -24q141 0 218 90.5t77 237.5t-77 234.5t-218 87.5q-68 0 -123 -25t-94 -68t-60.5 -102t-21.5 -131zM319 1509h183 q0 -72 32.5 -109.5t92.5 -37.5q59 0 92 38t33 109h182q0 -147 -81 -238t-226 -91q-143 0 -225.5 91t-82.5 238z" />
<glyph unicode="&#x120;" horiz-adv-x="1363" d="M102 717q0 154 54.5 285t150.5 227t227.5 150.5t284.5 54.5q154 0 282 -57.5t232 -162.5l-108 -223q-78 98 -182.5 153.5t-223.5 55.5q-106 0 -195 -35t-152.5 -98t-99.5 -152.5t-36 -197.5q0 -109 36 -198t99.5 -152.5t152.5 -98.5t195 -35q20 0 42 3.5t46 7.5v305h-317 v233h551v-708q-82 -35 -169 -54.5t-153 -19.5q-154 0 -285 54.5t-227 150.5t-150.5 227t-54.5 285zM586 1722q0 70 48 118t118 48t118 -48t48 -118t-48.5 -118t-117.5 -48q-70 0 -118 48t-48 118z" />
<glyph unicode="&#x121;" horiz-adv-x="1253" d="M82 512q0 123 38 222.5t105.5 170t160.5 108.5t206 38q98 0 176 -36t125 -89v98h217v-944q0 -90 -21.5 -181.5t-77 -166t-149.5 -121.5t-241 -47q-96 0 -171 19.5t-133.5 53t-101.5 80.5t-76 101l166 129q53 -96 134 -138t192 -42q80 0 132 29.5t83 74.5t42 100.5 t11 108.5v33q-47 -59 -128 -98.5t-179 -39.5q-113 0 -206 38t-160.5 107.5t-105.5 169t-38 222.5zM311 512q0 -72 21.5 -131t60.5 -102t94.5 -67t122.5 -24q141 0 218 90.5t77 237.5t-77 234.5t-218 87.5q-68 0 -123 -25t-94 -68t-60.5 -102t-21.5 -131zM461 1313 q0 70 48 118t118 48t118 -48.5t48 -117.5q0 -70 -48.5 -118t-117.5 -48q-70 0 -118 48t-48 118z" />
<glyph unicode="&#x122;" horiz-adv-x="1363" d="M102 717q0 154 54.5 285t150.5 227t227.5 150.5t284.5 54.5q154 0 282 -57.5t232 -162.5l-108 -223q-78 98 -182.5 153.5t-223.5 55.5q-106 0 -195 -35t-152.5 -98t-99.5 -152.5t-36 -197.5q0 -109 36 -198t99.5 -152.5t152.5 -98.5t195 -35q20 0 42 3.5t46 7.5v305h-317 v233h551v-708q-82 -35 -169 -54.5t-153 -19.5q-154 0 -285 54.5t-227 150.5t-150.5 227t-54.5 285zM512 -588l102 178q-43 20 -67.5 59.5t-24.5 82.5q0 31 12.5 60.5t34 53t51 38t64.5 14.5q37 0 67.5 -14.5t52 -38t34 -52.5t12.5 -57q0 -25 -8 -47.5t-19 -38.5l-178 -316z " />
<glyph unicode="&#x123;" horiz-adv-x="1253" d="M82 512q0 123 38 222.5t105.5 170t160.5 108.5t206 38q98 0 176 -36t125 -89v98h217v-944q0 -90 -21.5 -181.5t-77 -166t-149.5 -121.5t-241 -47q-96 0 -171 19.5t-133.5 53t-101.5 80.5t-76 101l166 129q53 -96 134 -138t192 -42q80 0 132 29.5t83 74.5t42 100.5 t11 108.5v33q-47 -59 -128 -98.5t-179 -39.5q-113 0 -206 38t-160.5 107.5t-105.5 169t-38 222.5zM311 512q0 -72 21.5 -131t60.5 -102t94.5 -67t122.5 -24q141 0 218 90.5t77 237.5t-77 234.5t-218 87.5q-68 0 -123 -25t-94 -68t-60.5 -102t-21.5 -131zM461 1292 q0 25 8 47.5t18 38.5l179 316l133 -78l-103 -178q43 -20 67.5 -59.5t24.5 -82.5q0 -31 -12 -60.5t-33.5 -53t-51 -38t-64.5 -14.5q-37 0 -68 14.5t-52.5 38t-33.5 52.5t-12 57z" />
<glyph unicode="&#x124;" horiz-adv-x="1523" d="M164 0v1434h233v-600h729v600h234v-1434h-234v600h-729v-600h-233zM379 1657l381 325l381 -325l-129 -144l-252 220l-252 -217z" />
<glyph unicode="&#x125;" horiz-adv-x="1159" d="M-80 1657l381 325l381 -325l-129 -144l-252 220l-252 -217zM143 0v1434h217v-514q18 20 46 43.5t64 42t82 31t103 12.5q96 0 168 -33t119 -91.5t70.5 -140.5t23.5 -180v-604h-221v612q0 113 -53 168.5t-146 55.5q-61 0 -115 -25t-89 -78q-33 -53 -42.5 -122.5 t-9.5 -133.5v-477h-217z" />
<glyph unicode="&#x126;" horiz-adv-x="1523" d="M61 991v207h103v236h233v-236h729v236h234v-236h94v-207h-94v-991h-234v600h-729v-600h-233v991h-103zM397 834h729v157h-729v-157z" />
<glyph unicode="&#x127;" horiz-adv-x="1159" d="M14 1157v162h129v115h217v-115h191v-162h-191v-237q18 20 46 43.5t64 42t82 31t103 12.5q96 0 168 -33t119 -91.5t70.5 -140.5t23.5 -180v-604h-221v612q0 113 -53 168.5t-146 55.5q-61 0 -115.5 -25t-88.5 -78q-33 -53 -42.5 -122.5t-9.5 -133.5v-477h-217v1157h-129z " />
<glyph unicode="&#x128;" horiz-adv-x="561" d="M-80 1733q25 25 53.5 48t60.5 42.5t65.5 32t68.5 12.5q39 0 71.5 -12.5t59.5 -28t50.5 -27.5t45.5 -12q29 0 68 23.5t76 58.5l106 -133q-25 -25 -53.5 -48.5t-60 -43t-66.5 -31.5t-70 -12q-45 0 -77.5 12t-58.5 27.5t-47.5 27.5t-43.5 12q-29 0 -68 -23.5t-73 -58.5z M164 0v1434h233v-1434h-233z" />
<glyph unicode="&#x129;" horiz-adv-x="524" d="M-100 1323q25 25 53.5 48.5t60 43t65 31.5t68.5 12q39 0 72 -12t59.5 -27.5t50 -28t46.5 -12.5q29 0 67.5 23.5t75.5 58.5l107 -133q-25 -25 -53.5 -48.5t-60.5 -42.5t-66.5 -31.5t-69.5 -12.5q-45 0 -78 12.5t-58.5 27.5t-47 27.5t-44.5 12.5q-29 0 -67.5 -23.5 t-73.5 -58.5zM145 0v1024h222v-1024h-222z" />
<glyph unicode="&#x12a;" horiz-adv-x="561" d="M-16 1642v185h594v-185h-594zM164 0v1434h233v-1434h-233z" />
<glyph unicode="&#x12b;" horiz-adv-x="524" d="M-35 1233v184h594v-184h-594zM145 0v1024h222v-1024h-222z" />
<glyph unicode="&#x12c;" horiz-adv-x="561" d="M-27 1919h183q0 -72 32.5 -109.5t92.5 -37.5q59 0 92 37.5t33 109.5h182q0 -147 -81 -238.5t-226 -91.5q-143 0 -225.5 91.5t-82.5 238.5zM164 0v1434h233v-1434h-233z" />
<glyph unicode="&#x12d;" horiz-adv-x="524" d="M-45 1509h182q0 -72 33 -109.5t92 -37.5t92 38t33 109h182q0 -147 -80.5 -238t-226.5 -91q-143 0 -225 91t-82 238zM145 0v1024h222v-1024h-222z" />
<glyph unicode="&#x12e;" horiz-adv-x="561" d="M29 -207q0 59 30.5 127t104.5 150v1364h233v-1434h-94q-49 -59 -67.5 -101t-18.5 -73q0 -29 16.5 -41t32.5 -12q27 0 54.5 7t66.5 21v-174q-35 -16 -73 -26.5t-81 -10.5q-82 0 -143 52.5t-61 150.5z" />
<glyph unicode="&#x12f;" horiz-adv-x="565" d="M37 -207q0 59 30.5 127t104.5 150v954h221v-1024h-82q-49 -59 -67.5 -101t-18.5 -73q0 -29 16.5 -41t32.5 -12q27 0 54.5 7t66.5 21v-174q-35 -16 -72.5 -26.5t-80.5 -10.5q-82 0 -143.5 52.5t-61.5 150.5zM123 1298q0 68 46 114t114 46t113.5 -46t45.5 -114t-46 -113.5 t-113 -45.5q-68 0 -114 45.5t-46 113.5z" />
<glyph unicode="&#x130;" horiz-adv-x="561" d="M115 1722q0 70 48 118t118 48t117.5 -48t47.5 -118t-48 -118t-117 -48q-70 0 -118 48t-48 118zM164 0v1434h233v-1434h-233z" />
<glyph unicode="&#x131;" horiz-adv-x="524" d="M145 0v1024h222v-1024h-222z" />
<glyph unicode="&#x132;" horiz-adv-x="1085" d="M164 0v1434h233v-1434h-233zM512 0v233q92 0 144.5 68t52.5 162v971h233v-971q0 -102 -29.5 -187.5t-85 -146.5t-135.5 -95t-180 -34z" />
<glyph unicode="&#x133;" horiz-adv-x="1138" d="M123 1298q0 68 46 114t114 46t113.5 -46t45.5 -114t-46 -113.5t-113 -45.5q-68 0 -114 45.5t-46 113.5zM172 0v1024h221v-1024h-221zM524 -197q70 0 115 11.5t71.5 33t36 52t9.5 67.5v1057h221v-1057q0 -96 -23.5 -166.5t-77 -118t-139.5 -70t-213 -22.5v213zM707 1298 q0 68 46 114t113 46q68 0 114 -46t46 -114t-46 -113.5t-114 -45.5t-113.5 45.5t-45.5 113.5z" />
<glyph unicode="&#x134;" horiz-adv-x="1021" d="M31 453l209 102q0 -70 11 -128t36.5 -101t65.5 -68t96 -25q92 0 144 68t52 162v971h234v-971q0 -102 -30 -187.5t-85 -146.5t-135 -95t-180 -34q-117 0 -197 42t-129 107.5t-70.5 145.5t-21.5 158zM352 1657l381 325l381 -325l-129 -144l-252 220l-252 -217z" />
<glyph unicode="&#x135;" horiz-adv-x="573" d="M-94 1247l381 326l381 -326l-129 -143l-252 219l-252 -217zM-41 -197q70 0 115 11.5t71.5 33t35.5 52t9 67.5v1057h222v-1057q0 -96 -23.5 -166.5t-77 -118t-139.5 -70t-213 -22.5v213z" />
<glyph unicode="&#x136;" horiz-adv-x="1376" d="M164 0v1434h233v-648l641 648h328l-627 -633l615 -801h-293l-486 633l-178 -178v-455h-233zM518 -588l103 178q-43 20 -68 59.5t-25 82.5q0 31 12.5 60.5t34 53t51 38t64.5 14.5q37 0 67.5 -14.5t52 -38t34 -52.5t12.5 -57q0 -25 -8 -47.5t-19 -38.5l-178 -316z" />
<glyph unicode="&#x137;" horiz-adv-x="1093" d="M143 0v1434h217v-840l416 430h297l-440 -459l432 -565h-281l-303 420l-121 -113v-307h-217zM377 -588l102 178q-43 20 -67.5 59.5t-24.5 82.5q0 31 12.5 60.5t34 53t51 38t64.5 14.5q37 0 67.5 -14.5t52 -38t34 -52.5t12.5 -57q0 -25 -8.5 -47.5t-18.5 -38.5l-178 -316z " />
<glyph unicode="&#x138;" horiz-adv-x="1093" d="M143 0v1024h217v-430l416 430h297l-440 -459l432 -565h-281l-303 420l-121 -113v-307h-217z" />
<glyph unicode="&#x139;" horiz-adv-x="1110" d="M152 1688l458 297l107 -170l-461 -289zM164 0v1434h233v-1201h682v-233h-915z" />
<glyph unicode="&#x13a;" horiz-adv-x="507" d="M14 1688l459 297l107 -170l-461 -289zM143 0v1434h222v-1434h-222z" />
<glyph unicode="&#x13b;" horiz-adv-x="1110" d="M164 0v1434h233v-1201h682v-233h-915zM465 -588l102 178q-43 20 -67.5 59.5t-24.5 82.5q0 31 12.5 60.5t34 53t51 38t64.5 14.5q37 0 67.5 -14.5t52 -38t34 -52.5t12.5 -57q0 -25 -8.5 -47.5t-18.5 -38.5l-178 -316z" />
<glyph unicode="&#x13c;" horiz-adv-x="507" d="M76 -588l102 178q-43 20 -67.5 59.5t-24.5 82.5q0 31 12.5 60.5t34 53t51 38t64.5 14.5q37 0 67.5 -14.5t52 -38t34 -52.5t12.5 -57q0 -25 -8.5 -47.5t-18.5 -38.5l-178 -316zM143 0v1434h222v-1434h-222z" />
<glyph unicode="&#x13d;" horiz-adv-x="1110" d="M-39 1862l129 141l252 -219l252 219l129 -141l-381 -326zM164 0v1434h233v-1201h682v-233h-915z" />
<glyph unicode="&#x13e;" horiz-adv-x="843" d="M143 0v1434h222v-1434h-222zM465 973l102 178q-43 20 -67.5 59t-24.5 82q0 31 12.5 60.5t34 53.5t51 38t64.5 14q37 0 67.5 -14t52 -38t34 -52.5t12.5 -57.5q0 -25 -8.5 -47t-18.5 -39l-178 -315z" />
<glyph unicode="&#x13f;" horiz-adv-x="1110" d="M164 0v1434h233v-1201h682v-233h-915zM606 813q0 70 48 118t118 48t118 -48t48 -118t-48 -118t-118 -48t-118 48t-48 118z" />
<glyph unicode="&#x140;" horiz-adv-x="831" d="M143 0v1434h222v-1434h-222zM459 811q0 70 48 118t118 48t118 -48t48 -118t-48.5 -118t-117.5 -48q-70 0 -118 48t-48 118z" />
<glyph unicode="&#x141;" horiz-adv-x="1110" d="M-66 733l230 94v607h233v-508l312 129l77 -185l-389 -161v-476h682v-233h-915v610l-152 -61z" />
<glyph unicode="&#x142;" horiz-adv-x="507" d="M-102 707l245 104v623h222v-527l198 86l72 -162l-270 -116v-715h-222v618l-174 -73z" />
<glyph unicode="&#x143;" horiz-adv-x="1619" d="M164 0v1434h207l852 -1041v1041h233v-1434h-211l-848 1030v-1030h-233zM608 1688l459 297l107 -170l-461 -289z" />
<glyph unicode="&#x144;" horiz-adv-x="1185" d="M143 0v1024h217v-104q53 59 128 94t167 35q104 0 177 -34t120 -94.5t68.5 -143.5t21.5 -179v-598h-221v598q0 109 -46 173.5t-157 64.5q-53 0 -99 -16.5t-82 -58.5t-56.5 -110.5t-20.5 -173.5v-477h-217zM342 1278l459 297l106 -170l-461 -289z" />
<glyph unicode="&#x145;" horiz-adv-x="1619" d="M164 0v1434h207l852 -1041v1041h233v-1434h-211l-848 1030v-1030h-233zM641 -588l102 178q-43 20 -67.5 59.5t-24.5 82.5q0 31 12.5 60.5t34 53t51 38t64.5 14.5q37 0 67.5 -14.5t52 -38t34 -52.5t12.5 -57q0 -25 -8 -47.5t-19 -38.5l-178 -316z" />
<glyph unicode="&#x146;" horiz-adv-x="1185" d="M143 0v1024h217v-104q53 59 128 94t167 35q104 0 177 -34t120 -94.5t68.5 -143.5t21.5 -179v-598h-221v598q0 109 -46 173.5t-157 64.5q-53 0 -99 -16.5t-82 -58.5t-56.5 -110.5t-20.5 -173.5v-477h-217zM424 -588l102 178q-43 20 -67.5 59.5t-24.5 82.5q0 31 12.5 60.5 t34 53t51 38t64.5 14.5q37 0 67.5 -14.5t52 -38t34 -52.5t12.5 -57q0 -25 -8.5 -47.5t-18.5 -38.5l-178 -316z" />
<glyph unicode="&#x147;" horiz-adv-x="1619" d="M164 0v1434h207l852 -1041v1041h233v-1434h-211l-848 1030v-1030h-233zM459 1862l129 141l252 -219l252 219l129 -141l-381 -326z" />
<glyph unicode="&#x148;" horiz-adv-x="1185" d="M143 0v1024h217v-104q53 59 128 94t167 35q104 0 177 -34t120 -94.5t68.5 -143.5t21.5 -179v-598h-221v598q0 109 -46 173.5t-157 64.5q-53 0 -99 -16.5t-82 -58.5t-56.5 -110.5t-20.5 -173.5v-477h-217zM231 1452l129 141l252 -219l252 219l129 -141l-381 -326z" />
<glyph unicode="&#x149;" horiz-adv-x="1185" d="M-213 973l102 178q-43 20 -67.5 59t-24.5 82q0 31 12.5 60.5t34 53.5t51 38t64.5 14q37 0 67.5 -14t52 -38t34 -52.5t12.5 -57.5q0 -25 -8 -47t-19 -39l-178 -315zM143 0v1024h217v-104q53 59 128 94t167 35q104 0 177 -34t120 -94.5t68.5 -143.5t21.5 -179v-598h-221 v598q0 109 -46 173.5t-157 64.5q-53 0 -99 -16.5t-82 -58.5t-56.5 -110.5t-20.5 -173.5v-477h-217z" />
<glyph unicode="&#x14a;" horiz-adv-x="1619" d="M176 0v1434h207l852 -1041v1041h233v-1489q0 -100 -23.5 -170t-65.5 -114t-101 -63.5t-131 -19.5q-27 0 -68 5t-84 14v182q29 -4 63 -8t68 -4q68 0 99.5 36.5t31.5 141.5v55l-847 1030v-1030h-234z" />
<glyph unicode="&#x14b;" horiz-adv-x="1185" d="M143 0v1024h217v-104q53 59 128 94t167 35q104 0 177 -34t120 -94.5t68.5 -143.5t21.5 -179v-651q0 -100 -23.5 -170t-65.5 -114t-101 -63.5t-131 -19.5q-27 0 -68 5t-84 14v186q29 -4 63 -8t68 -4q68 0 94.5 35.5t26.5 138.5v651q0 109 -46 173.5t-157 64.5 q-53 0 -99 -16.5t-82 -58.5t-56.5 -110.5t-20.5 -173.5v-477h-217z" />
<glyph unicode="&#x14c;" horiz-adv-x="1634" d="M102 717q0 154 54.5 285t149.5 227t226 150.5t285 54.5t285 -54.5t226 -150.5t149.5 -227.5t54.5 -284.5q0 -154 -54.5 -285t-149.5 -227t-226 -150.5t-285 -54.5t-285 54.5t-226 150.5t-149.5 227t-54.5 285zM336 717q0 -104 36 -193.5t100.5 -154t152.5 -100.5t192 -36 t192.5 36t153 100.5t100 153.5t35.5 194q0 104 -35.5 192t-100 152.5t-152.5 101.5t-193 37q-104 0 -192 -37t-152.5 -101.5t-100.5 -152.5t-36 -192zM520 1642v185h594v-185h-594z" />
<glyph unicode="&#x14d;" horiz-adv-x="1191" d="M61 512q0 111 42 209t114 171t170 115t209 42t209 -42t170 -115t113.5 -171t41.5 -209t-41.5 -209t-113.5 -171t-170 -115t-209 -42t-209 42t-170 115t-114 171t-42 209zM291 512q0 -68 22.5 -126t63.5 -102t96 -70t123 -26t123 26t96 70t63.5 102t22.5 126t-22.5 126 t-63.5 102t-96 70t-123 26t-123 -26t-96 -70t-63.5 -102t-22.5 -126zM299 1233v184h594v-184h-594z" />
<glyph unicode="&#x14e;" horiz-adv-x="1634" d="M102 717q0 154 54.5 285t149.5 227t226 150.5t285 54.5t285 -54.5t226 -150.5t149.5 -227.5t54.5 -284.5q0 -154 -54.5 -285t-149.5 -227t-226 -150.5t-285 -54.5t-285 54.5t-226 150.5t-149.5 227t-54.5 285zM336 717q0 -104 36 -193.5t100.5 -154t152.5 -100.5t192 -36 t192.5 36t153 100.5t100 153.5t35.5 194q0 104 -35.5 192t-100 152.5t-152.5 101.5t-193 37q-104 0 -192 -37t-152.5 -101.5t-100.5 -152.5t-36 -192zM510 1919h182q0 -72 33 -109.5t92 -37.5t92 37.5t33 109.5h182q0 -147 -80.5 -238.5t-226.5 -91.5q-143 0 -225 91.5 t-82 238.5z" />
<glyph unicode="&#x14f;" horiz-adv-x="1191" d="M61 512q0 111 42 209t114 171t170 115t209 42t209 -42t170 -115t113.5 -171t41.5 -209t-41.5 -209t-113.5 -171t-170 -115t-209 -42t-209 42t-170 115t-114 171t-42 209zM289 1509h182q0 -72 33 -109.5t92 -37.5t92 38t33 109h182q0 -147 -81 -238t-226 -91 q-143 0 -225 91t-82 238zM291 512q0 -68 22.5 -126t63.5 -102t96 -70t123 -26t123 26t96 70t63.5 102t22.5 126t-22.5 126t-63.5 102t-96 70t-123 26t-123 -26t-96 -70t-63.5 -102t-22.5 -126z" />
<glyph unicode="&#x150;" horiz-adv-x="1634" d="M102 717q0 154 54.5 285t149.5 227t226 150.5t285 54.5t285 -54.5t226 -150.5t149.5 -227.5t54.5 -284.5q0 -154 -54.5 -285t-149.5 -227t-226 -150.5t-285 -54.5t-285 54.5t-226 150.5t-149.5 227t-54.5 285zM336 717q0 -104 36 -193.5t100.5 -154t152.5 -100.5t192 -36 t192.5 36t153 100.5t100 153.5t35.5 194q0 104 -35.5 192t-100 152.5t-152.5 101.5t-193 37q-104 0 -192 -37t-152.5 -101.5t-100.5 -152.5t-36 -192zM494 1645l264 395l157 -111l-270 -389zM827 1616l265 395l157 -110l-270 -390z" />
<glyph unicode="&#x151;" horiz-adv-x="1191" d="M61 512q0 111 42 209t114 171t170 115t209 42t209 -42t170 -115t113.5 -171t41.5 -209t-41.5 -209t-113.5 -171t-170 -115t-209 -42t-209 42t-170 115t-114 171t-42 209zM279 1235l264 395l157 -110l-270 -390zM291 512q0 -68 22.5 -126t63.5 -102t96 -70t123 -26t123 26 t96 70t63.5 102t22.5 126t-22.5 126t-63.5 102t-96 70t-123 26t-123 -26t-96 -70t-63.5 -102t-22.5 -126zM612 1206l265 396l157 -111l-270 -389z" />
<glyph unicode="&#x152;" horiz-adv-x="2484" d="M193 717q0 154 54 285t150.5 227t226.5 150.5t283 54.5q141 0 264 -48.5t218 -132.5v181h903v-232h-670v-368h670v-234h-670v-369h670v-231h-903v178q-94 -84 -217 -131t-265 -47q-154 0 -283.5 54.5t-226 150.5t-150.5 227t-54 285zM424 717q0 -104 36 -193.5 t100.5 -154t153.5 -101.5t193 -37t192.5 37t153 101.5t100.5 153.5t36 194q0 104 -36 193t-100.5 153.5t-152.5 101.5t-193 37q-104 0 -193 -37t-153.5 -101.5t-100.5 -153.5t-36 -193z" />
<glyph unicode="&#x153;" horiz-adv-x="2111" d="M164 514q0 117 39 214t108.5 169t164.5 112t208 40q133 0 233.5 -51.5t167.5 -137.5q59 84 154.5 136.5t224.5 52.5q111 0 201 -41t152.5 -113t96.5 -170t34 -211v-80h-742q14 -121 83 -183.5t179 -62.5q104 0 177 42t133 110l116 -172q-35 -39 -75.5 -74t-92 -61.5 t-115 -42t-145.5 -15.5q-127 0 -224 50.5t-159 140.5q-68 -86 -167 -136t-232 -50q-113 0 -208 39.5t-164.5 111.5t-108.5 169t-39 214zM385 514q0 -68 22.5 -126t62.5 -101t94 -67.5t120 -24.5q137 0 217 88t80 231t-80 231.5t-217 88.5t-218 -88.5t-81 -231.5zM1223 623 h483q-23 104 -80 158.5t-162 54.5q-104 0 -162.5 -54.5t-78.5 -158.5z" />
<glyph unicode="&#x154;" horiz-adv-x="1419" d="M164 0v1434h559q106 0 196.5 -37t156 -102.5t102 -155.5t36.5 -197q0 -139 -61 -248.5t-166 -173.5l422 -520h-301l-365 449h-346v-449h-233zM371 1688l458 297l107 -170l-461 -289zM397 682h158l-59 74l180 149l158 -200q66 31 107.5 93t41.5 144q0 57 -20.5 104.5 t-56.5 81t-83 53t-100 19.5h-326v-518z" />
<glyph unicode="&#x155;" horiz-adv-x="788" d="M143 0v1024h215v-115q45 66 112 104t151 38q66 0 127 -17v-241q-57 20 -127 20q-66 0 -118 -22.5t-83 -67.5q-35 -47 -45 -110.5t-10 -139.5v-473h-222zM172 1278l459 297l106 -170l-461 -289z" />
<glyph unicode="&#x156;" horiz-adv-x="1419" d="M164 0v1434h559q106 0 196.5 -37t156 -102.5t102 -155.5t36.5 -197q0 -139 -61 -248.5t-166 -173.5l422 -520h-301l-365 449h-346v-449h-233zM397 682h158l-59 74l180 149l158 -200q66 31 107.5 93t41.5 144q0 57 -20.5 104.5t-56.5 81t-83 53t-100 19.5h-326v-518z M500 -588l102 178q-43 20 -67.5 59.5t-24.5 82.5q0 31 12.5 60.5t34 53t51 38t64.5 14.5q37 0 67.5 -14.5t52 -38t34 -52.5t12.5 -57q0 -25 -8.5 -47.5t-18.5 -38.5l-178 -316z" />
<glyph unicode="&#x157;" horiz-adv-x="788" d="M90 -588l103 178q-43 20 -68 59.5t-25 82.5q0 31 12.5 60.5t34 53t51 38t64.5 14.5q37 0 67.5 -14.5t52 -38t34 -52.5t12.5 -57q0 -25 -8 -47.5t-19 -38.5l-178 -316zM143 0v1024h215v-115q45 66 112 104t151 38q66 0 127 -17v-241q-57 20 -127 20q-66 0 -118 -22.5 t-83 -67.5q-35 -47 -45 -110.5t-10 -139.5v-473h-222z" />
<glyph unicode="&#x158;" horiz-adv-x="1419" d="M164 0v1434h559q106 0 196.5 -37t156 -102.5t102 -155.5t36.5 -197q0 -139 -61 -248.5t-166 -173.5l422 -520h-301l-365 449h-346v-449h-233zM242 1862l129 141l252 -219l251 219l130 -141l-381 -326zM397 682h158l-59 74l180 149l158 -200q66 31 107.5 93t41.5 144 q0 57 -20.5 104.5t-56.5 81t-83 53t-100 19.5h-326v-518z" />
<glyph unicode="&#x159;" horiz-adv-x="788" d="M14 1452l129 141l252 -219l252 219l129 -141l-381 -326zM143 0v1024h215v-115q45 66 112 104t151 38q66 0 127 -17v-241q-57 20 -127 20q-66 0 -118 -22.5t-83 -67.5q-35 -47 -45 -110.5t-10 -139.5v-473h-222z" />
<glyph unicode="&#x15a;" horiz-adv-x="1198" d="M133 371l207 110q20 -125 91 -186.5t173 -61.5q92 0 146.5 43t54.5 119q0 72 -48 113t-120 69.5t-157 56.5t-156.5 73t-119.5 118.5t-48 194.5q0 100 35.5 178t96 130t140.5 79t168 27q168 0 296 -97.5t173 -279.5l-219 -90q-25 117 -90.5 175t-161.5 58t-150.5 -47 t-54.5 -121q0 -72 48 -110.5t120 -66.5t157 -54.5t156.5 -72.5t119.5 -122t48 -200q0 -104 -35.5 -181.5t-96 -127.5t-138.5 -73.5t-164 -23.5q-74 0 -149.5 19.5t-140 63.5t-112.5 114.5t-69 173.5zM346 1688l459 297l106 -170l-460 -289z" />
<glyph unicode="&#x15b;" horiz-adv-x="980" d="M72 215l174 127q41 -72 111.5 -113t146.5 -41q86 0 134 30t48 75q0 47 -42 70.5t-105.5 40t-137 34t-137 51t-105.5 93t-42 157.5q0 61 26.5 116.5t76.5 98.5t124 69t168 26q141 0 242.5 -62.5t154.5 -155.5l-166 -124q-35 55 -94 92t-137 37q-84 0 -129 -32t-45 -75 t42 -65.5t105.5 -38t136 -31.5t136 -50t105.5 -93.5t42 -157.5q0 -70 -28.5 -128.5t-82 -100t-127 -65.5t-163.5 -24q-74 0 -140.5 18.5t-123 50.5t-99.5 76t-69 95zM248 1278l459 297l106 -170l-461 -289z" />
<glyph unicode="&#x15c;" horiz-adv-x="1198" d="M133 371l207 110q20 -125 91 -186.5t173 -61.5q92 0 146.5 43t54.5 119q0 72 -48 113t-120 69.5t-157 56.5t-156.5 73t-119.5 118.5t-48 194.5q0 100 35.5 178t96 130t140.5 79t168 27q168 0 296 -97.5t173 -279.5l-219 -90q-25 117 -90.5 175t-161.5 58t-150.5 -47 t-54.5 -121q0 -72 48 -110.5t120 -66.5t157 -54.5t156.5 -72.5t119.5 -122t48 -200q0 -104 -35.5 -181.5t-96 -127.5t-138.5 -73.5t-164 -23.5q-74 0 -149.5 19.5t-140 63.5t-112.5 114.5t-69 173.5zM217 1657l381 325l381 -325l-129 -144l-252 220l-252 -217z" />
<glyph unicode="&#x15d;" horiz-adv-x="980" d="M72 215l174 127q41 -72 111.5 -113t146.5 -41q86 0 134 30t48 75q0 47 -42 70.5t-105.5 40t-137 34t-137 51t-105.5 93t-42 157.5q0 61 26.5 116.5t76.5 98.5t124 69t168 26q141 0 242.5 -62.5t154.5 -155.5l-166 -124q-35 55 -94 92t-137 37q-84 0 -129 -32t-45 -75 t42 -65.5t105.5 -38t136 -31.5t136 -50t105.5 -93.5t42 -157.5q0 -70 -28.5 -128.5t-82 -100t-127 -65.5t-163.5 -24q-74 0 -140.5 18.5t-123 50.5t-99.5 76t-69 95zM129 1247l381 326l381 -326l-129 -143l-252 219l-252 -217z" />
<glyph unicode="&#x15e;" horiz-adv-x="1198" d="M133 371l207 110q20 -125 91 -186.5t173 -61.5q92 0 146.5 43t54.5 119q0 72 -48 113t-120 69.5t-157 56.5t-156.5 73t-119.5 118.5t-48 194.5q0 100 35.5 178t96 130t140.5 79t168 27q168 0 296 -97.5t173 -279.5l-219 -90q-25 117 -90.5 175t-161.5 58t-150.5 -47 t-54.5 -121q0 -72 48 -110.5t120 -66.5t157 -54.5t156.5 -72.5t119.5 -122t48 -200q0 -88 -25.5 -156t-68.5 -117t-102.5 -79.5t-126.5 -43.5q49 -63 69.5 -117.5t20.5 -103.5q0 -98 -61.5 -150.5t-143.5 -52.5q-43 0 -81 10.5t-73 26.5v174q39 -14 67 -21t54 -7 q16 0 32.5 12t16.5 41q0 31 -20.5 76t-73.5 108q-66 8 -128 34t-114.5 70t-90 108.5t-56.5 152.5z" />
<glyph unicode="&#x15f;" horiz-adv-x="980" d="M72 215l174 127q41 -72 111.5 -113t146.5 -41q86 0 134 30t48 75q0 47 -42 70.5t-105.5 40t-137 34t-137 51t-105.5 93t-42 157.5q0 61 26.5 116.5t76.5 98.5t124 69t168 26q141 0 242.5 -62.5t154.5 -155.5l-166 -124q-35 55 -94 92t-137 37q-84 0 -129 -32t-45 -75 t42 -65.5t105.5 -38t136 -31.5t136 -50t105.5 -93.5t42 -157.5q0 -117 -77.5 -199t-211.5 -108q37 -53 53.5 -101.5t16.5 -91.5q0 -98 -61.5 -150.5t-143.5 -52.5q-43 0 -81 10.5t-72 26.5v174q39 -14 66.5 -21t54.5 -7q16 0 32.5 12t16.5 41t-15.5 65.5t-56.5 90.5 q-123 16 -215 79.5t-139 153.5z" />
<glyph unicode="&#x160;" horiz-adv-x="1198" d="M133 371l207 110q20 -125 91 -186.5t173 -61.5q92 0 146.5 43t54.5 119q0 72 -48 113t-120 69.5t-157 56.5t-156.5 73t-119.5 118.5t-48 194.5q0 100 35.5 178t96 130t140.5 79t168 27q168 0 296 -97.5t173 -279.5l-219 -90q-25 117 -90.5 175t-161.5 58t-150.5 -47 t-54.5 -121q0 -72 48 -110.5t120 -66.5t157 -54.5t156.5 -72.5t119.5 -122t48 -200q0 -104 -35.5 -181.5t-96 -127.5t-138.5 -73.5t-164 -23.5q-74 0 -149.5 19.5t-140 63.5t-112.5 114.5t-69 173.5zM217 1862l129 141l252 -219l252 219l129 -141l-381 -326z" />
<glyph unicode="&#x161;" horiz-adv-x="980" d="M72 215l174 127q41 -72 111.5 -113t146.5 -41q86 0 134 30t48 75q0 47 -42 70.5t-105.5 40t-137 34t-137 51t-105.5 93t-42 157.5q0 61 26.5 116.5t76.5 98.5t124 69t168 26q141 0 242.5 -62.5t154.5 -155.5l-166 -124q-35 55 -94 92t-137 37q-84 0 -129 -32t-45 -75 t42 -65.5t105.5 -38t136 -31.5t136 -50t105.5 -93.5t42 -157.5q0 -70 -28.5 -128.5t-82 -100t-127 -65.5t-163.5 -24q-74 0 -140.5 18.5t-123 50.5t-99.5 76t-69 95zM129 1452l129 141l252 -219l252 219l129 -141l-381 -326z" />
<glyph unicode="&#x162;" horiz-adv-x="1339" d="M10 1200v234h1319v-234h-545v-1200h-233v1200h-541zM487 -588l103 178q-43 20 -67.5 59.5t-24.5 82.5q0 31 12 60.5t33.5 53t51.5 38t64 14.5q37 0 68 -14.5t52.5 -38t33.5 -52.5t12 -57q0 -25 -8 -47.5t-18 -38.5l-178 -316z" />
<glyph unicode="&#x163;" horiz-adv-x="786" d="M31 823v201h190v274h217v-274h267v-201h-267v-534q0 -88 74 -90q86 -4 203 12v-199q-106 -23 -203 -22q-145 0 -218 69.5t-73 239.5v524h-190zM264 -588l103 178q-43 20 -68 59.5t-25 82.5q0 31 12.5 60.5t34 53t51 38t64.5 14.5q37 0 68 -14.5t52.5 -38t33.5 -52.5 t12 -57q0 -25 -8 -47.5t-19 -38.5l-178 -316z" />
<glyph unicode="&#x164;" horiz-adv-x="1339" d="M10 1200v234h1319v-234h-545v-1200h-233v1200h-541zM287 1862l129 141l252 -219l252 219l129 -141l-381 -326z" />
<glyph unicode="&#x165;" horiz-adv-x="1163" d="M31 823v201h190v274h217v-274h267v-201h-267v-534q0 -88 74 -90q86 -4 203 12v-199q-106 -23 -203 -22q-145 0 -218 69.5t-73 239.5v524h-190zM795 973l102 178q-43 20 -67.5 59t-24.5 82q0 31 12 60.5t33.5 53.5t51.5 38t65 14q37 0 67.5 -14t52 -38t34 -52.5 t12.5 -57.5q0 -25 -8.5 -47t-18.5 -39l-178 -315z" />
<glyph unicode="&#x166;" horiz-adv-x="1339" d="M10 1200v234h1319v-234h-545v-326h240v-204h-240v-670h-233v670h-244v204h244v326h-541z" />
<glyph unicode="&#x167;" horiz-adv-x="786" d="M31 823v201h190v274h217v-274h267v-201h-267v-104h187v-162h-187v-268q0 -88 74 -90q86 -4 203 12v-199q-106 -23 -203 -22q-145 0 -218 69.5t-73 239.5v258h-133v162h133v104h-190z" />
<glyph unicode="&#x168;" horiz-adv-x="1603" d="M143 657v777h234v-777q0 -90 32.5 -167.5t89 -135t134.5 -90.5t168 -33q92 0 170 33t134 90.5t89 135t33 167.5v777h233v-777q0 -141 -50 -261t-139 -208t-209 -138t-261 -50q-139 0 -259 50t-209 138t-139.5 208t-50.5 261zM420 1733q25 25 53.5 48t60 42.5t65.5 32 t69 12.5q39 0 71.5 -12.5t59 -28t50 -27.5t46.5 -12q29 0 67.5 23.5t75.5 58.5l107 -133q-25 -25 -53.5 -48.5t-60.5 -43t-66.5 -31.5t-69.5 -12q-45 0 -78 12t-58.5 27.5t-47 27.5t-43.5 12q-29 0 -68 -23.5t-74 -58.5z" />
<glyph unicode="&#x169;" horiz-adv-x="1171" d="M143 426v598h222v-598q0 -109 42.5 -173.5t151.5 -64.5q68 0 115 26t77.5 72t45 108.5t14.5 133.5v496h217v-1024h-217v115q-51 -59 -122 -99.5t-167 -40.5q-104 0 -176 34t-117 94.5t-65.5 143.5t-20.5 179zM223 1323q25 25 53.5 48.5t60.5 43t65.5 31.5t68.5 12 q39 0 71.5 -12t59.5 -27.5t50.5 -28t45.5 -12.5q29 0 68 23.5t76 58.5l106 -133q-25 -25 -53.5 -48.5t-60 -42.5t-66.5 -31.5t-70 -12.5q-45 0 -77.5 12.5t-58 27.5t-47 27.5t-44.5 12.5q-29 0 -67.5 -23.5t-73.5 -58.5z" />
<glyph unicode="&#x16a;" horiz-adv-x="1603" d="M143 657v777h234v-777q0 -90 32.5 -167.5t89 -135t134.5 -90.5t168 -33q92 0 170 33t134 90.5t89 135t33 167.5v777h233v-777q0 -141 -50 -261t-139 -208t-209 -138t-261 -50q-139 0 -259 50t-209 138t-139.5 208t-50.5 261zM494 1642v185h593v-185h-593z" />
<glyph unicode="&#x16b;" horiz-adv-x="1171" d="M143 426v598h222v-598q0 -109 42.5 -173.5t151.5 -64.5q68 0 115 26t77.5 72t45 108.5t14.5 133.5v496h217v-1024h-217v115q-51 -59 -122 -99.5t-167 -40.5q-104 0 -176 34t-117 94.5t-65.5 143.5t-20.5 179zM289 1233v184h594v-184h-594z" />
<glyph unicode="&#x16c;" horiz-adv-x="1603" d="M143 657v777h234v-777q0 -90 32.5 -167.5t89 -135t134.5 -90.5t168 -33q92 0 170 33t134 90.5t89 135t33 167.5v777h233v-777q0 -141 -50 -261t-139 -208t-209 -138t-261 -50q-139 0 -259 50t-209 138t-139.5 208t-50.5 261zM494 1919h182q0 -72 32.5 -109.5t92.5 -37.5 q59 0 92 37.5t33 109.5h182q0 -147 -81 -238.5t-226 -91.5q-143 0 -225 91.5t-82 238.5z" />
<glyph unicode="&#x16d;" horiz-adv-x="1171" d="M143 426v598h222v-598q0 -109 42.5 -173.5t151.5 -64.5q68 0 115 26t77.5 72t45 108.5t14.5 133.5v496h217v-1024h-217v115q-51 -59 -122 -99.5t-167 -40.5q-104 0 -176 34t-117 94.5t-65.5 143.5t-20.5 179zM279 1509h182q0 -72 32.5 -109.5t92.5 -37.5q59 0 92 38 t33 109h182q0 -147 -81 -238t-226 -91q-143 0 -225 91t-82 238z" />
<glyph unicode="&#x16e;" horiz-adv-x="1603" d="M143 657v777h234v-777q0 -90 32.5 -167.5t89 -135t134.5 -90.5t168 -33q92 0 170 33t134 90.5t89 135t33 167.5v777h233v-777q0 -141 -50 -261t-139 -208t-209 -138t-261 -50q-139 0 -259 50t-209 138t-139.5 208t-50.5 261zM532 1802q0 57 20.5 106.5t56.5 85.5t85 56.5 t107 20.5q57 0 106 -20.5t85 -56.5t56.5 -85t20.5 -107q0 -57 -20.5 -106t-56.5 -85t-85 -56.5t-106 -20.5t-106.5 20.5t-85.5 56.5t-56.5 85t-20.5 106zM705 1802q0 -45 26.5 -70.5t69.5 -25.5q45 0 70.5 25.5t25.5 70.5t-25.5 70.5t-70.5 25.5q-43 0 -69.5 -25.5 t-26.5 -70.5z" />
<glyph unicode="&#x16f;" horiz-adv-x="1171" d="M143 426v598h222v-598q0 -109 42.5 -173.5t151.5 -64.5q68 0 115 26t77.5 72t45 108.5t14.5 133.5v496h217v-1024h-217v115q-51 -59 -122 -99.5t-167 -40.5q-104 0 -176 34t-117 94.5t-65.5 143.5t-20.5 179zM317 1393q0 57 20.5 106t56.5 85t85 56.5t107 20.5 q57 0 106 -20.5t85 -56.5t56.5 -85t20.5 -106t-20.5 -106.5t-56.5 -85.5t-85 -56.5t-106 -20.5t-106.5 20.5t-85.5 56.5t-56.5 85.5t-20.5 106.5zM489 1393q0 -45 27 -71t70 -26q45 0 70.5 26t25.5 71t-25.5 70.5t-70.5 25.5q-43 0 -70 -25.5t-27 -70.5z" />
<glyph unicode="&#x170;" horiz-adv-x="1603" d="M143 657v777h234v-777q0 -90 32.5 -167.5t89 -135t134.5 -90.5t168 -33q92 0 170 33t134 90.5t89 135t33 167.5v777h233v-777q0 -141 -50 -261t-139 -208t-209 -138t-261 -50q-139 0 -259 50t-209 138t-139.5 208t-50.5 261zM457 1645l264 395l158 -111l-271 -389z M791 1616l264 395l157 -110l-270 -390z" />
<glyph unicode="&#x171;" horiz-adv-x="1171" d="M143 426v598h222v-598q0 -109 42.5 -173.5t151.5 -64.5q68 0 115 26t77.5 72t45 108.5t14.5 133.5v496h217v-1024h-217v115q-51 -59 -122 -99.5t-167 -40.5q-104 0 -176 34t-117 94.5t-65.5 143.5t-20.5 179zM248 1235l264 395l158 -110l-271 -390zM582 1206l264 396 l158 -111l-271 -389z" />
<glyph unicode="&#x172;" horiz-adv-x="1603" d="M143 657v777h234v-777q0 -90 32.5 -167.5t89 -135t134.5 -90.5t168 -33q92 0 170 33t134 90.5t89 135t33 167.5v777h233v-777q0 -133 -45 -247.5t-125 -201.5t-188.5 -140.5t-237.5 -65.5q-49 -59 -68.5 -102t-19.5 -74q0 -29 16.5 -41t32.5 -12q27 0 54.5 7t66.5 21 v-174q-35 -16 -72.5 -26.5t-80.5 -10.5q-82 0 -143.5 52.5t-61.5 150.5q0 47 19.5 101.5t66.5 115.5q-115 20 -212 77.5t-168 142.5t-111 193.5t-40 233.5z" />
<glyph unicode="&#x173;" horiz-adv-x="1171" d="M143 426v598h222v-598q0 -109 42.5 -173.5t151.5 -64.5q68 0 115 26t77.5 72t45 108.5t14.5 133.5v496h217v-946h125q-90 -92 -123 -152.5t-33 -99.5q0 -29 16.5 -41t33.5 -12q27 0 54 7t66 21v-174q-35 -16 -72.5 -26.5t-80.5 -10.5q-82 0 -143.5 52.5t-61.5 150.5 q0 47 18.5 97.5t59.5 109.5h-76v115q-51 -59 -122 -99.5t-167 -40.5q-104 0 -176 34t-117 94.5t-65.5 143.5t-20.5 179z" />
<glyph unicode="&#x174;" horiz-adv-x="2486" d="M20 1434h250l412 -1031l459 1031h205l458 -1031l412 1031h250l-570 -1434h-165l-488 1087l-485 -1087h-166zM862 1657l381 325l381 -325l-129 -144l-252 220l-252 -217z" />
<glyph unicode="&#x175;" horiz-adv-x="1763" d="M20 1024h240l262 -674l283 674h151l283 -674l264 674h240l-422 -1024h-164l-274 651q-68 -160 -140.5 -326.5t-138.5 -324.5h-162zM500 1247l381 326l381 -326l-129 -143l-252 219l-252 -217z" />
<glyph unicode="&#x176;" horiz-adv-x="1413" d="M10 1434h285l412 -596l411 596h285l-580 -836v-598h-233v598zM326 1657l381 325l380 -325l-129 -144l-251 220l-252 -217z" />
<glyph unicode="&#x177;" horiz-adv-x="1105" d="M20 1024h263l292 -606l285 606h236l-664 -1434h-239l262 570zM172 1247l381 326l381 -326l-129 -143l-252 219l-252 -217z" />
<glyph unicode="&#x178;" horiz-adv-x="1413" d="M10 1434h285l412 -596l411 596h285l-580 -836v-598h-233v598zM322 1708q0 68 46 114t113 46q68 0 114 -46t46 -114t-46 -114t-114 -46t-113.5 46t-45.5 114zM772 1708q0 68 46 114t114 46q66 0 112 -46t46 -114t-46.5 -114t-111.5 -46q-68 0 -114 46t-46 114z" />
<glyph unicode="&#x179;" horiz-adv-x="1366" d="M102 0v174l813 1028h-813v232h1162v-174l-813 -1029h813v-231h-1162zM455 1688l458 297l107 -170l-461 -289z" />
<glyph unicode="&#x17a;" horiz-adv-x="931" d="M61 0v186l498 629h-481v209h772v-186l-498 -629h518v-209h-809zM264 1278l459 297l106 -170l-460 -289z" />
<glyph unicode="&#x17b;" horiz-adv-x="1366" d="M102 0v174l813 1028h-813v232h1162v-174l-813 -1029h813v-231h-1162zM541 1722q0 70 48 118t118 48t117.5 -48t47.5 -118t-48 -118t-117 -48q-70 0 -118 48t-48 118z" />
<glyph unicode="&#x17c;" horiz-adv-x="931" d="M61 0v186l498 629h-481v209h772v-186l-498 -629h518v-209h-809zM299 1313q0 70 48 118t118 48t118 -48.5t48 -117.5q0 -70 -48 -118t-118 -48t-118 48t-48 118z" />
<glyph unicode="&#x17d;" horiz-adv-x="1366" d="M102 0v174l813 1028h-813v232h1162v-174l-813 -1029h813v-231h-1162zM344 1862l129 141l252 -219l252 219l129 -141l-381 -326z" />
<glyph unicode="&#x17e;" horiz-adv-x="931" d="M61 0v186l498 629h-481v209h772v-186l-498 -629h518v-209h-809zM84 1452l129 141l252 -219l252 219l129 -141l-381 -326z" />
<glyph unicode="&#x17f;" horiz-adv-x="686" d="M143 0v1073q0 205 89.5 292t246.5 87q35 0 81 -4t95 -14v-205q-43 6 -80.5 10t-74.5 4q-72 0 -106 -36t-34 -134v-1073h-217z" />
<glyph unicode="&#x192;" horiz-adv-x="813" d="M10 -195q33 -6 77 -11t79 -5q55 0 79.5 32t24.5 122v897h-178v184h178v49q0 205 89.5 292t246.5 87q35 0 81 -4t95 -14v-205q-43 6 -80.5 10t-74.5 4q-72 0 -106 -36t-34 -134v-49h281v-184h-281v-897q0 -100 -20.5 -169t-59 -111t-95 -60.5t-126.5 -18.5q-51 0 -92 5 t-84 14v202z" />
<glyph unicode="&#x1fa;" horiz-adv-x="1601" d="M20 0l668 1434h225l668 -1434h-260l-111 242h-821l-110 -242h-259zM500 475h602l-301 647zM528 2284l459 296l107 -170l-461 -288zM532 1802q0 57 20.5 106.5t56.5 85.5t85 56.5t107 20.5q57 0 106 -20.5t85 -56.5t56.5 -85t20.5 -107q0 -57 -20.5 -106t-56.5 -85 t-85 -56.5t-106 -20.5t-106.5 20.5t-85.5 56.5t-56.5 85t-20.5 106zM705 1802q0 -45 26.5 -70.5t69.5 -25.5q45 0 70.5 25.5t25.5 70.5t-25.5 70.5t-70.5 25.5q-43 0 -69.5 -25.5t-26.5 -70.5z" />
<glyph unicode="&#x1fb;" horiz-adv-x="1067" d="M92 309q0 76 27.5 132.5t72 93t102.5 57t120 26.5l293 27q47 4 47 45v39q0 51 -52.5 83t-142.5 32q-92 0 -153.5 -34t-90.5 -128l-198 102q20 61 55 109.5t87 83.5t123 53.5t165 18.5q221 0 324.5 -104.5t103.5 -285.5v-659h-221v113q-45 -53 -114 -93t-179 -40 q-84 0 -151.5 24.5t-116 69.5t-75 104.5t-26.5 130.5zM283 1868l458 297l107 -170l-461 -289zM289 1393q0 57 20.5 106t56 85t85 56.5t106.5 20.5t106.5 -20.5t85 -56.5t56 -85t20.5 -106t-20.5 -106.5t-56 -85.5t-85 -56.5t-106.5 -20.5t-106.5 20.5t-85 56.5t-56 85.5 t-20.5 106.5zM317 309q0 -53 44.5 -84.5t127.5 -31.5q53 0 101.5 18t84.5 50t57.5 73t21.5 86v41l-305 -37q-68 -8 -100 -41t-32 -74zM461 1393q0 -45 26.5 -71t69.5 -26q45 0 70.5 26t25.5 71t-25.5 70.5t-70.5 25.5q-43 0 -69.5 -25.5t-26.5 -70.5z" />
<glyph unicode="&#x1fc;" horiz-adv-x="2004" d="M-25 0l1039 1434h880v-232h-669v-368h669v-234h-669v-369h669v-231h-905v242h-549l-170 -242h-295zM610 475h381v524zM1133 1688l458 297l107 -170l-461 -289z" />
<glyph unicode="&#x1fd;" horiz-adv-x="1753" d="M92 309q0 76 27.5 132.5t72 93t102.5 57t120 26.5l295 27q23 2 34 15.5t11 29.5v39q0 51 -52.5 83t-142.5 32q-92 0 -153.5 -34t-90.5 -128l-198 102q43 121 143 193t291 72q117 0 203 -38t137 -100q59 66 145 102t197 36t197 -41t146 -113t93 -170t33 -211v-80h-739 q12 -117 80.5 -181.5t175.5 -64.5q111 0 183.5 41t131.5 107l115 -168q-35 -39 -76 -74t-91 -61.5t-113.5 -42t-145.5 -15.5q-119 0 -214.5 50.5t-156.5 136.5q-25 -35 -59.5 -67t-80.5 -58.5t-108.5 -41.5t-142.5 -15q-84 0 -151.5 24.5t-116 69.5t-75 104.5t-26.5 130.5z M317 309q0 -53 44.5 -84.5t127.5 -31.5q53 0 101.5 18t84.5 50t57.5 73t21.5 86v41l-305 -37q-66 -8 -99 -41t-33 -74zM621 1278l458 297l107 -170l-461 -289zM979 625l481 -2q-18 100 -76.5 156.5t-162.5 56.5q-96 0 -159 -54.5t-83 -156.5z" />
<glyph unicode="&#x1fe;" horiz-adv-x="1634" d="M102 717q0 154 54.5 285t149.5 227t226 150.5t285 54.5q106 0 201.5 -28t177.5 -75l123 146l145 -127l-118 -140q88 -96 137 -221t49 -272q0 -154 -54.5 -285t-149.5 -227t-226 -150.5t-285 -54.5q-115 0 -214 29.5t-185 85.5l-133 -158l-150 123l137 162 q-80 94 -125 213.5t-45 261.5zM336 717q0 -86 23.5 -160t66.5 -133l614 725q-102 51 -223 51q-104 0 -192 -37t-152.5 -101.5t-100.5 -152.5t-36 -192zM545 1688l459 297l106 -170l-461 -289zM571 295q53 -29 114.5 -45.5t131.5 -16.5q104 0 192.5 36t153 100.5t100 153.5 t35.5 194q0 92 -27.5 171t-78.5 140z" />
<glyph unicode="&#x1ff;" horiz-adv-x="1191" d="M61 512q0 111 42 209t114 171t170 115t209 42q78 0 147.5 -20.5t130.5 -57.5l82 96l144 -127l-82 -98q53 -68 82.5 -152t29.5 -178q0 -111 -41.5 -209t-113.5 -171t-170 -115t-209 -42q-72 0 -136.5 17.5t-121.5 48.5l-72 -84l-147 123l69 82q-59 72 -93 160t-34 190z M291 512q0 -96 45 -176l397 467q-66 33 -137 33q-68 0 -123 -26t-96 -70t-63.5 -102t-22.5 -126zM313 1278l459 297l107 -170l-461 -289zM481 209q49 -21 115 -21q68 0 123 26t96 70t63.5 102t22.5 126q0 80 -35 154z" />
<glyph unicode="&#x218;" horiz-adv-x="1198" d="M133 371l207 110q20 -125 91 -186.5t173 -61.5q92 0 146.5 43t54.5 119q0 72 -48 113t-120 69.5t-157 56.5t-156.5 73t-119.5 118.5t-48 194.5q0 100 35.5 178t96 130t140.5 79t168 27q168 0 296 -97.5t173 -279.5l-219 -90q-25 117 -90.5 175t-161.5 58t-150.5 -47 t-54.5 -121q0 -72 48 -110.5t120 -66.5t157 -54.5t156.5 -72.5t119.5 -122t48 -200q0 -104 -35.5 -181.5t-96 -127.5t-138.5 -73.5t-164 -23.5q-74 0 -149.5 19.5t-140 63.5t-112.5 114.5t-69 173.5zM420 -588l102 178q-43 20 -67.5 59.5t-24.5 82.5q0 31 12.5 60.5t34 53 t51 38t64.5 14.5q37 0 67.5 -14.5t52 -38t34 -52.5t12.5 -57q0 -25 -8.5 -47.5t-18.5 -38.5l-178 -316z" />
<glyph unicode="&#x219;" horiz-adv-x="980" d="M72 215l174 127q41 -72 111.5 -113t146.5 -41q86 0 134 30t48 75q0 47 -42 70.5t-105.5 40t-137 34t-137 51t-105.5 93t-42 157.5q0 61 26.5 116.5t76.5 98.5t124 69t168 26q141 0 242.5 -62.5t154.5 -155.5l-166 -124q-35 55 -94 92t-137 37q-84 0 -129 -32t-45 -75 t42 -65.5t105.5 -38t136 -31.5t136 -50t105.5 -93.5t42 -157.5q0 -70 -28.5 -128.5t-82 -100t-127 -65.5t-163.5 -24q-74 0 -140.5 18.5t-123 50.5t-99.5 76t-69 95zM322 -588l102 178q-43 20 -67.5 59.5t-24.5 82.5q0 31 12 60.5t33.5 53t51.5 38t65 14.5q37 0 67.5 -14.5 t52 -38t33.5 -52.5t12 -57q0 -25 -8 -47.5t-18 -38.5l-178 -316z" />
<glyph unicode="&#x21a;" horiz-adv-x="1339" d="M10 1200v234h1319v-234h-545v-1194q45 -59 64.5 -112.5t19.5 -100.5q0 -98 -61.5 -150.5t-142.5 -52.5q-43 0 -81 10.5t-73 26.5v174q39 -14 66.5 -21t54.5 -7q16 0 32.5 12t16.5 41q0 31 -18.5 73t-67.5 101h-43v1200h-541z" />
<glyph unicode="&#x21b;" horiz-adv-x="786" d="M31 823v201h190v274h217v-274h267v-201h-267v-534q0 -88 74 -90q86 -4 203 12v-199q-106 -23 -203 -22q-145 0 -218 69.5t-73 239.5v524h-190zM244 -588l102 178q-43 20 -67.5 59.5t-24.5 82.5q0 31 12.5 60.5t34 53t51 38t64.5 14.5q37 0 67.5 -14.5t52 -38t34 -52.5 t12.5 -57q0 -25 -8.5 -47.5t-18.5 -38.5l-178 -316z" />
<glyph unicode="&#x2bc;" horiz-adv-x="649" d="M184 901l133 229q-47 23 -72.5 65t-25.5 89q0 33 13.5 63.5t36 55t55 40t69.5 15.5q39 0 71 -15.5t55.5 -40t35.5 -54t12 -56.5q0 -29 -9 -54.5t-17 -39.5l-213 -379z" />
<glyph unicode="&#x2c6;" horiz-adv-x="802" d="M20 1247l381 326l381 -326l-129 -143l-252 219l-251 -217z" />
<glyph unicode="&#x2c7;" horiz-adv-x="802" d="M20 1452l130 141l251 -219l252 219l129 -141l-381 -326z" />
<glyph unicode="&#x2d8;" horiz-adv-x="655" d="M20 1509h183q0 -72 32.5 -109.5t92.5 -37.5q59 0 92 38t33 109h182q0 -147 -81 -238t-226 -91q-143 0 -225.5 91t-82.5 238z" />
<glyph unicode="&#x2d9;" horiz-adv-x="372" d="M20 1313q0 70 48.5 118t117.5 48q70 0 118 -48.5t48 -117.5q0 -70 -48 -118t-118 -48t-118 48t-48 118z" />
<glyph unicode="&#x2da;" horiz-adv-x="593" d="M27 1393q0 57 20.5 106t56 85t85 56.5t106.5 20.5t106.5 -20.5t85 -56.5t56 -85t20.5 -106t-20.5 -106.5t-56 -85.5t-85 -56.5t-106.5 -20.5t-106.5 20.5t-85 56.5t-56 85.5t-20.5 106.5zM199 1393q0 -45 26.5 -71t69.5 -26q45 0 70.5 26t25.5 71t-25.5 70.5t-70.5 25.5 q-43 0 -69.5 -25.5t-26.5 -70.5z" />
<glyph unicode="&#x2db;" horiz-adv-x="399" d="M20 -207q0 59 33 129t111 156h201q-90 -92 -123 -152.5t-33 -99.5q0 -29 16.5 -41t32.5 -12q27 0 54.5 7t66.5 21v-174q-35 -16 -73 -26.5t-81 -10.5q-82 0 -143.5 52.5t-61.5 150.5z" />
<glyph unicode="&#x2dc;" horiz-adv-x="765" d="M20 1323q25 25 53.5 48.5t60.5 43t65.5 31.5t68.5 12q39 0 72 -12t59.5 -27.5t50 -28t46.5 -12.5q29 0 67.5 23.5t75.5 58.5l106 -133q-25 -25 -53 -48.5t-60 -42.5t-67 -31.5t-69 -12.5q-45 0 -78 12.5t-58.5 27.5t-47 27.5t-44.5 12.5q-29 0 -67.5 -23.5t-73.5 -58.5z " />
<glyph unicode="&#x2dd;" horiz-adv-x="796" d="M20 1235l265 395l157 -110l-270 -390zM354 1206l264 396l158 -111l-270 -389z" />
<glyph unicode="&#x394;" horiz-adv-x="1515" d="M66 0l632 1524h119l631 -1524h-1382zM381 176h756l-377 936z" />
<glyph unicode="&#x3a9;" horiz-adv-x="1515" d="M41 745q0 158 54.5 289t150.5 225.5t227 146.5t285 52t285 -52t227 -146.5t150.5 -225.5t54.5 -289q0 -90 -22.5 -169.5t-60.5 -149.5t-90.5 -128t-111.5 -108h256v-190h-612v190q86 49 161.5 105.5t132 125t89 149.5t32.5 180q0 106 -36.5 196t-102.5 155.5t-156 103.5 t-196 38t-196.5 -38t-156 -103.5t-102.5 -155.5t-37 -196q0 -96 32 -177t88 -150t132 -126t164 -107v-190h-614v190h256q-59 49 -110.5 107.5t-90.5 128.5t-60.5 149.5t-21.5 169.5z" />
<glyph unicode="&#x3bc;" d="M274 -410v1434h222v-598q0 -109 42.5 -173.5t151.5 -64.5q68 0 115 26t77.5 72t45 108.5t14.5 133.5v496h217v-1024h-217v115q-51 -59 -121.5 -99.5t-167.5 -40.5q-49 0 -91 8.5t-77 22.5v-416h-211z" />
<glyph unicode="&#x3c0;" d="M121 774v180q20 12 54 24.5t76 23t90 17.5t99 7h873v-215h-183v-811h-215v811h-303l-172 -811h-219l170 811q-92 -4 -160.5 -15.5t-109.5 -21.5z" />
<glyph unicode="&#x1e80;" horiz-adv-x="2486" d="M20 1434h250l412 -1031l459 1031h205l458 -1031l412 1031h250l-570 -1434h-165l-488 1087l-485 -1087h-166zM967 1815l106 170l459 -297l-105 -162z" />
<glyph unicode="&#x1e81;" horiz-adv-x="1763" d="M20 1024h240l262 -674l283 674h151l283 -674l264 674h240l-422 -1024h-164l-274 651q-68 -160 -140.5 -326.5t-138.5 -324.5h-162zM598 1405l107 170l458 -297l-104 -162z" />
<glyph unicode="&#x1e82;" horiz-adv-x="2486" d="M20 1434h250l412 -1031l459 1031h205l458 -1031l412 1031h250l-570 -1434h-165l-488 1087l-485 -1087h-166zM971 1688l459 297l106 -170l-461 -289z" />
<glyph unicode="&#x1e83;" horiz-adv-x="1763" d="M20 1024h240l262 -674l283 674h151l283 -674l264 674h240l-422 -1024h-164l-274 651q-68 -160 -140.5 -326.5t-138.5 -324.5h-162zM598 1278l459 297l106 -170l-461 -289z" />
<glyph unicode="&#x1e84;" horiz-adv-x="2486" d="M20 1434h250l412 -1031l459 1031h205l458 -1031l412 1031h250l-570 -1434h-165l-488 1087l-485 -1087h-166zM858 1708q0 68 46 114t114 46t114 -46t46 -114t-46.5 -114t-113.5 -46q-68 0 -114 46t-46 114zM1309 1708q0 68 46 114t113 46q66 0 112 -46t46 -114t-46 -114 t-112 -46q-68 0 -113.5 46t-45.5 114z" />
<glyph unicode="&#x1e85;" horiz-adv-x="1763" d="M20 1024h240l262 -674l283 674h151l283 -674l264 674h240l-422 -1024h-164l-274 651q-68 -160 -140.5 -326.5t-138.5 -324.5h-162zM498 1298q0 68 46 114t113 46q68 0 114 -46t46 -114t-46 -113.5t-114 -45.5t-113.5 45.5t-45.5 113.5zM948 1298q0 68 46 114t114 46 q66 0 112 -46t46 -114t-46 -113.5t-112 -45.5q-68 0 -114 45.5t-46 113.5z" />
<glyph unicode="&#x1ef2;" horiz-adv-x="1413" d="M10 1434h285l412 -596l411 596h285l-580 -836v-598h-233v598zM367 1815l106 170l459 -297l-105 -162z" />
<glyph unicode="&#x1ef3;" horiz-adv-x="1105" d="M20 1024h263l292 -606l285 606h236l-664 -1434h-239l262 570zM188 1405l107 170l459 -297l-105 -162z" />
<glyph unicode="&#x2013;" horiz-adv-x="1869" d="M143 512v229h1583v-229h-1583z" />
<glyph unicode="&#x2014;" horiz-adv-x="2742" d="M143 512v229h2456v-229h-2456z" />
<glyph unicode="&#x2018;" horiz-adv-x="526" d="M72 1016q0 29 9 54.5t17 39.5l213 379l144 -82l-133 -229q47 -23 72.5 -65t25.5 -89q0 -33 -13.5 -63.5t-36 -55t-55 -40t-69.5 -15.5q-39 0 -71 15.5t-55.5 40t-35.5 53t-12 57.5z" />
<glyph unicode="&#x2019;" horiz-adv-x="649" d="M184 901l133 229q-47 23 -72.5 65t-25.5 89q0 33 13.5 63.5t36 55t55 40t69.5 15.5q39 0 71 -15.5t55.5 -40t35.5 -54t12 -56.5q0 -29 -9 -54.5t-17 -39.5l-213 -379z" />
<glyph unicode="&#x201a;" horiz-adv-x="792" d="M205 -215l133 229q-47 23 -72.5 65t-25.5 89q0 33 13 63.5t35.5 55t55.5 40t70 15.5q39 0 70.5 -15.5t55 -40t36 -54t12.5 -56.5q0 -29 -9.5 -54.5t-17.5 -39.5l-213 -379z" />
<glyph unicode="&#x201c;" horiz-adv-x="901" d="M61 1016q0 29 9.5 54.5t17.5 39.5l213 379l143 -82l-133 -229q47 -23 73 -65t26 -89q0 -33 -13.5 -63.5t-36 -55t-55.5 -40t-69 -15.5q-39 0 -71 15.5t-55.5 40t-36 53t-12.5 57.5zM469 1016q0 29 9 54.5t18 39.5l213 379l143 -82l-133 -229q47 -23 72.5 -65t25.5 -89 q0 -33 -13 -63.5t-36 -55t-55.5 -40t-69.5 -15.5q-39 0 -70.5 15.5t-55 40t-36 53t-12.5 57.5z" />
<glyph unicode="&#x201d;" horiz-adv-x="811" d="M10 901l133 229q-47 23 -72.5 65t-25.5 89q0 33 13.5 63.5t36 55t55 40t69.5 15.5q39 0 71 -15.5t55.5 -40t35.5 -54t12 -56.5q0 -29 -9 -54.5t-17 -39.5l-213 -379zM418 901l133 229q-47 23 -72.5 65t-25.5 89q0 33 13 63.5t35.5 55t55.5 40t70 15.5q39 0 70.5 -15.5 t55 -40t36 -54t12.5 -56.5q0 -29 -9.5 -54.5t-17.5 -39.5l-213 -379z" />
<glyph unicode="&#x201e;" horiz-adv-x="808" d="M10 -215l133 229q-47 23 -72.5 65t-25.5 89q0 33 13.5 63.5t36 55t55 40t69.5 15.5q39 0 71 -15.5t55.5 -40t35.5 -54t12 -56.5q0 -29 -9 -54.5t-17 -39.5l-213 -379zM418 -215l133 229q-47 23 -72.5 65t-25.5 89q0 33 13 63.5t35.5 55t55.5 40t70 15.5q39 0 70.5 -15.5 t55 -40t36 -54t12.5 -56.5q0 -29 -9.5 -54.5t-17.5 -39.5l-213 -379z" />
<glyph unicode="&#x2020;" horiz-adv-x="999" d="M31 844v180h366v483h205v-483h367v-180h-367v-1032h-205v1032h-366z" />
<glyph unicode="&#x2021;" horiz-adv-x="999" d="M31 301v180h366v424h-366v180h366v433h205v-433h367v-180h-367v-424h367v-180h-367v-500h-205v500h-366z" />
<glyph unicode="&#x2022;" horiz-adv-x="903" d="M184 647q0 57 20.5 106.5t55.5 85t84 56t107 20.5q57 0 106 -20.5t85 -56t56.5 -84.5t20.5 -107q0 -57 -20.5 -106t-56.5 -84t-85 -55.5t-106 -20.5q-117 0 -192 74.5t-75 191.5z" />
<glyph unicode="&#x2026;" horiz-adv-x="1812" d="M133 178q0 76 51.5 128t126.5 52q78 0 129.5 -52t51.5 -128t-51.5 -127t-129.5 -51q-76 0 -127 51t-51 127zM727 178q0 76 51 128t127 52t128 -52t52 -128t-52 -127t-128 -51t-127 51t-51 127zM1321 178q0 76 51 128t127 52t128 -52t52 -128t-52 -127t-128 -51t-127 51 t-51 127z" />
<glyph unicode="&#x2030;" horiz-adv-x="2142" d="M61 1110q0 68 26 127t70 104t103 71t127 26t127 -26t104.5 -71t71 -104t25.5 -127t-25.5 -127t-71 -103t-104.5 -70t-127 -26t-127 26t-103 70t-70 103t-26 127zM98 106l1102 1328l133 -107l-1102 -1327zM244 1110q0 -59 42 -101t101 -42t101 42t42 101t-42 101t-101 42 t-101 -42t-42 -101zM717 301q0 68 25.5 127t69.5 104.5t103.5 71t126.5 25.5q68 0 127.5 -25.5t104.5 -71t70.5 -104.5t25.5 -127t-25.5 -127t-70.5 -103t-104.5 -70t-127.5 -26t-127 26t-103 70t-69.5 103t-25.5 127zM899 301q0 -59 42 -101t101 -42t101.5 42t42.5 101 t-42 101t-102 42q-59 0 -101 -42t-42 -101zM1448 301q0 68 25.5 127t69.5 104.5t103.5 71t127.5 25.5t127 -25.5t104 -71t70.5 -104.5t25.5 -127t-25.5 -127t-70.5 -103t-104.5 -70t-126.5 -26q-68 0 -127.5 26t-103.5 70t-69.5 103t-25.5 127zM1630 301q0 -59 42 -101 t102 -42q59 0 101 42t42 101t-42 101t-101 42t-101.5 -42t-42.5 -101z" />
<glyph unicode="&#x2039;" horiz-adv-x="808" d="M123 512l391 446l152 -137l-279 -309l279 -311l-152 -135z" />
<glyph unicode="&#x203a;" horiz-adv-x="788" d="M82 201l278 311l-278 309l151 137l392 -446l-392 -446z" />
<glyph unicode="&#x2044;" horiz-adv-x="1255" d="M37 88l1071 1350l111 -90l-1072 -1352z" />
<glyph unicode="&#x20ac;" horiz-adv-x="1505" d="M133 463l90 184h109q-2 16 -2 32.5v33.5v41h-172l86 184h118q29 100 84.5 186t135.5 150.5t181 101.5t222 37q123 0 236.5 -41t222.5 -133l-98 -221q-78 82 -174.5 125t-192.5 43q-51 0 -105.5 -13.5t-105.5 -43t-94 -76.5t-72 -115h707l-86 -184h-662q-2 -12 -2 -23.5 v-23.5v-30.5t2 -29.5h619l-90 -184h-484q55 -121 157.5 -177.5t217.5 -56.5q57 0 116.5 14.5t127.5 49.5l35 -227q-84 -35 -152 -50.5t-139 -15.5q-115 0 -212.5 36t-173 98.5t-130 147.5t-84.5 181h-236z" />
<glyph unicode="&#x2113;" horiz-adv-x="985" d="M16 403q43 33 88.5 68t92.5 78v549q0 129 24.5 216t65.5 140t95 75.5t114 22.5q127 0 195.5 -89t68.5 -232q0 -94 -30 -191.5t-82 -192.5t-121.5 -186.5t-149.5 -171.5v-108q0 -221 149 -221q61 0 106.5 54t84.5 132l145 -90q-66 -135 -146.5 -208t-201.5 -73 q-139 0 -228 89.5t-89 271.5l-88 -66zM377 741q86 111 142 240t56 252q0 70 -22.5 105.5t-58.5 35.5q-47 0 -82 -59.5t-35 -206.5v-367z" />
<glyph unicode="&#x2116;" horiz-adv-x="2889" d="M158 0v1434h207l852 -1041v1041h233v-1434h-211l-848 1030v-1030h-233zM1653 838q0 100 36.5 187t100 151.5t151 100.5t189.5 36q100 0 188 -36t151.5 -100.5t100.5 -151.5t37 -187q0 -102 -37 -188.5t-100.5 -151t-151.5 -100.5t-188 -36q-102 0 -189.5 36t-151 100.5 t-100 150.5t-36.5 189zM1694 0v195h866v-195h-866zM1866 838q0 -57 19.5 -107.5t55 -87.5t84 -58.5t105.5 -21.5t105.5 21.5t84 58.5t55 87t19.5 108q0 57 -19.5 107t-55 87t-84 58.5t-105.5 21.5t-105.5 -21.5t-84 -58.5t-55 -87t-19.5 -107z" />
<glyph unicode="&#x2122;" horiz-adv-x="1839" d="M20 1245v189h750v-189h-278v-618h-191v618h-281zM852 627v807h172l313 -543l308 543h174v-807h-191v395l-225 -395h-135l-226 395v-395h-190z" />
<glyph unicode="&#x2126;" horiz-adv-x="1515" d="M41 745q0 158 54.5 289t150.5 225.5t227 146.5t285 52t285 -52t227 -146.5t150.5 -225.5t54.5 -289q0 -90 -22.5 -169.5t-60.5 -149.5t-90.5 -128t-111.5 -108h256v-190h-612v190q86 49 161.5 105.5t132 125t89 149.5t32.5 180q0 106 -36.5 196t-102.5 155.5t-156 103.5 t-196 38t-196.5 -38t-156 -103.5t-102.5 -155.5t-37 -196q0 -96 32 -177t88 -150t132 -126t164 -107v-190h-614v190h256q-59 49 -110.5 107.5t-90.5 128.5t-60.5 149.5t-21.5 169.5z" />
<glyph unicode="&#x212e;" horiz-adv-x="1572" d="M72 612q0 135 56 253t153.5 205t228.5 138.5t281 51.5t280.5 -51.5t229 -138.5t154.5 -204.5t56 -253.5v-18h-1175v-287q0 -41 11 -71.5t27.5 -53t35 -38t32.5 -25.5q76 -47 166 -69.5t187 -22.5q139 0 261 50t206 140h100q-98 -115 -246.5 -183.5t-324.5 -68.5 q-150 0 -281 51.5t-228.5 138.5t-153.5 204.5t-56 252.5zM336 651h911v291q0 68 -31.5 102.5t-58.5 53.5q-76 53 -168 77.5t-194 24.5q-98 0 -187.5 -23.5t-165.5 -70.5q-14 -10 -32.5 -23.5t-35 -32t-27.5 -42t-11 -54.5v-303z" />
<glyph unicode="&#x2190;" horiz-adv-x="1921" d="M205 723l674 586l131 -146l-377 -338h1083v-204h-1083l377 -338l-131 -146z" />
<glyph unicode="&#x2191;" horiz-adv-x="1581" d="M205 791l586 673l585 -673l-153 -134l-330 379v-1036h-205v1036l-330 -379z" />
<glyph unicode="&#x2192;" horiz-adv-x="1921" d="M205 621v204h1083l-377 338l131 146l674 -586l-674 -586l-131 146l377 338h-1083z" />
<glyph unicode="&#x2193;" horiz-adv-x="1581" d="M205 637l153 133l330 -379v1036h205v-1036l330 379l153 -133l-585 -674z" />
<glyph unicode="&#x2196;" horiz-adv-x="1550" d="M205 1260l891 -62l-11 -197l-505 27l766 -766l-144 -143l-766 766l27 -506l-197 -10z" />
<glyph unicode="&#x2197;" horiz-adv-x="1550" d="M205 262l766 766l-506 -27l-10 197l891 62l-62 -891l-197 10l27 506l-766 -766z" />
<glyph unicode="&#x2198;" horiz-adv-x="1550" d="M205 1149l143 143l766 -766l-27 506l197 10l62 -890l-891 61l10 197l506 -27z" />
<glyph unicode="&#x2199;" horiz-adv-x="1550" d="M205 152l61 890l197 -10l-27 -506l766 766l144 -143l-766 -766l505 27l11 -197z" />
<glyph unicode="&#x2202;" d="M223 444q0 109 38 200t102.5 155.5t149.5 100.5t177 36t165 -32t120 -68q-4 94 -32 172.5t-74 135t-104 87.5t-124 31q-41 0 -82 -10.5t-79 -28t-72.5 -38t-61.5 -38.5l-98 196q68 49 173 90.5t228 41.5q115 0 216.5 -44.5t178 -134.5t120.5 -228t44 -329 q0 -160 -33.5 -299t-101 -242.5t-169 -163t-236.5 -59.5q-111 0 -195 40t-139 105.5t-83 149.5t-28 174zM453 436q0 -53 16 -97t45 -78t70 -52.5t88 -18.5q59 0 109 29t88 80t62.5 120.5t35.5 151.5q-16 27 -44 53.5t-63 48t-73.5 35t-79.5 13.5q-53 0 -99.5 -22.5 t-80 -61.5t-54 -91t-20.5 -110z" />
<glyph unicode="&#x2206;" horiz-adv-x="1515" d="M66 0l632 1524h119l631 -1524h-1382zM381 176h756l-377 936z" />
<glyph unicode="&#x220f;" d="M68 1225v209h1298v-209h-233v-1430h-213v1430h-404v-1430h-215v1430h-233z" />
<glyph unicode="&#x2211;" d="M221 -57l471 692l-448 655v144h940v-209h-625l399 -590l-426 -631h678v-209h-989v148z" />
<glyph unicode="&#x2212;" d="M244 535v233h944v-233h-944z" />
<glyph unicode="&#x221a;" d="M147 922l342 147l314 -780l291 1550l192 -27l-366 -1921h-172l-377 916l-146 -64z" />
<glyph unicode="&#x221e;" horiz-adv-x="1515" d="M53 608q0 74 29 137.5t77 108.5t111.5 70.5t135.5 25.5q113 0 196.5 -58t155.5 -142q72 84 155.5 142t196.5 58q70 0 133.5 -25.5t111.5 -70.5t76.5 -108.5t28.5 -137.5t-28.5 -136t-76.5 -107.5t-111.5 -71t-135.5 -25.5q-113 0 -198 58.5t-152 136.5 q-70 -78 -155 -136.5t-197 -58.5q-72 0 -135.5 25.5t-111.5 71t-77 108t-29 135.5zM244 608q0 -72 45.5 -120t111.5 -48t123.5 49.5t116.5 118.5q-59 72 -115.5 121t-124.5 49q-66 0 -111.5 -48t-45.5 -122zM872 608q59 -70 116.5 -119t123.5 -49t113 48.5t47 119.5 q0 74 -47 122t-113 48q-68 0 -124 -49t-116 -121z" />
<glyph unicode="&#x222b;" d="M424 -172q47 -6 73.5 -10t55.5 -4q57 0 57 67v1581q0 135 64.5 199.5t159.5 64.5q39 0 83 -6t91 -16v-205q-45 8 -73 11t-56 3q-57 0 -58 -67v-1581q0 -135 -64.5 -199.5t-156.5 -64.5q-39 0 -84 6t-92 16v205z" />
<glyph unicode="&#x2248;" d="M143 827q70 68 161 120t194 52q63 0 124.5 -23.5t118 -52t106.5 -52t91 -23.5q47 0 100.5 30.5t106.5 77.5l133 -159q-37 -33 -79 -65t-86 -57.5t-89 -41t-88 -15.5q-57 0 -114.5 24t-113 53.5t-108.5 53t-104 23.5q-57 0 -108.5 -27.5t-113.5 -82.5zM154 406 q70 68 161 120t193 52q63 0 124.5 -24t118 -52.5t106.5 -52t91 -23.5q47 0 100.5 30.5t106.5 78.5l133 -160q-37 -33 -79 -64.5t-86 -57.5t-89 -41t-88 -15q-57 0 -114.5 23.5t-112.5 53t-108.5 53t-104.5 23.5q-57 0 -108.5 -27.5t-112.5 -82.5z" />
<glyph unicode="&#x2260;" d="M217 287v219h315l99 188h-414v219h531l116 220l185 -95l-68 -125h233v-219h-350l-100 -188h450v-219h-567l-133 -252l-180 94l82 158h-199z" />
<glyph unicode="&#x2264;" d="M225 137v217h981v-217h-981zM229 731v191l906 266l59 -195l-588 -166l592 -163l-59 -199z" />
<glyph unicode="&#x2265;" d="M225 137v217h981v-217h-981zM233 664l592 163l-587 166l59 195l905 -266v-191l-909 -266z" />
<glyph unicode="&#x25ca;" d="M217 674l412 842h176l409 -842l-409 -838h-176zM438 674l279 -574l278 574l-278 577z" />
<glyph unicode="&#xe000;" horiz-adv-x="1024" d="M0 0v1024h1024v-1024h-1024z" />
<glyph unicode="&#xfb00;" horiz-adv-x="1409" d="M31 823v201h178v49q0 205 89 292t247 87q35 0 81 -4t95 -14v-205q-43 6 -81 10t-75 4q-72 0 -105.5 -36t-33.5 -134v-49h440v49q0 205 89 292t247 87q35 0 81 -4t95 -14v-205q-43 6 -80.5 10t-74.5 4q-72 0 -106 -36t-34 -134v-49h281v-201h-281v-823h-217v823h-440v-823 h-217v823h-178z" />
<glyph unicode="&#xfb01;" horiz-adv-x="1318" d="M31 823v201h178v49q0 205 89 292t247 87q35 0 81 -4t95 -14v-205q-43 6 -81 10t-75 4q-72 0 -105.5 -36t-33.5 -134v-49h721v-1024h-221v823h-500v-823h-217v823h-178zM877 1288q0 68 46 114t113 46q68 0 114 -46t46 -114t-46 -114t-114 -46t-113.5 46t-45.5 114z" />
<glyph unicode="&#xfb02;" horiz-adv-x="1241" d="M31 823v201h178v49q0 205 89 292t247 87q35 0 81 -4t95 -14v-205q-43 6 -81 10t-75 4q-72 0 -105.5 -36t-33.5 -134v-49h281v-201h-281v-823h-217v823h-178zM877 0v1434h221v-1434h-221z" />
<glyph unicode="&#xfb03;" horiz-adv-x="1972" d="M31 823v201h178v49q0 205 89 292t247 87q35 0 81 -4t95 -14v-205q-43 6 -81 10t-75 4q-72 0 -105.5 -36t-33.5 -134v-49h438v49q0 205 89 292t247 87q35 0 81 -4t95 -14v-205q-43 6 -81 10t-74 4q-72 0 -106 -36t-34 -134v-49h721v-1024h-221v823h-500v-823h-217v823 h-438v-823h-217v823h-178zM1532 1288q0 68 46 114t114 46t113.5 -46t45.5 -114t-46 -114t-113 -46q-68 0 -114 46t-46 114z" />
<glyph unicode="&#xfb04;" horiz-adv-x="1898" d="M31 823v201h178v49q0 205 89 292t247 87q35 0 81 -4t95 -14v-205q-43 6 -81 10t-75 4q-72 0 -105.5 -36t-33.5 -134v-49h440v49q0 205 89 292t247 87q35 0 81 -4t95 -14v-205q-43 6 -80.5 10t-74.5 4q-72 0 -106 -36t-34 -134v-49h281v-201h-281v-823h-217v823h-440v-823 h-217v823h-178zM1534 0v1434h221v-1434h-221z" />
<glyph horiz-adv-x="1812" d="M137 1372q0 39 24.5 62.5t65.5 23.5q35 0 61.5 -23.5t26.5 -62.5q0 -47 -34 -76v-16q74 29 164 52.5t163 23.5q43 0 84 -11.5t73 -33t51.5 -56t19.5 -79.5v-31q35 8 84 14t106 6q49 0 100.5 -8t93.5 -28.5t67.5 -55.5t25.5 -88v-76q31 8 64.5 14.5t78.5 6.5 q125 0 178.5 -49.5t53.5 -124.5v-504q-74 45 -131.5 60.5t-98.5 15.5q-59 0 -116.5 -19.5t-120.5 -19.5q-117 0 -117 106v158l-40 4t-38 2q-70 0 -137.5 -17.5t-138.5 -17.5q-68 0 -96.5 29t-28.5 78v119h-11q-41 0 -86 -8.5t-89 -19.5t-85 -25.5t-73 -26.5v-670h-109v1296 q-14 14 -24.5 35t-10.5 41zM281 760q86 35 169.5 56.5t161.5 21.5q31 0 67 -5.5t69 -15.5v359q0 51 -43 71.5t-95 20.5q-35 0 -78 -7.5t-88 -19.5t-88 -26.5t-75 -28.5v-426zM369 1186h84l75 -107l78 107h84l-125 -185v-127h-71v130zM709 627q0 -16 39 -17q68 0 135 17.5 t143 17.5q49 0 102.5 -10t96.5 -29v365q0 12 -4 30.5t-22.5 35t-57.5 28.5t-111 12q-45 0 -90 -5t-104 -15v-326q0 -37 -24 -51t-54 -25q-18 -6 -33.5 -11t-15.5 -17zM713 721q10 4 16 5t16 3q-8 14 -32 14v-22zM858 860q0 66 44 109t110 43q70 0 112.5 -43t42.5 -109 q0 -68 -43 -113t-112 -45q-66 0 -110 45.5t-44 112.5zM930 860q0 -39 23.5 -62.5t58.5 -23.5t60.5 23.5t25.5 62.5q0 35 -25.5 58.5t-60.5 23.5t-58.5 -23.5t-23.5 -58.5zM1190 389q0 -16 33 -16q29 0 57.5 7t56 14t57 14.5t62.5 7.5q74 0 146 -23v361q0 51 -41 68.5 t-103 17.5q-37 0 -68.5 -5.5t-76.5 -15.5v-319q0 -35 -19.5 -48.5t-58.5 -29.5q-18 -8 -31.5 -15.5t-13.5 -17.5zM1190 487q35 17 35 21q0 10 -35 24v-45zM1395 512q0 18 12.5 30.5t30.5 12.5q20 0 32.5 -12.5t12.5 -30.5q0 -45 -45 -45q-18 0 -30.5 12.5t-12.5 32.5z M1403 580v196h70v-196h-70z" />
<glyph horiz-adv-x="378" d="M20 -588l103 178q-43 20 -67.5 59.5t-24.5 82.5q0 31 12 60.5t33.5 53t51.5 38t65 14.5q37 0 67.5 -14.5t52 -38t33.5 -52.5t12 -57q0 -25 -8 -47.5t-18 -38.5l-178 -316z" />
<glyph horiz-adv-x="378" d="M20 1292q0 25 8.5 47.5t18.5 38.5l178 316l133 -78l-102 -178q43 -20 67.5 -59.5t24.5 -82.5q0 -31 -12 -60.5t-33.5 -53t-51.5 -38t-65 -14.5q-37 0 -67.5 14.5t-52 38t-34 52.5t-12.5 57z" />
</font>
</defs>
</svg>
